<?xml version="1.0" encoding="utf-8" standalone="no"?>
<!DOCTYPE svg PUBLIC "-//W3C//DTD SVG 1.1//EN"
  "http://www.w3.org/Graphics/SVG/1.1/DTD/svg11.dtd">
<!-- Created with matplotlib (https://matplotlib.org/) -->
<svg height="262.474375pt" version="1.1" viewBox="0 0 408.053125 262.474375" width="408.053125pt" xmlns="http://www.w3.org/2000/svg" xmlns:xlink="http://www.w3.org/1999/xlink">
 <metadata>
  <rdf:RDF xmlns:cc="http://creativecommons.org/ns#" xmlns:dc="http://purl.org/dc/elements/1.1/" xmlns:rdf="http://www.w3.org/1999/02/22-rdf-syntax-ns#">
   <cc:Work>
    <dc:type rdf:resource="http://purl.org/dc/dcmitype/StillImage"/>
    <dc:date>2020-12-29T20:03:36.510143</dc:date>
    <dc:format>image/svg+xml</dc:format>
    <dc:creator>
     <cc:Agent>
      <dc:title>Matplotlib v3.3.3, https://matplotlib.org/</dc:title>
     </cc:Agent>
    </dc:creator>
   </cc:Work>
  </rdf:RDF>
 </metadata>
 <defs>
  <style type="text/css">*{stroke-linecap:butt;stroke-linejoin:round;}</style>
 </defs>
 <g id="figure_1">
  <g id="patch_1">
   <path d="M 0 262.474375 
L 408.053125 262.474375 
L 408.053125 0 
L 0 0 
z
" style="fill:none;"/>
  </g>
  <g id="axes_1">
   <g id="patch_2">
    <path d="M 66.053125 224.64 
L 400.853125 224.64 
L 400.853125 7.2 
L 66.053125 7.2 
z
" style="fill:#ffffff;"/>
   </g>
   <g id="PathCollection_1">
    <defs>
     <path d="M 0 2.236068 
C 0.593012 2.236068 1.161816 2.000462 1.581139 1.581139 
C 2.000462 1.161816 2.236068 0.593012 2.236068 0 
C 2.236068 -0.593012 2.000462 -1.161816 1.581139 -1.581139 
C 1.161816 -2.000462 0.593012 -2.236068 0 -2.236068 
C -0.593012 -2.236068 -1.161816 -2.000462 -1.581139 -1.581139 
C -2.000462 -1.161816 -2.236068 -0.593012 -2.236068 0 
C -2.236068 0.593012 -2.000462 1.161816 -1.581139 1.581139 
C -1.161816 2.000462 -0.593012 2.236068 0 2.236068 
z
" id="ma9b619b16b" style="stroke:#1f77b4;"/>
    </defs>
    <g clip-path="url(#p8a84f18342)">
     <use style="fill:#1f77b4;stroke:#1f77b4;" x="83.72935" xlink:href="#ma9b619b16b" y="17.083636"/>
     <use style="fill:#1f77b4;stroke:#1f77b4;" x="81.632784" xlink:href="#ma9b619b16b" y="95.703471"/>
     <use style="fill:#1f77b4;stroke:#1f77b4;" x="81.343602" xlink:href="#ma9b619b16b" y="100.196033"/>
     <use style="fill:#1f77b4;stroke:#1f77b4;" x="82.283442" xlink:href="#ma9b619b16b" y="106.934876"/>
     <use style="fill:#1f77b4;stroke:#1f77b4;" x="102.020087" xlink:href="#ma9b619b16b" y="118.166281"/>
     <use style="fill:#1f77b4;stroke:#1f77b4;" x="82.355738" xlink:href="#ma9b619b16b" y="118.166281"/>
     <use style="fill:#1f77b4;stroke:#1f77b4;" x="84.813781" xlink:href="#ma9b619b16b" y="124.905124"/>
     <use style="fill:#1f77b4;stroke:#1f77b4;" x="81.84967" xlink:href="#ma9b619b16b" y="124.905124"/>
     <use style="fill:#1f77b4;stroke:#1f77b4;" x="155.518683" xlink:href="#ma9b619b16b" y="129.397686"/>
     <use style="fill:#1f77b4;stroke:#1f77b4;" x="126.745114" xlink:href="#ma9b619b16b" y="129.397686"/>
     <use style="fill:#1f77b4;stroke:#1f77b4;" x="109.972581" xlink:href="#ma9b619b16b" y="129.397686"/>
     <use style="fill:#1f77b4;stroke:#1f77b4;" x="91.75414" xlink:href="#ma9b619b16b" y="129.397686"/>
     <use style="fill:#1f77b4;stroke:#1f77b4;" x="86.838053" xlink:href="#ma9b619b16b" y="129.397686"/>
     <use style="fill:#1f77b4;stroke:#1f77b4;" x="82.717215" xlink:href="#ma9b619b16b" y="129.397686"/>
     <use style="fill:#1f77b4;stroke:#1f77b4;" x="83.295578" xlink:href="#ma9b619b16b" y="133.890248"/>
     <use style="fill:#1f77b4;stroke:#1f77b4;" x="85.102963" xlink:href="#ma9b619b16b" y="135.911901"/>
     <use style="fill:#1f77b4;stroke:#1f77b4;" x="94.356774" xlink:href="#ma9b619b16b" y="136.136529"/>
     <use style="fill:#1f77b4;stroke:#1f77b4;" x="111.852261" xlink:href="#ma9b619b16b" y="138.38281"/>
     <use style="fill:#1f77b4;stroke:#1f77b4;" x="83.006396" xlink:href="#ma9b619b16b" y="142.875372"/>
     <use style="fill:#1f77b4;stroke:#1f77b4;" x="82.138852" xlink:href="#ma9b619b16b" y="142.875372"/>
     <use style="fill:#1f77b4;stroke:#1f77b4;" x="167.592015" xlink:href="#ma9b619b16b" y="145.121653"/>
     <use style="fill:#1f77b4;stroke:#1f77b4;" x="88.13937" xlink:href="#ma9b619b16b" y="147.367934"/>
     <use style="fill:#1f77b4;stroke:#1f77b4;" x="82.717215" xlink:href="#ma9b619b16b" y="147.367934"/>
     <use style="fill:#1f77b4;stroke:#1f77b4;" x="101.224837" xlink:href="#ma9b619b16b" y="149.614215"/>
     <use style="fill:#1f77b4;stroke:#1f77b4;" x="121.973617" xlink:href="#ma9b619b16b" y="151.860496"/>
     <use style="fill:#1f77b4;stroke:#1f77b4;" x="102.453859" xlink:href="#ma9b619b16b" y="151.860496"/>
     <use style="fill:#1f77b4;stroke:#1f77b4;" x="92.404799" xlink:href="#ma9b619b16b" y="151.860496"/>
     <use style="fill:#1f77b4;stroke:#1f77b4;" x="89.657573" xlink:href="#ma9b619b16b" y="151.860496"/>
     <use style="fill:#1f77b4;stroke:#1f77b4;" x="85.102963" xlink:href="#ma9b619b16b" y="151.860496"/>
     <use style="fill:#1f77b4;stroke:#1f77b4;" x="83.006396" xlink:href="#ma9b619b16b" y="151.860496"/>
     <use style="fill:#1f77b4;stroke:#1f77b4;" x="83.946237" xlink:href="#ma9b619b16b" y="151.860496"/>
     <use style="fill:#1f77b4;stroke:#1f77b4;" x="83.295578" xlink:href="#ma9b619b16b" y="151.860496"/>
     <use style="fill:#1f77b4;stroke:#1f77b4;" x="81.488193" xlink:href="#ma9b619b16b" y="151.860496"/>
     <use style="fill:#1f77b4;stroke:#1f77b4;" x="265.769169" xlink:href="#ma9b619b16b" y="156.353058"/>
     <use style="fill:#1f77b4;stroke:#1f77b4;" x="239.381348" xlink:href="#ma9b619b16b" y="158.599339"/>
     <use style="fill:#1f77b4;stroke:#1f77b4;" x="176.701236" xlink:href="#ma9b619b16b" y="158.599339"/>
     <use style="fill:#1f77b4;stroke:#1f77b4;" x="95.513501" xlink:href="#ma9b619b16b" y="160.84562"/>
     <use style="fill:#1f77b4;stroke:#1f77b4;" x="86.40428" xlink:href="#ma9b619b16b" y="160.84562"/>
     <use style="fill:#1f77b4;stroke:#1f77b4;" x="83.367873" xlink:href="#ma9b619b16b" y="160.84562"/>
     <use style="fill:#1f77b4;stroke:#1f77b4;" x="228.753924" xlink:href="#ma9b619b16b" y="163.091901"/>
     <use style="fill:#1f77b4;stroke:#1f77b4;" x="120.238528" xlink:href="#ma9b619b16b" y="163.091901"/>
     <use style="fill:#1f77b4;stroke:#1f77b4;" x="111.852261" xlink:href="#ma9b619b16b" y="163.091901"/>
     <use style="fill:#1f77b4;stroke:#1f77b4;" x="91.392663" xlink:href="#ma9b619b16b" y="163.091901"/>
     <use style="fill:#1f77b4;stroke:#1f77b4;" x="94.862842" xlink:href="#ma9b619b16b" y="163.091901"/>
     <use style="fill:#1f77b4;stroke:#1f77b4;" x="92.549389" xlink:href="#ma9b619b16b" y="163.091901"/>
     <use style="fill:#1f77b4;stroke:#1f77b4;" x="83.801646" xlink:href="#ma9b619b16b" y="163.091901"/>
     <use style="fill:#1f77b4;stroke:#1f77b4;" x="84.380009" xlink:href="#ma9b619b16b" y="163.091901"/>
     <use style="fill:#1f77b4;stroke:#1f77b4;" x="81.343602" xlink:href="#ma9b619b16b" y="163.091901"/>
     <use style="fill:#1f77b4;stroke:#1f77b4;" x="83.72935" xlink:href="#ma9b619b16b" y="163.765785"/>
     <use style="fill:#1f77b4;stroke:#1f77b4;" x="83.223283" xlink:href="#ma9b619b16b" y="165.338182"/>
     <use style="fill:#1f77b4;stroke:#1f77b4;" x="85.970508" xlink:href="#ma9b619b16b" y="169.830744"/>
     <use style="fill:#1f77b4;stroke:#1f77b4;" x="81.632784" xlink:href="#ma9b619b16b" y="169.830744"/>
     <use style="fill:#1f77b4;stroke:#1f77b4;" x="84.235418" xlink:href="#ma9b619b16b" y="171.40314"/>
     <use style="fill:#1f77b4;stroke:#1f77b4;" x="82.934101" xlink:href="#ma9b619b16b" y="172.077025"/>
     <use style="fill:#1f77b4;stroke:#1f77b4;" x="81.415898" xlink:href="#ma9b619b16b" y="172.077025"/>
     <use style="fill:#1f77b4;stroke:#1f77b4;" x="96.959409" xlink:href="#ma9b619b16b" y="174.098678"/>
     <use style="fill:#1f77b4;stroke:#1f77b4;" x="253.189769" xlink:href="#ma9b619b16b" y="174.323306"/>
     <use style="fill:#1f77b4;stroke:#1f77b4;" x="107.297651" xlink:href="#ma9b619b16b" y="174.323306"/>
     <use style="fill:#1f77b4;stroke:#1f77b4;" x="99.92352" xlink:href="#ma9b619b16b" y="174.323306"/>
     <use style="fill:#1f77b4;stroke:#1f77b4;" x="83.873941" xlink:href="#ma9b619b16b" y="174.323306"/>
     <use style="fill:#1f77b4;stroke:#1f77b4;" x="87.633302" xlink:href="#ma9b619b16b" y="174.323306"/>
     <use style="fill:#1f77b4;stroke:#1f77b4;" x="98.766794" xlink:href="#ma9b619b16b" y="174.323306"/>
     <use style="fill:#1f77b4;stroke:#1f77b4;" x="100.86336" xlink:href="#ma9b619b16b" y="174.323306"/>
     <use style="fill:#1f77b4;stroke:#1f77b4;" x="92.549389" xlink:href="#ma9b619b16b" y="174.323306"/>
     <use style="fill:#1f77b4;stroke:#1f77b4;" x="90.163641" xlink:href="#ma9b619b16b" y="174.323306"/>
     <use style="fill:#1f77b4;stroke:#1f77b4;" x="86.259689" xlink:href="#ma9b619b16b" y="174.323306"/>
     <use style="fill:#1f77b4;stroke:#1f77b4;" x="81.921965" xlink:href="#ma9b619b16b" y="174.323306"/>
     <use style="fill:#1f77b4;stroke:#1f77b4;" x="83.150987" xlink:href="#ma9b619b16b" y="174.323306"/>
     <use style="fill:#1f77b4;stroke:#1f77b4;" x="82.717215" xlink:href="#ma9b619b16b" y="174.323306"/>
     <use style="fill:#1f77b4;stroke:#1f77b4;" x="82.861806" xlink:href="#ma9b619b16b" y="174.323306"/>
     <use style="fill:#1f77b4;stroke:#1f77b4;" x="84.307714" xlink:href="#ma9b619b16b" y="174.323306"/>
     <use style="fill:#1f77b4;stroke:#1f77b4;" x="81.84967" xlink:href="#ma9b619b16b" y="174.323306"/>
     <use style="fill:#1f77b4;stroke:#1f77b4;" x="81.415898" xlink:href="#ma9b619b16b" y="174.323306"/>
     <use style="fill:#1f77b4;stroke:#1f77b4;" x="106.646992" xlink:href="#ma9b619b16b" y="176.569587"/>
     <use style="fill:#1f77b4;stroke:#1f77b4;" x="83.801646" xlink:href="#ma9b619b16b" y="177.917355"/>
     <use style="fill:#1f77b4;stroke:#1f77b4;" x="385.634943" xlink:href="#ma9b619b16b" y="178.815868"/>
     <use style="fill:#1f77b4;stroke:#1f77b4;" x="275.167571" xlink:href="#ma9b619b16b" y="178.815868"/>
     <use style="fill:#1f77b4;stroke:#1f77b4;" x="181.400437" xlink:href="#ma9b619b16b" y="178.815868"/>
     <use style="fill:#1f77b4;stroke:#1f77b4;" x="94.067593" xlink:href="#ma9b619b16b" y="178.815868"/>
     <use style="fill:#1f77b4;stroke:#1f77b4;" x="85.609031" xlink:href="#ma9b619b16b" y="178.815868"/>
     <use style="fill:#1f77b4;stroke:#1f77b4;" x="88.573142" xlink:href="#ma9b619b16b" y="179.939008"/>
     <use style="fill:#1f77b4;stroke:#1f77b4;" x="93.706116" xlink:href="#ma9b619b16b" y="180.163636"/>
     <use style="fill:#1f77b4;stroke:#1f77b4;" x="81.777375" xlink:href="#ma9b619b16b" y="181.062149"/>
     <use style="fill:#1f77b4;stroke:#1f77b4;" x="88.13937" xlink:href="#ma9b619b16b" y="182.409917"/>
     <use style="fill:#1f77b4;stroke:#1f77b4;" x="86.765757" xlink:href="#ma9b619b16b" y="182.859174"/>
     <use style="fill:#1f77b4;stroke:#1f77b4;" x="100.212702" xlink:href="#ma9b619b16b" y="183.30843"/>
     <use style="fill:#1f77b4;stroke:#1f77b4;" x="87.777893" xlink:href="#ma9b619b16b" y="183.30843"/>
     <use style="fill:#1f77b4;stroke:#1f77b4;" x="86.982643" xlink:href="#ma9b619b16b" y="183.30843"/>
     <use style="fill:#1f77b4;stroke:#1f77b4;" x="84.452304" xlink:href="#ma9b619b16b" y="183.30843"/>
     <use style="fill:#1f77b4;stroke:#1f77b4;" x="82.428033" xlink:href="#ma9b619b16b" y="183.30843"/>
     <use style="fill:#1f77b4;stroke:#1f77b4;" x="81.705079" xlink:href="#ma9b619b16b" y="183.30843"/>
     <use style="fill:#1f77b4;stroke:#1f77b4;" x="97.393181" xlink:href="#ma9b619b16b" y="184.206942"/>
     <use style="fill:#1f77b4;stroke:#1f77b4;" x="254.201905" xlink:href="#ma9b619b16b" y="185.554711"/>
     <use style="fill:#1f77b4;stroke:#1f77b4;" x="206.053168" xlink:href="#ma9b619b16b" y="185.554711"/>
     <use style="fill:#1f77b4;stroke:#1f77b4;" x="166.869061" xlink:href="#ma9b619b16b" y="185.554711"/>
     <use style="fill:#1f77b4;stroke:#1f77b4;" x="142.071739" xlink:href="#ma9b619b16b" y="185.554711"/>
     <use style="fill:#1f77b4;stroke:#1f77b4;" x="111.996852" xlink:href="#ma9b619b16b" y="185.554711"/>
     <use style="fill:#1f77b4;stroke:#1f77b4;" x="130.359884" xlink:href="#ma9b619b16b" y="185.554711"/>
     <use style="fill:#1f77b4;stroke:#1f77b4;" x="99.128271" xlink:href="#ma9b619b16b" y="185.554711"/>
     <use style="fill:#1f77b4;stroke:#1f77b4;" x="98.911385" xlink:href="#ma9b619b16b" y="185.554711"/>
     <use style="fill:#1f77b4;stroke:#1f77b4;" x="88.283961" xlink:href="#ma9b619b16b" y="185.554711"/>
     <use style="fill:#1f77b4;stroke:#1f77b4;" x="96.597932" xlink:href="#ma9b619b16b" y="185.554711"/>
     <use style="fill:#1f77b4;stroke:#1f77b4;" x="89.657573" xlink:href="#ma9b619b16b" y="185.554711"/>
     <use style="fill:#1f77b4;stroke:#1f77b4;" x="94.42907" xlink:href="#ma9b619b16b" y="185.554711"/>
     <use style="fill:#1f77b4;stroke:#1f77b4;" x="96.164159" xlink:href="#ma9b619b16b" y="185.554711"/>
     <use style="fill:#1f77b4;stroke:#1f77b4;" x="94.139888" xlink:href="#ma9b619b16b" y="185.554711"/>
     <use style="fill:#1f77b4;stroke:#1f77b4;" x="92.115617" xlink:href="#ma9b619b16b" y="185.554711"/>
     <use style="fill:#1f77b4;stroke:#1f77b4;" x="84.958372" xlink:href="#ma9b619b16b" y="185.554711"/>
     <use style="fill:#1f77b4;stroke:#1f77b4;" x="90.380527" xlink:href="#ma9b619b16b" y="185.554711"/>
     <use style="fill:#1f77b4;stroke:#1f77b4;" x="83.440169" xlink:href="#ma9b619b16b" y="185.554711"/>
     <use style="fill:#1f77b4;stroke:#1f77b4;" x="84.596895" xlink:href="#ma9b619b16b" y="185.554711"/>
     <use style="fill:#1f77b4;stroke:#1f77b4;" x="81.415898" xlink:href="#ma9b619b16b" y="185.554711"/>
     <use style="fill:#1f77b4;stroke:#1f77b4;" x="147.566189" xlink:href="#ma9b619b16b" y="187.800992"/>
     <use style="fill:#1f77b4;stroke:#1f77b4;" x="157.61525" xlink:href="#ma9b619b16b" y="187.800992"/>
     <use style="fill:#1f77b4;stroke:#1f77b4;" x="105.851743" xlink:href="#ma9b619b16b" y="187.800992"/>
     <use style="fill:#1f77b4;stroke:#1f77b4;" x="94.42907" xlink:href="#ma9b619b16b" y="187.800992"/>
     <use style="fill:#1f77b4;stroke:#1f77b4;" x="92.477094" xlink:href="#ma9b619b16b" y="187.800992"/>
     <use style="fill:#1f77b4;stroke:#1f77b4;" x="90.525118" xlink:href="#ma9b619b16b" y="187.800992"/>
     <use style="fill:#1f77b4;stroke:#1f77b4;" x="90.01905" xlink:href="#ma9b619b16b" y="187.800992"/>
     <use style="fill:#1f77b4;stroke:#1f77b4;" x="81.488193" xlink:href="#ma9b619b16b" y="187.800992"/>
     <use style="fill:#1f77b4;stroke:#1f77b4;" x="83.367873" xlink:href="#ma9b619b16b" y="188.924132"/>
     <use style="fill:#1f77b4;stroke:#1f77b4;" x="85.681326" xlink:href="#ma9b619b16b" y="188.924132"/>
     <use style="fill:#1f77b4;stroke:#1f77b4;" x="180.171415" xlink:href="#ma9b619b16b" y="189.14876"/>
     <use style="fill:#1f77b4;stroke:#1f77b4;" x="155.157206" xlink:href="#ma9b619b16b" y="190.047273"/>
     <use style="fill:#1f77b4;stroke:#1f77b4;" x="123.781002" xlink:href="#ma9b619b16b" y="190.047273"/>
     <use style="fill:#1f77b4;stroke:#1f77b4;" x="97.320886" xlink:href="#ma9b619b16b" y="190.047273"/>
     <use style="fill:#1f77b4;stroke:#1f77b4;" x="120.600005" xlink:href="#ma9b619b16b" y="190.047273"/>
     <use style="fill:#1f77b4;stroke:#1f77b4;" x="98.116135" xlink:href="#ma9b619b16b" y="190.047273"/>
     <use style="fill:#1f77b4;stroke:#1f77b4;" x="87.488711" xlink:href="#ma9b619b16b" y="190.047273"/>
     <use style="fill:#1f77b4;stroke:#1f77b4;" x="90.235936" xlink:href="#ma9b619b16b" y="190.047273"/>
     <use style="fill:#1f77b4;stroke:#1f77b4;" x="87.994779" xlink:href="#ma9b619b16b" y="190.047273"/>
     <use style="fill:#1f77b4;stroke:#1f77b4;" x="87.34412" xlink:href="#ma9b619b16b" y="190.047273"/>
     <use style="fill:#1f77b4;stroke:#1f77b4;" x="92.404799" xlink:href="#ma9b619b16b" y="191.170413"/>
     <use style="fill:#1f77b4;stroke:#1f77b4;" x="95.730387" xlink:href="#ma9b619b16b" y="191.395041"/>
     <use style="fill:#1f77b4;stroke:#1f77b4;" x="108.237491" xlink:href="#ma9b619b16b" y="191.844298"/>
     <use style="fill:#1f77b4;stroke:#1f77b4;" x="105.562561" xlink:href="#ma9b619b16b" y="192.068926"/>
     <use style="fill:#1f77b4;stroke:#1f77b4;" x="184.942911" xlink:href="#ma9b619b16b" y="192.293554"/>
     <use style="fill:#1f77b4;stroke:#1f77b4;" x="198.895924" xlink:href="#ma9b619b16b" y="192.293554"/>
     <use style="fill:#1f77b4;stroke:#1f77b4;" x="154.434252" xlink:href="#ma9b619b16b" y="192.293554"/>
     <use style="fill:#1f77b4;stroke:#1f77b4;" x="122.262799" xlink:href="#ma9b619b16b" y="192.293554"/>
     <use style="fill:#1f77b4;stroke:#1f77b4;" x="105.056494" xlink:href="#ma9b619b16b" y="192.293554"/>
     <use style="fill:#1f77b4;stroke:#1f77b4;" x="89.296096" xlink:href="#ma9b619b16b" y="192.293554"/>
     <use style="fill:#1f77b4;stroke:#1f77b4;" x="89.07921" xlink:href="#ma9b619b16b" y="192.293554"/>
     <use style="fill:#1f77b4;stroke:#1f77b4;" x="85.392145" xlink:href="#ma9b619b16b" y="192.293554"/>
     <use style="fill:#1f77b4;stroke:#1f77b4;" x="267.938031" xlink:href="#ma9b619b16b" y="193.416694"/>
     <use style="fill:#1f77b4;stroke:#1f77b4;" x="111.418489" xlink:href="#ma9b619b16b" y="194.539835"/>
     <use style="fill:#1f77b4;stroke:#1f77b4;" x="99.851225" xlink:href="#ma9b619b16b" y="194.539835"/>
     <use style="fill:#1f77b4;stroke:#1f77b4;" x="95.874978" xlink:href="#ma9b619b16b" y="194.539835"/>
     <use style="fill:#1f77b4;stroke:#1f77b4;" x="126.166751" xlink:href="#ma9b619b16b" y="195.662975"/>
     <use style="fill:#1f77b4;stroke:#1f77b4;" x="118.575734" xlink:href="#ma9b619b16b" y="196.786116"/>
     <use style="fill:#1f77b4;stroke:#1f77b4;" x="108.165196" xlink:href="#ma9b619b16b" y="196.786116"/>
     <use style="fill:#1f77b4;stroke:#1f77b4;" x="99.562043" xlink:href="#ma9b619b16b" y="196.786116"/>
     <use style="fill:#1f77b4;stroke:#1f77b4;" x="90.669709" xlink:href="#ma9b619b16b" y="196.786116"/>
     <use style="fill:#1f77b4;stroke:#1f77b4;" x="91.392663" xlink:href="#ma9b619b16b" y="196.786116"/>
     <use style="fill:#1f77b4;stroke:#1f77b4;" x="85.46444" xlink:href="#ma9b619b16b" y="196.786116"/>
     <use style="fill:#1f77b4;stroke:#1f77b4;" x="87.561007" xlink:href="#ma9b619b16b" y="196.786116"/>
     <use style="fill:#1f77b4;stroke:#1f77b4;" x="84.669191" xlink:href="#ma9b619b16b" y="196.786116"/>
     <use style="fill:#1f77b4;stroke:#1f77b4;" x="103.53829" xlink:href="#ma9b619b16b" y="199.032397"/>
     <use style="fill:#1f77b4;stroke:#1f77b4;" x="94.284479" xlink:href="#ma9b619b16b" y="199.032397"/>
     <use style="fill:#1f77b4;stroke:#1f77b4;" x="89.585278" xlink:href="#ma9b619b16b" y="199.032397"/>
     <use style="fill:#1f77b4;stroke:#1f77b4;" x="82.861806" xlink:href="#ma9b619b16b" y="199.032397"/>
     <use style="fill:#1f77b4;stroke:#1f77b4;" x="98.98368" xlink:href="#ma9b619b16b" y="201.278678"/>
     <use style="fill:#1f77b4;stroke:#1f77b4;" x="87.994779" xlink:href="#ma9b619b16b" y="201.278678"/>
     <use style="fill:#1f77b4;stroke:#1f77b4;" x="105.851743" xlink:href="#ma9b619b16b" y="201.278678"/>
     <use style="fill:#1f77b4;stroke:#1f77b4;" x="85.175258" xlink:href="#ma9b619b16b" y="202.401818"/>
     <use style="fill:#1f77b4;stroke:#1f77b4;" x="106.936174" xlink:href="#ma9b619b16b" y="203.524959"/>
     <use style="fill:#1f77b4;stroke:#1f77b4;" x="92.043322" xlink:href="#ma9b619b16b" y="203.524959"/>
     <use style="fill:#1f77b4;stroke:#1f77b4;" x="84.5246" xlink:href="#ma9b619b16b" y="205.77124"/>
     <use style="fill:#1f77b4;stroke:#1f77b4;" x="81.632784" xlink:href="#ma9b619b16b" y="208.017521"/>
     <use style="fill:#1f77b4;stroke:#1f77b4;" x="82.066556" xlink:href="#ma9b619b16b" y="208.017521"/>
     <use style="fill:#1f77b4;stroke:#1f77b4;" x="82.644919" xlink:href="#ma9b619b16b" y="211.61157"/>
     <use style="fill:#1f77b4;stroke:#1f77b4;" x="81.271307" xlink:href="#ma9b619b16b" y="214.756364"/>
    </g>
   </g>
   <g id="matplotlib.axis_1">
    <g id="xtick_1">
     <g id="line2d_1">
      <defs>
       <path d="M 0 0 
L 0 3.5 
" id="md886c797c7" style="stroke:#000000;stroke-width:0.8;"/>
      </defs>
      <g>
       <use style="stroke:#000000;stroke-width:0.8;" x="81.126716" xlink:href="#md886c797c7" y="224.64"/>
      </g>
     </g>
     <g id="text_1">
      <!-- 0 -->
      <g transform="translate(77.945466 239.238438)scale(0.1 -0.1)">
       <defs>
        <path d="M 31.78125 66.40625 
Q 24.171875 66.40625 20.328125 58.90625 
Q 16.5 51.421875 16.5 36.375 
Q 16.5 21.390625 20.328125 13.890625 
Q 24.171875 6.390625 31.78125 6.390625 
Q 39.453125 6.390625 43.28125 13.890625 
Q 47.125 21.390625 47.125 36.375 
Q 47.125 51.421875 43.28125 58.90625 
Q 39.453125 66.40625 31.78125 66.40625 
z
M 31.78125 74.21875 
Q 44.046875 74.21875 50.515625 64.515625 
Q 56.984375 54.828125 56.984375 36.375 
Q 56.984375 17.96875 50.515625 8.265625 
Q 44.046875 -1.421875 31.78125 -1.421875 
Q 19.53125 -1.421875 13.0625 8.265625 
Q 6.59375 17.96875 6.59375 36.375 
Q 6.59375 54.828125 13.0625 64.515625 
Q 19.53125 74.21875 31.78125 74.21875 
z
" id="DejaVuSans-48"/>
       </defs>
       <use xlink:href="#DejaVuSans-48"/>
      </g>
     </g>
    </g>
    <g id="xtick_2">
     <g id="line2d_2">
      <g>
       <use style="stroke:#000000;stroke-width:0.8;" x="153.422117" xlink:href="#md886c797c7" y="224.64"/>
      </g>
     </g>
     <g id="text_2">
      <!-- 1000 -->
      <g transform="translate(140.697117 239.238438)scale(0.1 -0.1)">
       <defs>
        <path d="M 12.40625 8.296875 
L 28.515625 8.296875 
L 28.515625 63.921875 
L 10.984375 60.40625 
L 10.984375 69.390625 
L 28.421875 72.90625 
L 38.28125 72.90625 
L 38.28125 8.296875 
L 54.390625 8.296875 
L 54.390625 0 
L 12.40625 0 
z
" id="DejaVuSans-49"/>
       </defs>
       <use xlink:href="#DejaVuSans-49"/>
       <use x="63.623047" xlink:href="#DejaVuSans-48"/>
       <use x="127.246094" xlink:href="#DejaVuSans-48"/>
       <use x="190.869141" xlink:href="#DejaVuSans-48"/>
      </g>
     </g>
    </g>
    <g id="xtick_3">
     <g id="line2d_3">
      <g>
       <use style="stroke:#000000;stroke-width:0.8;" x="225.717517" xlink:href="#md886c797c7" y="224.64"/>
      </g>
     </g>
     <g id="text_3">
      <!-- 2000 -->
      <g transform="translate(212.992517 239.238438)scale(0.1 -0.1)">
       <defs>
        <path d="M 19.1875 8.296875 
L 53.609375 8.296875 
L 53.609375 0 
L 7.328125 0 
L 7.328125 8.296875 
Q 12.9375 14.109375 22.625 23.890625 
Q 32.328125 33.6875 34.8125 36.53125 
Q 39.546875 41.84375 41.421875 45.53125 
Q 43.3125 49.21875 43.3125 52.78125 
Q 43.3125 58.59375 39.234375 62.25 
Q 35.15625 65.921875 28.609375 65.921875 
Q 23.96875 65.921875 18.8125 64.3125 
Q 13.671875 62.703125 7.8125 59.421875 
L 7.8125 69.390625 
Q 13.765625 71.78125 18.9375 73 
Q 24.125 74.21875 28.421875 74.21875 
Q 39.75 74.21875 46.484375 68.546875 
Q 53.21875 62.890625 53.21875 53.421875 
Q 53.21875 48.921875 51.53125 44.890625 
Q 49.859375 40.875 45.40625 35.40625 
Q 44.1875 33.984375 37.640625 27.21875 
Q 31.109375 20.453125 19.1875 8.296875 
z
" id="DejaVuSans-50"/>
       </defs>
       <use xlink:href="#DejaVuSans-50"/>
       <use x="63.623047" xlink:href="#DejaVuSans-48"/>
       <use x="127.246094" xlink:href="#DejaVuSans-48"/>
       <use x="190.869141" xlink:href="#DejaVuSans-48"/>
      </g>
     </g>
    </g>
    <g id="xtick_4">
     <g id="line2d_4">
      <g>
       <use style="stroke:#000000;stroke-width:0.8;" x="298.012918" xlink:href="#md886c797c7" y="224.64"/>
      </g>
     </g>
     <g id="text_4">
      <!-- 3000 -->
      <g transform="translate(285.287918 239.238438)scale(0.1 -0.1)">
       <defs>
        <path d="M 40.578125 39.3125 
Q 47.65625 37.796875 51.625 33 
Q 55.609375 28.21875 55.609375 21.1875 
Q 55.609375 10.40625 48.1875 4.484375 
Q 40.765625 -1.421875 27.09375 -1.421875 
Q 22.515625 -1.421875 17.65625 -0.515625 
Q 12.796875 0.390625 7.625 2.203125 
L 7.625 11.71875 
Q 11.71875 9.328125 16.59375 8.109375 
Q 21.484375 6.890625 26.8125 6.890625 
Q 36.078125 6.890625 40.9375 10.546875 
Q 45.796875 14.203125 45.796875 21.1875 
Q 45.796875 27.640625 41.28125 31.265625 
Q 36.765625 34.90625 28.71875 34.90625 
L 20.21875 34.90625 
L 20.21875 43.015625 
L 29.109375 43.015625 
Q 36.375 43.015625 40.234375 45.921875 
Q 44.09375 48.828125 44.09375 54.296875 
Q 44.09375 59.90625 40.109375 62.90625 
Q 36.140625 65.921875 28.71875 65.921875 
Q 24.65625 65.921875 20.015625 65.03125 
Q 15.375 64.15625 9.8125 62.3125 
L 9.8125 71.09375 
Q 15.4375 72.65625 20.34375 73.4375 
Q 25.25 74.21875 29.59375 74.21875 
Q 40.828125 74.21875 47.359375 69.109375 
Q 53.90625 64.015625 53.90625 55.328125 
Q 53.90625 49.265625 50.4375 45.09375 
Q 46.96875 40.921875 40.578125 39.3125 
z
" id="DejaVuSans-51"/>
       </defs>
       <use xlink:href="#DejaVuSans-51"/>
       <use x="63.623047" xlink:href="#DejaVuSans-48"/>
       <use x="127.246094" xlink:href="#DejaVuSans-48"/>
       <use x="190.869141" xlink:href="#DejaVuSans-48"/>
      </g>
     </g>
    </g>
    <g id="xtick_5">
     <g id="line2d_5">
      <g>
       <use style="stroke:#000000;stroke-width:0.8;" x="370.308318" xlink:href="#md886c797c7" y="224.64"/>
      </g>
     </g>
     <g id="text_5">
      <!-- 4000 -->
      <g transform="translate(357.583318 239.238438)scale(0.1 -0.1)">
       <defs>
        <path d="M 37.796875 64.3125 
L 12.890625 25.390625 
L 37.796875 25.390625 
z
M 35.203125 72.90625 
L 47.609375 72.90625 
L 47.609375 25.390625 
L 58.015625 25.390625 
L 58.015625 17.1875 
L 47.609375 17.1875 
L 47.609375 0 
L 37.796875 0 
L 37.796875 17.1875 
L 4.890625 17.1875 
L 4.890625 26.703125 
z
" id="DejaVuSans-52"/>
       </defs>
       <use xlink:href="#DejaVuSans-52"/>
       <use x="63.623047" xlink:href="#DejaVuSans-48"/>
       <use x="127.246094" xlink:href="#DejaVuSans-48"/>
       <use x="190.869141" xlink:href="#DejaVuSans-48"/>
      </g>
     </g>
    </g>
    <g id="text_6">
     <!-- Sample_size -->
     <g transform="translate(202.510156 252.916562)scale(0.1 -0.1)">
      <defs>
       <path d="M 53.515625 70.515625 
L 53.515625 60.890625 
Q 47.90625 63.578125 42.921875 64.890625 
Q 37.9375 66.21875 33.296875 66.21875 
Q 25.25 66.21875 20.875 63.09375 
Q 16.5 59.96875 16.5 54.203125 
Q 16.5 49.359375 19.40625 46.890625 
Q 22.3125 44.4375 30.421875 42.921875 
L 36.375 41.703125 
Q 47.40625 39.59375 52.65625 34.296875 
Q 57.90625 29 57.90625 20.125 
Q 57.90625 9.515625 50.796875 4.046875 
Q 43.703125 -1.421875 29.984375 -1.421875 
Q 24.8125 -1.421875 18.96875 -0.25 
Q 13.140625 0.921875 6.890625 3.21875 
L 6.890625 13.375 
Q 12.890625 10.015625 18.65625 8.296875 
Q 24.421875 6.59375 29.984375 6.59375 
Q 38.421875 6.59375 43.015625 9.90625 
Q 47.609375 13.234375 47.609375 19.390625 
Q 47.609375 24.75 44.3125 27.78125 
Q 41.015625 30.8125 33.5 32.328125 
L 27.484375 33.5 
Q 16.453125 35.6875 11.515625 40.375 
Q 6.59375 45.0625 6.59375 53.421875 
Q 6.59375 63.09375 13.40625 68.65625 
Q 20.21875 74.21875 32.171875 74.21875 
Q 37.3125 74.21875 42.625 73.28125 
Q 47.953125 72.359375 53.515625 70.515625 
z
" id="DejaVuSans-83"/>
       <path d="M 34.28125 27.484375 
Q 23.390625 27.484375 19.1875 25 
Q 14.984375 22.515625 14.984375 16.5 
Q 14.984375 11.71875 18.140625 8.90625 
Q 21.296875 6.109375 26.703125 6.109375 
Q 34.1875 6.109375 38.703125 11.40625 
Q 43.21875 16.703125 43.21875 25.484375 
L 43.21875 27.484375 
z
M 52.203125 31.203125 
L 52.203125 0 
L 43.21875 0 
L 43.21875 8.296875 
Q 40.140625 3.328125 35.546875 0.953125 
Q 30.953125 -1.421875 24.3125 -1.421875 
Q 15.921875 -1.421875 10.953125 3.296875 
Q 6 8.015625 6 15.921875 
Q 6 25.140625 12.171875 29.828125 
Q 18.359375 34.515625 30.609375 34.515625 
L 43.21875 34.515625 
L 43.21875 35.40625 
Q 43.21875 41.609375 39.140625 45 
Q 35.0625 48.390625 27.6875 48.390625 
Q 23 48.390625 18.546875 47.265625 
Q 14.109375 46.140625 10.015625 43.890625 
L 10.015625 52.203125 
Q 14.9375 54.109375 19.578125 55.046875 
Q 24.21875 56 28.609375 56 
Q 40.484375 56 46.34375 49.84375 
Q 52.203125 43.703125 52.203125 31.203125 
z
" id="DejaVuSans-97"/>
       <path d="M 52 44.1875 
Q 55.375 50.25 60.0625 53.125 
Q 64.75 56 71.09375 56 
Q 79.640625 56 84.28125 50.015625 
Q 88.921875 44.046875 88.921875 33.015625 
L 88.921875 0 
L 79.890625 0 
L 79.890625 32.71875 
Q 79.890625 40.578125 77.09375 44.375 
Q 74.3125 48.1875 68.609375 48.1875 
Q 61.625 48.1875 57.5625 43.546875 
Q 53.515625 38.921875 53.515625 30.90625 
L 53.515625 0 
L 44.484375 0 
L 44.484375 32.71875 
Q 44.484375 40.625 41.703125 44.40625 
Q 38.921875 48.1875 33.109375 48.1875 
Q 26.21875 48.1875 22.15625 43.53125 
Q 18.109375 38.875 18.109375 30.90625 
L 18.109375 0 
L 9.078125 0 
L 9.078125 54.6875 
L 18.109375 54.6875 
L 18.109375 46.1875 
Q 21.1875 51.21875 25.484375 53.609375 
Q 29.78125 56 35.6875 56 
Q 41.65625 56 45.828125 52.96875 
Q 50 49.953125 52 44.1875 
z
" id="DejaVuSans-109"/>
       <path d="M 18.109375 8.203125 
L 18.109375 -20.796875 
L 9.078125 -20.796875 
L 9.078125 54.6875 
L 18.109375 54.6875 
L 18.109375 46.390625 
Q 20.953125 51.265625 25.265625 53.625 
Q 29.59375 56 35.59375 56 
Q 45.5625 56 51.78125 48.09375 
Q 58.015625 40.1875 58.015625 27.296875 
Q 58.015625 14.40625 51.78125 6.484375 
Q 45.5625 -1.421875 35.59375 -1.421875 
Q 29.59375 -1.421875 25.265625 0.953125 
Q 20.953125 3.328125 18.109375 8.203125 
z
M 48.6875 27.296875 
Q 48.6875 37.203125 44.609375 42.84375 
Q 40.53125 48.484375 33.40625 48.484375 
Q 26.265625 48.484375 22.1875 42.84375 
Q 18.109375 37.203125 18.109375 27.296875 
Q 18.109375 17.390625 22.1875 11.75 
Q 26.265625 6.109375 33.40625 6.109375 
Q 40.53125 6.109375 44.609375 11.75 
Q 48.6875 17.390625 48.6875 27.296875 
z
" id="DejaVuSans-112"/>
       <path d="M 9.421875 75.984375 
L 18.40625 75.984375 
L 18.40625 0 
L 9.421875 0 
z
" id="DejaVuSans-108"/>
       <path d="M 56.203125 29.59375 
L 56.203125 25.203125 
L 14.890625 25.203125 
Q 15.484375 15.921875 20.484375 11.0625 
Q 25.484375 6.203125 34.421875 6.203125 
Q 39.59375 6.203125 44.453125 7.46875 
Q 49.3125 8.734375 54.109375 11.28125 
L 54.109375 2.78125 
Q 49.265625 0.734375 44.1875 -0.34375 
Q 39.109375 -1.421875 33.890625 -1.421875 
Q 20.796875 -1.421875 13.15625 6.1875 
Q 5.515625 13.8125 5.515625 26.8125 
Q 5.515625 40.234375 12.765625 48.109375 
Q 20.015625 56 32.328125 56 
Q 43.359375 56 49.78125 48.890625 
Q 56.203125 41.796875 56.203125 29.59375 
z
M 47.21875 32.234375 
Q 47.125 39.59375 43.09375 43.984375 
Q 39.0625 48.390625 32.421875 48.390625 
Q 24.90625 48.390625 20.390625 44.140625 
Q 15.875 39.890625 15.1875 32.171875 
z
" id="DejaVuSans-101"/>
       <path d="M 50.984375 -16.609375 
L 50.984375 -23.578125 
L -0.984375 -23.578125 
L -0.984375 -16.609375 
z
" id="DejaVuSans-95"/>
       <path d="M 44.28125 53.078125 
L 44.28125 44.578125 
Q 40.484375 46.53125 36.375 47.5 
Q 32.28125 48.484375 27.875 48.484375 
Q 21.1875 48.484375 17.84375 46.4375 
Q 14.5 44.390625 14.5 40.28125 
Q 14.5 37.15625 16.890625 35.375 
Q 19.28125 33.59375 26.515625 31.984375 
L 29.59375 31.296875 
Q 39.15625 29.25 43.1875 25.515625 
Q 47.21875 21.78125 47.21875 15.09375 
Q 47.21875 7.46875 41.1875 3.015625 
Q 35.15625 -1.421875 24.609375 -1.421875 
Q 20.21875 -1.421875 15.453125 -0.5625 
Q 10.6875 0.296875 5.421875 2 
L 5.421875 11.28125 
Q 10.40625 8.6875 15.234375 7.390625 
Q 20.0625 6.109375 24.8125 6.109375 
Q 31.15625 6.109375 34.5625 8.28125 
Q 37.984375 10.453125 37.984375 14.40625 
Q 37.984375 18.0625 35.515625 20.015625 
Q 33.0625 21.96875 24.703125 23.78125 
L 21.578125 24.515625 
Q 13.234375 26.265625 9.515625 29.90625 
Q 5.8125 33.546875 5.8125 39.890625 
Q 5.8125 47.609375 11.28125 51.796875 
Q 16.75 56 26.8125 56 
Q 31.78125 56 36.171875 55.265625 
Q 40.578125 54.546875 44.28125 53.078125 
z
" id="DejaVuSans-115"/>
       <path d="M 9.421875 54.6875 
L 18.40625 54.6875 
L 18.40625 0 
L 9.421875 0 
z
M 9.421875 75.984375 
L 18.40625 75.984375 
L 18.40625 64.59375 
L 9.421875 64.59375 
z
" id="DejaVuSans-105"/>
       <path d="M 5.515625 54.6875 
L 48.1875 54.6875 
L 48.1875 46.484375 
L 14.40625 7.171875 
L 48.1875 7.171875 
L 48.1875 0 
L 4.296875 0 
L 4.296875 8.203125 
L 38.09375 47.515625 
L 5.515625 47.515625 
z
" id="DejaVuSans-122"/>
      </defs>
      <use xlink:href="#DejaVuSans-83"/>
      <use x="63.476562" xlink:href="#DejaVuSans-97"/>
      <use x="124.755859" xlink:href="#DejaVuSans-109"/>
      <use x="222.167969" xlink:href="#DejaVuSans-112"/>
      <use x="285.644531" xlink:href="#DejaVuSans-108"/>
      <use x="313.427734" xlink:href="#DejaVuSans-101"/>
      <use x="374.951172" xlink:href="#DejaVuSans-95"/>
      <use x="424.951172" xlink:href="#DejaVuSans-115"/>
      <use x="477.050781" xlink:href="#DejaVuSans-105"/>
      <use x="504.833984" xlink:href="#DejaVuSans-122"/>
      <use x="557.324219" xlink:href="#DejaVuSans-101"/>
     </g>
    </g>
   </g>
   <g id="matplotlib.axis_2">
    <g id="ytick_1">
     <g id="line2d_6">
      <defs>
       <path d="M 0 0 
L -3.5 0 
" id="me99659178a" style="stroke:#000000;stroke-width:0.8;"/>
      </defs>
      <g>
       <use style="stroke:#000000;stroke-width:0.8;" x="66.053125" xlink:href="#me99659178a" y="219.248926"/>
      </g>
     </g>
     <g id="text_7">
      <!-- 20000 -->
      <g transform="translate(27.240625 223.048144)scale(0.1 -0.1)">
       <use xlink:href="#DejaVuSans-50"/>
       <use x="63.623047" xlink:href="#DejaVuSans-48"/>
       <use x="127.246094" xlink:href="#DejaVuSans-48"/>
       <use x="190.869141" xlink:href="#DejaVuSans-48"/>
       <use x="254.492188" xlink:href="#DejaVuSans-48"/>
      </g>
     </g>
    </g>
    <g id="ytick_2">
     <g id="line2d_7">
      <g>
       <use style="stroke:#000000;stroke-width:0.8;" x="66.053125" xlink:href="#me99659178a" y="174.323306"/>
      </g>
     </g>
     <g id="text_8">
      <!-- 40000 -->
      <g transform="translate(27.240625 178.122525)scale(0.1 -0.1)">
       <use xlink:href="#DejaVuSans-52"/>
       <use x="63.623047" xlink:href="#DejaVuSans-48"/>
       <use x="127.246094" xlink:href="#DejaVuSans-48"/>
       <use x="190.869141" xlink:href="#DejaVuSans-48"/>
       <use x="254.492188" xlink:href="#DejaVuSans-48"/>
      </g>
     </g>
    </g>
    <g id="ytick_3">
     <g id="line2d_8">
      <g>
       <use style="stroke:#000000;stroke-width:0.8;" x="66.053125" xlink:href="#me99659178a" y="129.397686"/>
      </g>
     </g>
     <g id="text_9">
      <!-- 60000 -->
      <g transform="translate(27.240625 133.196905)scale(0.1 -0.1)">
       <defs>
        <path d="M 33.015625 40.375 
Q 26.375 40.375 22.484375 35.828125 
Q 18.609375 31.296875 18.609375 23.390625 
Q 18.609375 15.53125 22.484375 10.953125 
Q 26.375 6.390625 33.015625 6.390625 
Q 39.65625 6.390625 43.53125 10.953125 
Q 47.40625 15.53125 47.40625 23.390625 
Q 47.40625 31.296875 43.53125 35.828125 
Q 39.65625 40.375 33.015625 40.375 
z
M 52.59375 71.296875 
L 52.59375 62.3125 
Q 48.875 64.0625 45.09375 64.984375 
Q 41.3125 65.921875 37.59375 65.921875 
Q 27.828125 65.921875 22.671875 59.328125 
Q 17.53125 52.734375 16.796875 39.40625 
Q 19.671875 43.65625 24.015625 45.921875 
Q 28.375 48.1875 33.59375 48.1875 
Q 44.578125 48.1875 50.953125 41.515625 
Q 57.328125 34.859375 57.328125 23.390625 
Q 57.328125 12.15625 50.6875 5.359375 
Q 44.046875 -1.421875 33.015625 -1.421875 
Q 20.359375 -1.421875 13.671875 8.265625 
Q 6.984375 17.96875 6.984375 36.375 
Q 6.984375 53.65625 15.1875 63.9375 
Q 23.390625 74.21875 37.203125 74.21875 
Q 40.921875 74.21875 44.703125 73.484375 
Q 48.484375 72.75 52.59375 71.296875 
z
" id="DejaVuSans-54"/>
       </defs>
       <use xlink:href="#DejaVuSans-54"/>
       <use x="63.623047" xlink:href="#DejaVuSans-48"/>
       <use x="127.246094" xlink:href="#DejaVuSans-48"/>
       <use x="190.869141" xlink:href="#DejaVuSans-48"/>
       <use x="254.492188" xlink:href="#DejaVuSans-48"/>
      </g>
     </g>
    </g>
    <g id="ytick_4">
     <g id="line2d_9">
      <g>
       <use style="stroke:#000000;stroke-width:0.8;" x="66.053125" xlink:href="#me99659178a" y="84.472066"/>
      </g>
     </g>
     <g id="text_10">
      <!-- 80000 -->
      <g transform="translate(27.240625 88.271285)scale(0.1 -0.1)">
       <defs>
        <path d="M 31.78125 34.625 
Q 24.75 34.625 20.71875 30.859375 
Q 16.703125 27.09375 16.703125 20.515625 
Q 16.703125 13.921875 20.71875 10.15625 
Q 24.75 6.390625 31.78125 6.390625 
Q 38.8125 6.390625 42.859375 10.171875 
Q 46.921875 13.96875 46.921875 20.515625 
Q 46.921875 27.09375 42.890625 30.859375 
Q 38.875 34.625 31.78125 34.625 
z
M 21.921875 38.8125 
Q 15.578125 40.375 12.03125 44.71875 
Q 8.5 49.078125 8.5 55.328125 
Q 8.5 64.0625 14.71875 69.140625 
Q 20.953125 74.21875 31.78125 74.21875 
Q 42.671875 74.21875 48.875 69.140625 
Q 55.078125 64.0625 55.078125 55.328125 
Q 55.078125 49.078125 51.53125 44.71875 
Q 48 40.375 41.703125 38.8125 
Q 48.828125 37.15625 52.796875 32.3125 
Q 56.78125 27.484375 56.78125 20.515625 
Q 56.78125 9.90625 50.3125 4.234375 
Q 43.84375 -1.421875 31.78125 -1.421875 
Q 19.734375 -1.421875 13.25 4.234375 
Q 6.78125 9.90625 6.78125 20.515625 
Q 6.78125 27.484375 10.78125 32.3125 
Q 14.796875 37.15625 21.921875 38.8125 
z
M 18.3125 54.390625 
Q 18.3125 48.734375 21.84375 45.5625 
Q 25.390625 42.390625 31.78125 42.390625 
Q 38.140625 42.390625 41.71875 45.5625 
Q 45.3125 48.734375 45.3125 54.390625 
Q 45.3125 60.0625 41.71875 63.234375 
Q 38.140625 66.40625 31.78125 66.40625 
Q 25.390625 66.40625 21.84375 63.234375 
Q 18.3125 60.0625 18.3125 54.390625 
z
" id="DejaVuSans-56"/>
       </defs>
       <use xlink:href="#DejaVuSans-56"/>
       <use x="63.623047" xlink:href="#DejaVuSans-48"/>
       <use x="127.246094" xlink:href="#DejaVuSans-48"/>
       <use x="190.869141" xlink:href="#DejaVuSans-48"/>
       <use x="254.492188" xlink:href="#DejaVuSans-48"/>
      </g>
     </g>
    </g>
    <g id="ytick_5">
     <g id="line2d_10">
      <g>
       <use style="stroke:#000000;stroke-width:0.8;" x="66.053125" xlink:href="#me99659178a" y="39.546446"/>
      </g>
     </g>
     <g id="text_11">
      <!-- 100000 -->
      <g transform="translate(20.878125 43.345665)scale(0.1 -0.1)">
       <use xlink:href="#DejaVuSans-49"/>
       <use x="63.623047" xlink:href="#DejaVuSans-48"/>
       <use x="127.246094" xlink:href="#DejaVuSans-48"/>
       <use x="190.869141" xlink:href="#DejaVuSans-48"/>
       <use x="254.492188" xlink:href="#DejaVuSans-48"/>
       <use x="318.115234" xlink:href="#DejaVuSans-48"/>
      </g>
     </g>
    </g>
    <g id="text_12">
     <!-- Median -->
     <g transform="translate(14.798438 134.106719)rotate(-90)scale(0.1 -0.1)">
      <defs>
       <path d="M 9.8125 72.90625 
L 24.515625 72.90625 
L 43.109375 23.296875 
L 61.8125 72.90625 
L 76.515625 72.90625 
L 76.515625 0 
L 66.890625 0 
L 66.890625 64.015625 
L 48.09375 14.015625 
L 38.1875 14.015625 
L 19.390625 64.015625 
L 19.390625 0 
L 9.8125 0 
z
" id="DejaVuSans-77"/>
       <path d="M 45.40625 46.390625 
L 45.40625 75.984375 
L 54.390625 75.984375 
L 54.390625 0 
L 45.40625 0 
L 45.40625 8.203125 
Q 42.578125 3.328125 38.25 0.953125 
Q 33.9375 -1.421875 27.875 -1.421875 
Q 17.96875 -1.421875 11.734375 6.484375 
Q 5.515625 14.40625 5.515625 27.296875 
Q 5.515625 40.1875 11.734375 48.09375 
Q 17.96875 56 27.875 56 
Q 33.9375 56 38.25 53.625 
Q 42.578125 51.265625 45.40625 46.390625 
z
M 14.796875 27.296875 
Q 14.796875 17.390625 18.875 11.75 
Q 22.953125 6.109375 30.078125 6.109375 
Q 37.203125 6.109375 41.296875 11.75 
Q 45.40625 17.390625 45.40625 27.296875 
Q 45.40625 37.203125 41.296875 42.84375 
Q 37.203125 48.484375 30.078125 48.484375 
Q 22.953125 48.484375 18.875 42.84375 
Q 14.796875 37.203125 14.796875 27.296875 
z
" id="DejaVuSans-100"/>
       <path d="M 54.890625 33.015625 
L 54.890625 0 
L 45.90625 0 
L 45.90625 32.71875 
Q 45.90625 40.484375 42.875 44.328125 
Q 39.84375 48.1875 33.796875 48.1875 
Q 26.515625 48.1875 22.3125 43.546875 
Q 18.109375 38.921875 18.109375 30.90625 
L 18.109375 0 
L 9.078125 0 
L 9.078125 54.6875 
L 18.109375 54.6875 
L 18.109375 46.1875 
Q 21.34375 51.125 25.703125 53.5625 
Q 30.078125 56 35.796875 56 
Q 45.21875 56 50.046875 50.171875 
Q 54.890625 44.34375 54.890625 33.015625 
z
" id="DejaVuSans-110"/>
      </defs>
      <use xlink:href="#DejaVuSans-77"/>
      <use x="86.279297" xlink:href="#DejaVuSans-101"/>
      <use x="147.802734" xlink:href="#DejaVuSans-100"/>
      <use x="211.279297" xlink:href="#DejaVuSans-105"/>
      <use x="239.0625" xlink:href="#DejaVuSans-97"/>
      <use x="300.341797" xlink:href="#DejaVuSans-110"/>
     </g>
    </g>
   </g>
   <g id="patch_3">
    <path d="M 66.053125 224.64 
L 66.053125 7.2 
" style="fill:none;stroke:#000000;stroke-linecap:square;stroke-linejoin:miter;stroke-width:0.8;"/>
   </g>
   <g id="patch_4">
    <path d="M 400.853125 224.64 
L 400.853125 7.2 
" style="fill:none;stroke:#000000;stroke-linecap:square;stroke-linejoin:miter;stroke-width:0.8;"/>
   </g>
   <g id="patch_5">
    <path d="M 66.053125 224.64 
L 400.853125 224.64 
" style="fill:none;stroke:#000000;stroke-linecap:square;stroke-linejoin:miter;stroke-width:0.8;"/>
   </g>
   <g id="patch_6">
    <path d="M 66.053125 7.2 
L 400.853125 7.2 
" style="fill:none;stroke:#000000;stroke-linecap:square;stroke-linejoin:miter;stroke-width:0.8;"/>
   </g>
  </g>
 </g>
 <defs>
  <clipPath id="p8a84f18342">
   <rect height="217.44" width="334.8" x="66.053125" y="7.2"/>
  </clipPath>
 </defs>
</svg>