<?xml version="1.0" encoding="utf-8" standalone="no"?>
<!DOCTYPE svg PUBLIC "-//W3C//DTD SVG 1.1//EN"
  "http://www.w3.org/Graphics/SVG/1.1/DTD/svg11.dtd">
<!-- Created with matplotlib (https://matplotlib.org/) -->
<svg height="262.474375pt" version="1.1" viewBox="0 0 410.058219 262.474375" width="410.058219pt" xmlns="http://www.w3.org/2000/svg" xmlns:xlink="http://www.w3.org/1999/xlink">
 <metadata>
  <rdf:RDF xmlns:cc="http://creativecommons.org/ns#" xmlns:dc="http://purl.org/dc/elements/1.1/" xmlns:rdf="http://www.w3.org/1999/02/22-rdf-syntax-ns#">
   <cc:Work>
    <dc:type rdf:resource="http://purl.org/dc/dcmitype/StillImage"/>
    <dc:date>2020-12-29T20:03:37.280741</dc:date>
    <dc:format>image/svg+xml</dc:format>
    <dc:creator>
     <cc:Agent>
      <dc:title>Matplotlib v3.3.3, https://matplotlib.org/</dc:title>
     </cc:Agent>
    </dc:creator>
   </cc:Work>
  </rdf:RDF>
 </metadata>
 <defs>
  <style type="text/css">*{stroke-linecap:butt;stroke-linejoin:round;}</style>
 </defs>
 <g id="figure_1">
  <g id="patch_1">
   <path d="M 0 262.474375 
L 410.058219 262.474375 
L 410.058219 0 
L 0 0 
z
" style="fill:none;"/>
  </g>
  <g id="axes_1">
   <g id="patch_2">
    <path d="M 66.053125 224.64 
L 400.853125 224.64 
L 400.853125 7.2 
L 66.053125 7.2 
z
" style="fill:#ffffff;"/>
   </g>
   <g id="PathCollection_1">
    <defs>
     <path d="M 0 2.236068 
C 0.593012 2.236068 1.161816 2.000462 1.581139 1.581139 
C 2.000462 1.161816 2.236068 0.593012 2.236068 0 
C 2.236068 -0.593012 2.000462 -1.161816 1.581139 -1.581139 
C 1.161816 -2.000462 0.593012 -2.236068 0 -2.236068 
C -0.593012 -2.236068 -1.161816 -2.000462 -1.581139 -1.581139 
C -2.000462 -1.161816 -2.236068 -0.593012 -2.236068 0 
C -2.236068 0.593012 -2.000462 1.161816 -1.581139 1.581139 
C -1.161816 2.000462 -0.593012 2.236068 0 2.236068 
z
" id="mc1de06feb2" style="stroke:#1f77b4;"/>
    </defs>
    <g clip-path="url(#paa5fdaf693)">
     <use style="fill:#1f77b4;stroke:#1f77b4;" x="83.375217" xlink:href="#mc1de06feb2" y="17.083636"/>
     <use style="fill:#1f77b4;stroke:#1f77b4;" x="81.809995" xlink:href="#mc1de06feb2" y="95.703471"/>
     <use style="fill:#1f77b4;stroke:#1f77b4;" x="81.812416" xlink:href="#mc1de06feb2" y="100.196033"/>
     <use style="fill:#1f77b4;stroke:#1f77b4;" x="82.430999" xlink:href="#mc1de06feb2" y="106.934876"/>
     <use style="fill:#1f77b4;stroke:#1f77b4;" x="109.185036" xlink:href="#mc1de06feb2" y="118.166281"/>
     <use style="fill:#1f77b4;stroke:#1f77b4;" x="83.604008" xlink:href="#mc1de06feb2" y="118.166281"/>
     <use style="fill:#1f77b4;stroke:#1f77b4;" x="84.676542" xlink:href="#mc1de06feb2" y="124.905124"/>
     <use style="fill:#1f77b4;stroke:#1f77b4;" x="82.450368" xlink:href="#mc1de06feb2" y="124.905124"/>
     <use style="fill:#1f77b4;stroke:#1f77b4;" x="167.445671" xlink:href="#mc1de06feb2" y="129.397686"/>
     <use style="fill:#1f77b4;stroke:#1f77b4;" x="148.26111" xlink:href="#mc1de06feb2" y="129.397686"/>
     <use style="fill:#1f77b4;stroke:#1f77b4;" x="117.83431" xlink:href="#mc1de06feb2" y="129.397686"/>
     <use style="fill:#1f77b4;stroke:#1f77b4;" x="94.581141" xlink:href="#mc1de06feb2" y="129.397686"/>
     <use style="fill:#1f77b4;stroke:#1f77b4;" x="92.052333" xlink:href="#mc1de06feb2" y="129.397686"/>
     <use style="fill:#1f77b4;stroke:#1f77b4;" x="84.46712" xlink:href="#mc1de06feb2" y="129.397686"/>
     <use style="fill:#1f77b4;stroke:#1f77b4;" x="84.767332" xlink:href="#mc1de06feb2" y="133.890248"/>
     <use style="fill:#1f77b4;stroke:#1f77b4;" x="87.740407" xlink:href="#mc1de06feb2" y="135.911901"/>
     <use style="fill:#1f77b4;stroke:#1f77b4;" x="99.14849" xlink:href="#mc1de06feb2" y="136.136529"/>
     <use style="fill:#1f77b4;stroke:#1f77b4;" x="131.053353" xlink:href="#mc1de06feb2" y="138.38281"/>
     <use style="fill:#1f77b4;stroke:#1f77b4;" x="83.893326" xlink:href="#mc1de06feb2" y="142.875372"/>
     <use style="fill:#1f77b4;stroke:#1f77b4;" x="82.11505" xlink:href="#mc1de06feb2" y="142.875372"/>
     <use style="fill:#1f77b4;stroke:#1f77b4;" x="191.882743" xlink:href="#mc1de06feb2" y="145.121653"/>
     <use style="fill:#1f77b4;stroke:#1f77b4;" x="90.252267" xlink:href="#mc1de06feb2" y="147.367934"/>
     <use style="fill:#1f77b4;stroke:#1f77b4;" x="83.144005" xlink:href="#mc1de06feb2" y="147.367934"/>
     <use style="fill:#1f77b4;stroke:#1f77b4;" x="99.46565" xlink:href="#mc1de06feb2" y="149.614215"/>
     <use style="fill:#1f77b4;stroke:#1f77b4;" x="127.502854" xlink:href="#mc1de06feb2" y="151.860496"/>
     <use style="fill:#1f77b4;stroke:#1f77b4;" x="100.130234" xlink:href="#mc1de06feb2" y="151.860496"/>
     <use style="fill:#1f77b4;stroke:#1f77b4;" x="92.805286" xlink:href="#mc1de06feb2" y="151.860496"/>
     <use style="fill:#1f77b4;stroke:#1f77b4;" x="89.381892" xlink:href="#mc1de06feb2" y="151.860496"/>
     <use style="fill:#1f77b4;stroke:#1f77b4;" x="86.176395" xlink:href="#mc1de06feb2" y="151.860496"/>
     <use style="fill:#1f77b4;stroke:#1f77b4;" x="84.022853" xlink:href="#mc1de06feb2" y="151.860496"/>
     <use style="fill:#1f77b4;stroke:#1f77b4;" x="83.869115" xlink:href="#mc1de06feb2" y="151.860496"/>
     <use style="fill:#1f77b4;stroke:#1f77b4;" x="83.617324" xlink:href="#mc1de06feb2" y="151.860496"/>
     <use style="fill:#1f77b4;stroke:#1f77b4;" x="81.771258" xlink:href="#mc1de06feb2" y="151.860496"/>
     <use style="fill:#1f77b4;stroke:#1f77b4;" x="264.158954" xlink:href="#mc1de06feb2" y="156.353058"/>
     <use style="fill:#1f77b4;stroke:#1f77b4;" x="248.095153" xlink:href="#mc1de06feb2" y="158.599339"/>
     <use style="fill:#1f77b4;stroke:#1f77b4;" x="198.034683" xlink:href="#mc1de06feb2" y="158.599339"/>
     <use style="fill:#1f77b4;stroke:#1f77b4;" x="93.300394" xlink:href="#mc1de06feb2" y="160.84562"/>
     <use style="fill:#1f77b4;stroke:#1f77b4;" x="85.964552" xlink:href="#mc1de06feb2" y="160.84562"/>
     <use style="fill:#1f77b4;stroke:#1f77b4;" x="82.822002" xlink:href="#mc1de06feb2" y="160.84562"/>
     <use style="fill:#1f77b4;stroke:#1f77b4;" x="265.098329" xlink:href="#mc1de06feb2" y="163.091901"/>
     <use style="fill:#1f77b4;stroke:#1f77b4;" x="137.304557" xlink:href="#mc1de06feb2" y="163.091901"/>
     <use style="fill:#1f77b4;stroke:#1f77b4;" x="113.032117" xlink:href="#mc1de06feb2" y="163.091901"/>
     <use style="fill:#1f77b4;stroke:#1f77b4;" x="104.655214" xlink:href="#mc1de06feb2" y="163.091901"/>
     <use style="fill:#1f77b4;stroke:#1f77b4;" x="95.070197" xlink:href="#mc1de06feb2" y="163.091901"/>
     <use style="fill:#1f77b4;stroke:#1f77b4;" x="92.15886" xlink:href="#mc1de06feb2" y="163.091901"/>
     <use style="fill:#1f77b4;stroke:#1f77b4;" x="84.998544" xlink:href="#mc1de06feb2" y="163.091901"/>
     <use style="fill:#1f77b4;stroke:#1f77b4;" x="85.331442" xlink:href="#mc1de06feb2" y="163.091901"/>
     <use style="fill:#1f77b4;stroke:#1f77b4;" x="81.932259" xlink:href="#mc1de06feb2" y="163.091901"/>
     <use style="fill:#1f77b4;stroke:#1f77b4;" x="83.474481" xlink:href="#mc1de06feb2" y="163.765785"/>
     <use style="fill:#1f77b4;stroke:#1f77b4;" x="83.548323" xlink:href="#mc1de06feb2" y="165.338182"/>
     <use style="fill:#1f77b4;stroke:#1f77b4;" x="87.967987" xlink:href="#mc1de06feb2" y="169.830744"/>
     <use style="fill:#1f77b4;stroke:#1f77b4;" x="81.84389" xlink:href="#mc1de06feb2" y="169.830744"/>
     <use style="fill:#1f77b4;stroke:#1f77b4;" x="85.015492" xlink:href="#mc1de06feb2" y="171.40314"/>
     <use style="fill:#1f77b4;stroke:#1f77b4;" x="84.126959" xlink:href="#mc1de06feb2" y="172.077025"/>
     <use style="fill:#1f77b4;stroke:#1f77b4;" x="81.857206" xlink:href="#mc1de06feb2" y="172.077025"/>
     <use style="fill:#1f77b4;stroke:#1f77b4;" x="103.750944" xlink:href="#mc1de06feb2" y="174.098678"/>
     <use style="fill:#1f77b4;stroke:#1f77b4;" x="288.6045" xlink:href="#mc1de06feb2" y="174.323306"/>
     <use style="fill:#1f77b4;stroke:#1f77b4;" x="116.512405" xlink:href="#mc1de06feb2" y="174.323306"/>
     <use style="fill:#1f77b4;stroke:#1f77b4;" x="102.397566" xlink:href="#mc1de06feb2" y="174.323306"/>
     <use style="fill:#1f77b4;stroke:#1f77b4;" x="96.313416" xlink:href="#mc1de06feb2" y="174.323306"/>
     <use style="fill:#1f77b4;stroke:#1f77b4;" x="92.5656" xlink:href="#mc1de06feb2" y="174.323306"/>
     <use style="fill:#1f77b4;stroke:#1f77b4;" x="97.314529" xlink:href="#mc1de06feb2" y="174.323306"/>
     <use style="fill:#1f77b4;stroke:#1f77b4;" x="94.596877" xlink:href="#mc1de06feb2" y="174.323306"/>
     <use style="fill:#1f77b4;stroke:#1f77b4;" x="90.323688" xlink:href="#mc1de06feb2" y="174.323306"/>
     <use style="fill:#1f77b4;stroke:#1f77b4;" x="89.611894" xlink:href="#mc1de06feb2" y="174.323306"/>
     <use style="fill:#1f77b4;stroke:#1f77b4;" x="86.190922" xlink:href="#mc1de06feb2" y="174.323306"/>
     <use style="fill:#1f77b4;stroke:#1f77b4;" x="83.300164" xlink:href="#mc1de06feb2" y="174.323306"/>
     <use style="fill:#1f77b4;stroke:#1f77b4;" x="83.779536" xlink:href="#mc1de06feb2" y="174.323306"/>
     <use style="fill:#1f77b4;stroke:#1f77b4;" x="83.682693" xlink:href="#mc1de06feb2" y="174.323306"/>
     <use style="fill:#1f77b4;stroke:#1f77b4;" x="83.127057" xlink:href="#mc1de06feb2" y="174.323306"/>
     <use style="fill:#1f77b4;stroke:#1f77b4;" x="83.338901" xlink:href="#mc1de06feb2" y="174.323306"/>
     <use style="fill:#1f77b4;stroke:#1f77b4;" x="82.066628" xlink:href="#mc1de06feb2" y="174.323306"/>
     <use style="fill:#1f77b4;stroke:#1f77b4;" x="81.271307" xlink:href="#mc1de06feb2" y="174.323306"/>
     <use style="fill:#1f77b4;stroke:#1f77b4;" x="128.96397" xlink:href="#mc1de06feb2" y="176.569587"/>
     <use style="fill:#1f77b4;stroke:#1f77b4;" x="83.627008" xlink:href="#mc1de06feb2" y="177.917355"/>
     <use style="fill:#1f77b4;stroke:#1f77b4;" x="385.634943" xlink:href="#mc1de06feb2" y="178.815868"/>
     <use style="fill:#1f77b4;stroke:#1f77b4;" x="270.789055" xlink:href="#mc1de06feb2" y="178.815868"/>
     <use style="fill:#1f77b4;stroke:#1f77b4;" x="223.627817" xlink:href="#mc1de06feb2" y="178.815868"/>
     <use style="fill:#1f77b4;stroke:#1f77b4;" x="94.89709" xlink:href="#mc1de06feb2" y="178.815868"/>
     <use style="fill:#1f77b4;stroke:#1f77b4;" x="90.159056" xlink:href="#mc1de06feb2" y="178.815868"/>
     <use style="fill:#1f77b4;stroke:#1f77b4;" x="88.749993" xlink:href="#mc1de06feb2" y="179.939008"/>
     <use style="fill:#1f77b4;stroke:#1f77b4;" x="106.126014" xlink:href="#mc1de06feb2" y="180.163636"/>
     <use style="fill:#1f77b4;stroke:#1f77b4;" x="82.282104" xlink:href="#mc1de06feb2" y="181.062149"/>
     <use style="fill:#1f77b4;stroke:#1f77b4;" x="87.788828" xlink:href="#mc1de06feb2" y="182.409917"/>
     <use style="fill:#1f77b4;stroke:#1f77b4;" x="89.569525" xlink:href="#mc1de06feb2" y="182.859174"/>
     <use style="fill:#1f77b4;stroke:#1f77b4;" x="103.592364" xlink:href="#mc1de06feb2" y="183.30843"/>
     <use style="fill:#1f77b4;stroke:#1f77b4;" x="90.640849" xlink:href="#mc1de06feb2" y="183.30843"/>
     <use style="fill:#1f77b4;stroke:#1f77b4;" x="90.232898" xlink:href="#mc1de06feb2" y="183.30843"/>
     <use style="fill:#1f77b4;stroke:#1f77b4;" x="86.158237" xlink:href="#mc1de06feb2" y="183.30843"/>
     <use style="fill:#1f77b4;stroke:#1f77b4;" x="82.667054" xlink:href="#mc1de06feb2" y="183.30843"/>
     <use style="fill:#1f77b4;stroke:#1f77b4;" x="82.139261" xlink:href="#mc1de06feb2" y="183.30843"/>
     <use style="fill:#1f77b4;stroke:#1f77b4;" x="101.700298" xlink:href="#mc1de06feb2" y="184.206942"/>
     <use style="fill:#1f77b4;stroke:#1f77b4;" x="259.49113" xlink:href="#mc1de06feb2" y="185.554711"/>
     <use style="fill:#1f77b4;stroke:#1f77b4;" x="214.259485" xlink:href="#mc1de06feb2" y="185.554711"/>
     <use style="fill:#1f77b4;stroke:#1f77b4;" x="162.785111" xlink:href="#mc1de06feb2" y="185.554711"/>
     <use style="fill:#1f77b4;stroke:#1f77b4;" x="143.371759" xlink:href="#mc1de06feb2" y="185.554711"/>
     <use style="fill:#1f77b4;stroke:#1f77b4;" x="126.955692" xlink:href="#mc1de06feb2" y="185.554711"/>
     <use style="fill:#1f77b4;stroke:#1f77b4;" x="128.123858" xlink:href="#mc1de06feb2" y="185.554711"/>
     <use style="fill:#1f77b4;stroke:#1f77b4;" x="103.840524" xlink:href="#mc1de06feb2" y="185.554711"/>
     <use style="fill:#1f77b4;stroke:#1f77b4;" x="107.265128" xlink:href="#mc1de06feb2" y="185.554711"/>
     <use style="fill:#1f77b4;stroke:#1f77b4;" x="94.1284" xlink:href="#mc1de06feb2" y="185.554711"/>
     <use style="fill:#1f77b4;stroke:#1f77b4;" x="97.619584" xlink:href="#mc1de06feb2" y="185.554711"/>
     <use style="fill:#1f77b4;stroke:#1f77b4;" x="92.759285" xlink:href="#mc1de06feb2" y="185.554711"/>
     <use style="fill:#1f77b4;stroke:#1f77b4;" x="97.52032" xlink:href="#mc1de06feb2" y="185.554711"/>
     <use style="fill:#1f77b4;stroke:#1f77b4;" x="95.640359" xlink:href="#mc1de06feb2" y="185.554711"/>
     <use style="fill:#1f77b4;stroke:#1f77b4;" x="95.285672" xlink:href="#mc1de06feb2" y="185.554711"/>
     <use style="fill:#1f77b4;stroke:#1f77b4;" x="94.116295" xlink:href="#mc1de06feb2" y="185.554711"/>
     <use style="fill:#1f77b4;stroke:#1f77b4;" x="90.853903" xlink:href="#mc1de06feb2" y="185.554711"/>
     <use style="fill:#1f77b4;stroke:#1f77b4;" x="90.859956" xlink:href="#mc1de06feb2" y="185.554711"/>
     <use style="fill:#1f77b4;stroke:#1f77b4;" x="84.35575" xlink:href="#mc1de06feb2" y="185.554711"/>
     <use style="fill:#1f77b4;stroke:#1f77b4;" x="84.130591" xlink:href="#mc1de06feb2" y="185.554711"/>
     <use style="fill:#1f77b4;stroke:#1f77b4;" x="81.727679" xlink:href="#mc1de06feb2" y="185.554711"/>
     <use style="fill:#1f77b4;stroke:#1f77b4;" x="200.263278" xlink:href="#mc1de06feb2" y="187.800992"/>
     <use style="fill:#1f77b4;stroke:#1f77b4;" x="183.646262" xlink:href="#mc1de06feb2" y="187.800992"/>
     <use style="fill:#1f77b4;stroke:#1f77b4;" x="116.654038" xlink:href="#mc1de06feb2" y="187.800992"/>
     <use style="fill:#1f77b4;stroke:#1f77b4;" x="98.512959" xlink:href="#mc1de06feb2" y="187.800992"/>
     <use style="fill:#1f77b4;stroke:#1f77b4;" x="98.08685" xlink:href="#mc1de06feb2" y="187.800992"/>
     <use style="fill:#1f77b4;stroke:#1f77b4;" x="93.362132" xlink:href="#mc1de06feb2" y="187.800992"/>
     <use style="fill:#1f77b4;stroke:#1f77b4;" x="94.766352" xlink:href="#mc1de06feb2" y="187.800992"/>
     <use style="fill:#1f77b4;stroke:#1f77b4;" x="82.02426" xlink:href="#mc1de06feb2" y="187.800992"/>
     <use style="fill:#1f77b4;stroke:#1f77b4;" x="87.224719" xlink:href="#mc1de06feb2" y="188.924132"/>
     <use style="fill:#1f77b4;stroke:#1f77b4;" x="88.492149" xlink:href="#mc1de06feb2" y="188.924132"/>
     <use style="fill:#1f77b4;stroke:#1f77b4;" x="256.07379" xlink:href="#mc1de06feb2" y="189.14876"/>
     <use style="fill:#1f77b4;stroke:#1f77b4;" x="170.081006" xlink:href="#mc1de06feb2" y="190.047273"/>
     <use style="fill:#1f77b4;stroke:#1f77b4;" x="124.436568" xlink:href="#mc1de06feb2" y="190.047273"/>
     <use style="fill:#1f77b4;stroke:#1f77b4;" x="117.477202" xlink:href="#mc1de06feb2" y="190.047273"/>
     <use style="fill:#1f77b4;stroke:#1f77b4;" x="120.067747" xlink:href="#mc1de06feb2" y="190.047273"/>
     <use style="fill:#1f77b4;stroke:#1f77b4;" x="107.065389" xlink:href="#mc1de06feb2" y="190.047273"/>
     <use style="fill:#1f77b4;stroke:#1f77b4;" x="91.380486" xlink:href="#mc1de06feb2" y="190.047273"/>
     <use style="fill:#1f77b4;stroke:#1f77b4;" x="89.930265" xlink:href="#mc1de06feb2" y="190.047273"/>
     <use style="fill:#1f77b4;stroke:#1f77b4;" x="88.210094" xlink:href="#mc1de06feb2" y="190.047273"/>
     <use style="fill:#1f77b4;stroke:#1f77b4;" x="87.919566" xlink:href="#mc1de06feb2" y="190.047273"/>
     <use style="fill:#1f77b4;stroke:#1f77b4;" x="96.292837" xlink:href="#mc1de06feb2" y="191.170413"/>
     <use style="fill:#1f77b4;stroke:#1f77b4;" x="103.127519" xlink:href="#mc1de06feb2" y="191.395041"/>
     <use style="fill:#1f77b4;stroke:#1f77b4;" x="118.767632" xlink:href="#mc1de06feb2" y="191.844298"/>
     <use style="fill:#1f77b4;stroke:#1f77b4;" x="109.001035" xlink:href="#mc1de06feb2" y="192.068926"/>
     <use style="fill:#1f77b4;stroke:#1f77b4;" x="219.605208" xlink:href="#mc1de06feb2" y="192.293554"/>
     <use style="fill:#1f77b4;stroke:#1f77b4;" x="230.247023" xlink:href="#mc1de06feb2" y="192.293554"/>
     <use style="fill:#1f77b4;stroke:#1f77b4;" x="174.866251" xlink:href="#mc1de06feb2" y="192.293554"/>
     <use style="fill:#1f77b4;stroke:#1f77b4;" x="133.675372" xlink:href="#mc1de06feb2" y="192.293554"/>
     <use style="fill:#1f77b4;stroke:#1f77b4;" x="108.321925" xlink:href="#mc1de06feb2" y="192.293554"/>
     <use style="fill:#1f77b4;stroke:#1f77b4;" x="90.458058" xlink:href="#mc1de06feb2" y="192.293554"/>
     <use style="fill:#1f77b4;stroke:#1f77b4;" x="88.15562" xlink:href="#mc1de06feb2" y="192.293554"/>
     <use style="fill:#1f77b4;stroke:#1f77b4;" x="86.903927" xlink:href="#mc1de06feb2" y="192.293554"/>
     <use style="fill:#1f77b4;stroke:#1f77b4;" x="363.439782" xlink:href="#mc1de06feb2" y="193.416694"/>
     <use style="fill:#1f77b4;stroke:#1f77b4;" x="116.254561" xlink:href="#mc1de06feb2" y="194.539835"/>
     <use style="fill:#1f77b4;stroke:#1f77b4;" x="104.64553" xlink:href="#mc1de06feb2" y="194.539835"/>
     <use style="fill:#1f77b4;stroke:#1f77b4;" x="97.191054" xlink:href="#mc1de06feb2" y="194.539835"/>
     <use style="fill:#1f77b4;stroke:#1f77b4;" x="132.904262" xlink:href="#mc1de06feb2" y="195.662975"/>
     <use style="fill:#1f77b4;stroke:#1f77b4;" x="125.620472" xlink:href="#mc1de06feb2" y="196.786116"/>
     <use style="fill:#1f77b4;stroke:#1f77b4;" x="123.434245" xlink:href="#mc1de06feb2" y="196.786116"/>
     <use style="fill:#1f77b4;stroke:#1f77b4;" x="98.664276" xlink:href="#mc1de06feb2" y="196.786116"/>
     <use style="fill:#1f77b4;stroke:#1f77b4;" x="91.362328" xlink:href="#mc1de06feb2" y="196.786116"/>
     <use style="fill:#1f77b4;stroke:#1f77b4;" x="95.341357" xlink:href="#mc1de06feb2" y="196.786116"/>
     <use style="fill:#1f77b4;stroke:#1f77b4;" x="87.432931" xlink:href="#mc1de06feb2" y="196.786116"/>
     <use style="fill:#1f77b4;stroke:#1f77b4;" x="88.950942" xlink:href="#mc1de06feb2" y="196.786116"/>
     <use style="fill:#1f77b4;stroke:#1f77b4;" x="85.452495" xlink:href="#mc1de06feb2" y="196.786116"/>
     <use style="fill:#1f77b4;stroke:#1f77b4;" x="103.022202" xlink:href="#mc1de06feb2" y="199.032397"/>
     <use style="fill:#1f77b4;stroke:#1f77b4;" x="93.78824" xlink:href="#mc1de06feb2" y="199.032397"/>
     <use style="fill:#1f77b4;stroke:#1f77b4;" x="90.412058" xlink:href="#mc1de06feb2" y="199.032397"/>
     <use style="fill:#1f77b4;stroke:#1f77b4;" x="82.466105" xlink:href="#mc1de06feb2" y="199.032397"/>
     <use style="fill:#1f77b4;stroke:#1f77b4;" x="105.525589" xlink:href="#mc1de06feb2" y="201.278678"/>
     <use style="fill:#1f77b4;stroke:#1f77b4;" x="105.317377" xlink:href="#mc1de06feb2" y="201.278678"/>
     <use style="fill:#1f77b4;stroke:#1f77b4;" x="114.51018" xlink:href="#mc1de06feb2" y="201.278678"/>
     <use style="fill:#1f77b4;stroke:#1f77b4;" x="87.428088" xlink:href="#mc1de06feb2" y="202.401818"/>
     <use style="fill:#1f77b4;stroke:#1f77b4;" x="111.578264" xlink:href="#mc1de06feb2" y="203.524959"/>
     <use style="fill:#1f77b4;stroke:#1f77b4;" x="93.388763" xlink:href="#mc1de06feb2" y="203.524959"/>
     <use style="fill:#1f77b4;stroke:#1f77b4;" x="87.241666" xlink:href="#mc1de06feb2" y="205.77124"/>
     <use style="fill:#1f77b4;stroke:#1f77b4;" x="83.374006" xlink:href="#mc1de06feb2" y="208.017521"/>
     <use style="fill:#1f77b4;stroke:#1f77b4;" x="83.2239" xlink:href="#mc1de06feb2" y="208.017521"/>
     <use style="fill:#1f77b4;stroke:#1f77b4;" x="84.954965" xlink:href="#mc1de06feb2" y="211.61157"/>
     <use style="fill:#1f77b4;stroke:#1f77b4;" x="81.854785" xlink:href="#mc1de06feb2" y="214.756364"/>
    </g>
   </g>
   <g id="matplotlib.axis_1">
    <g id="xtick_1">
     <g id="line2d_1">
      <defs>
       <path d="M 0 0 
L 0 3.5 
" id="m501dc8a2a1" style="stroke:#000000;stroke-width:0.8;"/>
      </defs>
      <g>
       <use style="stroke:#000000;stroke-width:0.8;" x="81.136937" xlink:href="#m501dc8a2a1" y="224.64"/>
      </g>
     </g>
     <g id="text_1">
      <!-- 0 -->
      <g transform="translate(77.955687 239.238438)scale(0.1 -0.1)">
       <defs>
        <path d="M 31.78125 66.40625 
Q 24.171875 66.40625 20.328125 58.90625 
Q 16.5 51.421875 16.5 36.375 
Q 16.5 21.390625 20.328125 13.890625 
Q 24.171875 6.390625 31.78125 6.390625 
Q 39.453125 6.390625 43.28125 13.890625 
Q 47.125 21.390625 47.125 36.375 
Q 47.125 51.421875 43.28125 58.90625 
Q 39.453125 66.40625 31.78125 66.40625 
z
M 31.78125 74.21875 
Q 44.046875 74.21875 50.515625 64.515625 
Q 56.984375 54.828125 56.984375 36.375 
Q 56.984375 17.96875 50.515625 8.265625 
Q 44.046875 -1.421875 31.78125 -1.421875 
Q 19.53125 -1.421875 13.0625 8.265625 
Q 6.59375 17.96875 6.59375 36.375 
Q 6.59375 54.828125 13.0625 64.515625 
Q 19.53125 74.21875 31.78125 74.21875 
z
" id="DejaVuSans-48"/>
       </defs>
       <use xlink:href="#DejaVuSans-48"/>
      </g>
     </g>
    </g>
    <g id="xtick_2">
     <g id="line2d_2">
      <g>
       <use style="stroke:#000000;stroke-width:0.8;" x="141.663694" xlink:href="#m501dc8a2a1" y="224.64"/>
      </g>
     </g>
     <g id="text_2">
      <!-- 50000 -->
      <g transform="translate(125.757444 239.238438)scale(0.1 -0.1)">
       <defs>
        <path d="M 10.796875 72.90625 
L 49.515625 72.90625 
L 49.515625 64.59375 
L 19.828125 64.59375 
L 19.828125 46.734375 
Q 21.96875 47.46875 24.109375 47.828125 
Q 26.265625 48.1875 28.421875 48.1875 
Q 40.625 48.1875 47.75 41.5 
Q 54.890625 34.8125 54.890625 23.390625 
Q 54.890625 11.625 47.5625 5.09375 
Q 40.234375 -1.421875 26.90625 -1.421875 
Q 22.3125 -1.421875 17.546875 -0.640625 
Q 12.796875 0.140625 7.71875 1.703125 
L 7.71875 11.625 
Q 12.109375 9.234375 16.796875 8.0625 
Q 21.484375 6.890625 26.703125 6.890625 
Q 35.15625 6.890625 40.078125 11.328125 
Q 45.015625 15.765625 45.015625 23.390625 
Q 45.015625 31 40.078125 35.4375 
Q 35.15625 39.890625 26.703125 39.890625 
Q 22.75 39.890625 18.8125 39.015625 
Q 14.890625 38.140625 10.796875 36.28125 
z
" id="DejaVuSans-53"/>
       </defs>
       <use xlink:href="#DejaVuSans-53"/>
       <use x="63.623047" xlink:href="#DejaVuSans-48"/>
       <use x="127.246094" xlink:href="#DejaVuSans-48"/>
       <use x="190.869141" xlink:href="#DejaVuSans-48"/>
       <use x="254.492188" xlink:href="#DejaVuSans-48"/>
      </g>
     </g>
    </g>
    <g id="xtick_3">
     <g id="line2d_3">
      <g>
       <use style="stroke:#000000;stroke-width:0.8;" x="202.19045" xlink:href="#m501dc8a2a1" y="224.64"/>
      </g>
     </g>
     <g id="text_3">
      <!-- 100000 -->
      <g transform="translate(183.10295 239.238438)scale(0.1 -0.1)">
       <defs>
        <path d="M 12.40625 8.296875 
L 28.515625 8.296875 
L 28.515625 63.921875 
L 10.984375 60.40625 
L 10.984375 69.390625 
L 28.421875 72.90625 
L 38.28125 72.90625 
L 38.28125 8.296875 
L 54.390625 8.296875 
L 54.390625 0 
L 12.40625 0 
z
" id="DejaVuSans-49"/>
       </defs>
       <use xlink:href="#DejaVuSans-49"/>
       <use x="63.623047" xlink:href="#DejaVuSans-48"/>
       <use x="127.246094" xlink:href="#DejaVuSans-48"/>
       <use x="190.869141" xlink:href="#DejaVuSans-48"/>
       <use x="254.492188" xlink:href="#DejaVuSans-48"/>
       <use x="318.115234" xlink:href="#DejaVuSans-48"/>
      </g>
     </g>
    </g>
    <g id="xtick_4">
     <g id="line2d_4">
      <g>
       <use style="stroke:#000000;stroke-width:0.8;" x="262.717206" xlink:href="#m501dc8a2a1" y="224.64"/>
      </g>
     </g>
     <g id="text_4">
      <!-- 150000 -->
      <g transform="translate(243.629706 239.238438)scale(0.1 -0.1)">
       <use xlink:href="#DejaVuSans-49"/>
       <use x="63.623047" xlink:href="#DejaVuSans-53"/>
       <use x="127.246094" xlink:href="#DejaVuSans-48"/>
       <use x="190.869141" xlink:href="#DejaVuSans-48"/>
       <use x="254.492188" xlink:href="#DejaVuSans-48"/>
       <use x="318.115234" xlink:href="#DejaVuSans-48"/>
      </g>
     </g>
    </g>
    <g id="xtick_5">
     <g id="line2d_5">
      <g>
       <use style="stroke:#000000;stroke-width:0.8;" x="323.243963" xlink:href="#m501dc8a2a1" y="224.64"/>
      </g>
     </g>
     <g id="text_5">
      <!-- 200000 -->
      <g transform="translate(304.156463 239.238438)scale(0.1 -0.1)">
       <defs>
        <path d="M 19.1875 8.296875 
L 53.609375 8.296875 
L 53.609375 0 
L 7.328125 0 
L 7.328125 8.296875 
Q 12.9375 14.109375 22.625 23.890625 
Q 32.328125 33.6875 34.8125 36.53125 
Q 39.546875 41.84375 41.421875 45.53125 
Q 43.3125 49.21875 43.3125 52.78125 
Q 43.3125 58.59375 39.234375 62.25 
Q 35.15625 65.921875 28.609375 65.921875 
Q 23.96875 65.921875 18.8125 64.3125 
Q 13.671875 62.703125 7.8125 59.421875 
L 7.8125 69.390625 
Q 13.765625 71.78125 18.9375 73 
Q 24.125 74.21875 28.421875 74.21875 
Q 39.75 74.21875 46.484375 68.546875 
Q 53.21875 62.890625 53.21875 53.421875 
Q 53.21875 48.921875 51.53125 44.890625 
Q 49.859375 40.875 45.40625 35.40625 
Q 44.1875 33.984375 37.640625 27.21875 
Q 31.109375 20.453125 19.1875 8.296875 
z
" id="DejaVuSans-50"/>
       </defs>
       <use xlink:href="#DejaVuSans-50"/>
       <use x="63.623047" xlink:href="#DejaVuSans-48"/>
       <use x="127.246094" xlink:href="#DejaVuSans-48"/>
       <use x="190.869141" xlink:href="#DejaVuSans-48"/>
       <use x="254.492188" xlink:href="#DejaVuSans-48"/>
       <use x="318.115234" xlink:href="#DejaVuSans-48"/>
      </g>
     </g>
    </g>
    <g id="xtick_6">
     <g id="line2d_6">
      <g>
       <use style="stroke:#000000;stroke-width:0.8;" x="383.770719" xlink:href="#m501dc8a2a1" y="224.64"/>
      </g>
     </g>
     <g id="text_6">
      <!-- 250000 -->
      <g transform="translate(364.683219 239.238438)scale(0.1 -0.1)">
       <use xlink:href="#DejaVuSans-50"/>
       <use x="63.623047" xlink:href="#DejaVuSans-53"/>
       <use x="127.246094" xlink:href="#DejaVuSans-48"/>
       <use x="190.869141" xlink:href="#DejaVuSans-48"/>
       <use x="254.492188" xlink:href="#DejaVuSans-48"/>
       <use x="318.115234" xlink:href="#DejaVuSans-48"/>
      </g>
     </g>
    </g>
    <g id="text_7">
     <!-- Full_time -->
     <g transform="translate(211.109375 252.916562)scale(0.1 -0.1)">
      <defs>
       <path d="M 9.8125 72.90625 
L 51.703125 72.90625 
L 51.703125 64.59375 
L 19.671875 64.59375 
L 19.671875 43.109375 
L 48.578125 43.109375 
L 48.578125 34.8125 
L 19.671875 34.8125 
L 19.671875 0 
L 9.8125 0 
z
" id="DejaVuSans-70"/>
       <path d="M 8.5 21.578125 
L 8.5 54.6875 
L 17.484375 54.6875 
L 17.484375 21.921875 
Q 17.484375 14.15625 20.5 10.265625 
Q 23.53125 6.390625 29.59375 6.390625 
Q 36.859375 6.390625 41.078125 11.03125 
Q 45.3125 15.671875 45.3125 23.6875 
L 45.3125 54.6875 
L 54.296875 54.6875 
L 54.296875 0 
L 45.3125 0 
L 45.3125 8.40625 
Q 42.046875 3.421875 37.71875 1 
Q 33.40625 -1.421875 27.6875 -1.421875 
Q 18.265625 -1.421875 13.375 4.4375 
Q 8.5 10.296875 8.5 21.578125 
z
M 31.109375 56 
z
" id="DejaVuSans-117"/>
       <path d="M 9.421875 75.984375 
L 18.40625 75.984375 
L 18.40625 0 
L 9.421875 0 
z
" id="DejaVuSans-108"/>
       <path d="M 50.984375 -16.609375 
L 50.984375 -23.578125 
L -0.984375 -23.578125 
L -0.984375 -16.609375 
z
" id="DejaVuSans-95"/>
       <path d="M 18.3125 70.21875 
L 18.3125 54.6875 
L 36.8125 54.6875 
L 36.8125 47.703125 
L 18.3125 47.703125 
L 18.3125 18.015625 
Q 18.3125 11.328125 20.140625 9.421875 
Q 21.96875 7.515625 27.59375 7.515625 
L 36.8125 7.515625 
L 36.8125 0 
L 27.59375 0 
Q 17.1875 0 13.234375 3.875 
Q 9.28125 7.765625 9.28125 18.015625 
L 9.28125 47.703125 
L 2.6875 47.703125 
L 2.6875 54.6875 
L 9.28125 54.6875 
L 9.28125 70.21875 
z
" id="DejaVuSans-116"/>
       <path d="M 9.421875 54.6875 
L 18.40625 54.6875 
L 18.40625 0 
L 9.421875 0 
z
M 9.421875 75.984375 
L 18.40625 75.984375 
L 18.40625 64.59375 
L 9.421875 64.59375 
z
" id="DejaVuSans-105"/>
       <path d="M 52 44.1875 
Q 55.375 50.25 60.0625 53.125 
Q 64.75 56 71.09375 56 
Q 79.640625 56 84.28125 50.015625 
Q 88.921875 44.046875 88.921875 33.015625 
L 88.921875 0 
L 79.890625 0 
L 79.890625 32.71875 
Q 79.890625 40.578125 77.09375 44.375 
Q 74.3125 48.1875 68.609375 48.1875 
Q 61.625 48.1875 57.5625 43.546875 
Q 53.515625 38.921875 53.515625 30.90625 
L 53.515625 0 
L 44.484375 0 
L 44.484375 32.71875 
Q 44.484375 40.625 41.703125 44.40625 
Q 38.921875 48.1875 33.109375 48.1875 
Q 26.21875 48.1875 22.15625 43.53125 
Q 18.109375 38.875 18.109375 30.90625 
L 18.109375 0 
L 9.078125 0 
L 9.078125 54.6875 
L 18.109375 54.6875 
L 18.109375 46.1875 
Q 21.1875 51.21875 25.484375 53.609375 
Q 29.78125 56 35.6875 56 
Q 41.65625 56 45.828125 52.96875 
Q 50 49.953125 52 44.1875 
z
" id="DejaVuSans-109"/>
       <path d="M 56.203125 29.59375 
L 56.203125 25.203125 
L 14.890625 25.203125 
Q 15.484375 15.921875 20.484375 11.0625 
Q 25.484375 6.203125 34.421875 6.203125 
Q 39.59375 6.203125 44.453125 7.46875 
Q 49.3125 8.734375 54.109375 11.28125 
L 54.109375 2.78125 
Q 49.265625 0.734375 44.1875 -0.34375 
Q 39.109375 -1.421875 33.890625 -1.421875 
Q 20.796875 -1.421875 13.15625 6.1875 
Q 5.515625 13.8125 5.515625 26.8125 
Q 5.515625 40.234375 12.765625 48.109375 
Q 20.015625 56 32.328125 56 
Q 43.359375 56 49.78125 48.890625 
Q 56.203125 41.796875 56.203125 29.59375 
z
M 47.21875 32.234375 
Q 47.125 39.59375 43.09375 43.984375 
Q 39.0625 48.390625 32.421875 48.390625 
Q 24.90625 48.390625 20.390625 44.140625 
Q 15.875 39.890625 15.1875 32.171875 
z
" id="DejaVuSans-101"/>
      </defs>
      <use xlink:href="#DejaVuSans-70"/>
      <use x="52.019531" xlink:href="#DejaVuSans-117"/>
      <use x="115.398438" xlink:href="#DejaVuSans-108"/>
      <use x="143.181641" xlink:href="#DejaVuSans-108"/>
      <use x="170.964844" xlink:href="#DejaVuSans-95"/>
      <use x="220.964844" xlink:href="#DejaVuSans-116"/>
      <use x="260.173828" xlink:href="#DejaVuSans-105"/>
      <use x="287.957031" xlink:href="#DejaVuSans-109"/>
      <use x="385.369141" xlink:href="#DejaVuSans-101"/>
     </g>
    </g>
   </g>
   <g id="matplotlib.axis_2">
    <g id="ytick_1">
     <g id="line2d_7">
      <defs>
       <path d="M 0 0 
L -3.5 0 
" id="m64b16b2460" style="stroke:#000000;stroke-width:0.8;"/>
      </defs>
      <g>
       <use style="stroke:#000000;stroke-width:0.8;" x="66.053125" xlink:href="#m64b16b2460" y="219.248926"/>
      </g>
     </g>
     <g id="text_8">
      <!-- 20000 -->
      <g transform="translate(27.240625 223.048144)scale(0.1 -0.1)">
       <use xlink:href="#DejaVuSans-50"/>
       <use x="63.623047" xlink:href="#DejaVuSans-48"/>
       <use x="127.246094" xlink:href="#DejaVuSans-48"/>
       <use x="190.869141" xlink:href="#DejaVuSans-48"/>
       <use x="254.492188" xlink:href="#DejaVuSans-48"/>
      </g>
     </g>
    </g>
    <g id="ytick_2">
     <g id="line2d_8">
      <g>
       <use style="stroke:#000000;stroke-width:0.8;" x="66.053125" xlink:href="#m64b16b2460" y="174.323306"/>
      </g>
     </g>
     <g id="text_9">
      <!-- 40000 -->
      <g transform="translate(27.240625 178.122525)scale(0.1 -0.1)">
       <defs>
        <path d="M 37.796875 64.3125 
L 12.890625 25.390625 
L 37.796875 25.390625 
z
M 35.203125 72.90625 
L 47.609375 72.90625 
L 47.609375 25.390625 
L 58.015625 25.390625 
L 58.015625 17.1875 
L 47.609375 17.1875 
L 47.609375 0 
L 37.796875 0 
L 37.796875 17.1875 
L 4.890625 17.1875 
L 4.890625 26.703125 
z
" id="DejaVuSans-52"/>
       </defs>
       <use xlink:href="#DejaVuSans-52"/>
       <use x="63.623047" xlink:href="#DejaVuSans-48"/>
       <use x="127.246094" xlink:href="#DejaVuSans-48"/>
       <use x="190.869141" xlink:href="#DejaVuSans-48"/>
       <use x="254.492188" xlink:href="#DejaVuSans-48"/>
      </g>
     </g>
    </g>
    <g id="ytick_3">
     <g id="line2d_9">
      <g>
       <use style="stroke:#000000;stroke-width:0.8;" x="66.053125" xlink:href="#m64b16b2460" y="129.397686"/>
      </g>
     </g>
     <g id="text_10">
      <!-- 60000 -->
      <g transform="translate(27.240625 133.196905)scale(0.1 -0.1)">
       <defs>
        <path d="M 33.015625 40.375 
Q 26.375 40.375 22.484375 35.828125 
Q 18.609375 31.296875 18.609375 23.390625 
Q 18.609375 15.53125 22.484375 10.953125 
Q 26.375 6.390625 33.015625 6.390625 
Q 39.65625 6.390625 43.53125 10.953125 
Q 47.40625 15.53125 47.40625 23.390625 
Q 47.40625 31.296875 43.53125 35.828125 
Q 39.65625 40.375 33.015625 40.375 
z
M 52.59375 71.296875 
L 52.59375 62.3125 
Q 48.875 64.0625 45.09375 64.984375 
Q 41.3125 65.921875 37.59375 65.921875 
Q 27.828125 65.921875 22.671875 59.328125 
Q 17.53125 52.734375 16.796875 39.40625 
Q 19.671875 43.65625 24.015625 45.921875 
Q 28.375 48.1875 33.59375 48.1875 
Q 44.578125 48.1875 50.953125 41.515625 
Q 57.328125 34.859375 57.328125 23.390625 
Q 57.328125 12.15625 50.6875 5.359375 
Q 44.046875 -1.421875 33.015625 -1.421875 
Q 20.359375 -1.421875 13.671875 8.265625 
Q 6.984375 17.96875 6.984375 36.375 
Q 6.984375 53.65625 15.1875 63.9375 
Q 23.390625 74.21875 37.203125 74.21875 
Q 40.921875 74.21875 44.703125 73.484375 
Q 48.484375 72.75 52.59375 71.296875 
z
" id="DejaVuSans-54"/>
       </defs>
       <use xlink:href="#DejaVuSans-54"/>
       <use x="63.623047" xlink:href="#DejaVuSans-48"/>
       <use x="127.246094" xlink:href="#DejaVuSans-48"/>
       <use x="190.869141" xlink:href="#DejaVuSans-48"/>
       <use x="254.492188" xlink:href="#DejaVuSans-48"/>
      </g>
     </g>
    </g>
    <g id="ytick_4">
     <g id="line2d_10">
      <g>
       <use style="stroke:#000000;stroke-width:0.8;" x="66.053125" xlink:href="#m64b16b2460" y="84.472066"/>
      </g>
     </g>
     <g id="text_11">
      <!-- 80000 -->
      <g transform="translate(27.240625 88.271285)scale(0.1 -0.1)">
       <defs>
        <path d="M 31.78125 34.625 
Q 24.75 34.625 20.71875 30.859375 
Q 16.703125 27.09375 16.703125 20.515625 
Q 16.703125 13.921875 20.71875 10.15625 
Q 24.75 6.390625 31.78125 6.390625 
Q 38.8125 6.390625 42.859375 10.171875 
Q 46.921875 13.96875 46.921875 20.515625 
Q 46.921875 27.09375 42.890625 30.859375 
Q 38.875 34.625 31.78125 34.625 
z
M 21.921875 38.8125 
Q 15.578125 40.375 12.03125 44.71875 
Q 8.5 49.078125 8.5 55.328125 
Q 8.5 64.0625 14.71875 69.140625 
Q 20.953125 74.21875 31.78125 74.21875 
Q 42.671875 74.21875 48.875 69.140625 
Q 55.078125 64.0625 55.078125 55.328125 
Q 55.078125 49.078125 51.53125 44.71875 
Q 48 40.375 41.703125 38.8125 
Q 48.828125 37.15625 52.796875 32.3125 
Q 56.78125 27.484375 56.78125 20.515625 
Q 56.78125 9.90625 50.3125 4.234375 
Q 43.84375 -1.421875 31.78125 -1.421875 
Q 19.734375 -1.421875 13.25 4.234375 
Q 6.78125 9.90625 6.78125 20.515625 
Q 6.78125 27.484375 10.78125 32.3125 
Q 14.796875 37.15625 21.921875 38.8125 
z
M 18.3125 54.390625 
Q 18.3125 48.734375 21.84375 45.5625 
Q 25.390625 42.390625 31.78125 42.390625 
Q 38.140625 42.390625 41.71875 45.5625 
Q 45.3125 48.734375 45.3125 54.390625 
Q 45.3125 60.0625 41.71875 63.234375 
Q 38.140625 66.40625 31.78125 66.40625 
Q 25.390625 66.40625 21.84375 63.234375 
Q 18.3125 60.0625 18.3125 54.390625 
z
" id="DejaVuSans-56"/>
       </defs>
       <use xlink:href="#DejaVuSans-56"/>
       <use x="63.623047" xlink:href="#DejaVuSans-48"/>
       <use x="127.246094" xlink:href="#DejaVuSans-48"/>
       <use x="190.869141" xlink:href="#DejaVuSans-48"/>
       <use x="254.492188" xlink:href="#DejaVuSans-48"/>
      </g>
     </g>
    </g>
    <g id="ytick_5">
     <g id="line2d_11">
      <g>
       <use style="stroke:#000000;stroke-width:0.8;" x="66.053125" xlink:href="#m64b16b2460" y="39.546446"/>
      </g>
     </g>
     <g id="text_12">
      <!-- 100000 -->
      <g transform="translate(20.878125 43.345665)scale(0.1 -0.1)">
       <use xlink:href="#DejaVuSans-49"/>
       <use x="63.623047" xlink:href="#DejaVuSans-48"/>
       <use x="127.246094" xlink:href="#DejaVuSans-48"/>
       <use x="190.869141" xlink:href="#DejaVuSans-48"/>
       <use x="254.492188" xlink:href="#DejaVuSans-48"/>
       <use x="318.115234" xlink:href="#DejaVuSans-48"/>
      </g>
     </g>
    </g>
    <g id="text_13">
     <!-- Median -->
     <g transform="translate(14.798438 134.106719)rotate(-90)scale(0.1 -0.1)">
      <defs>
       <path d="M 9.8125 72.90625 
L 24.515625 72.90625 
L 43.109375 23.296875 
L 61.8125 72.90625 
L 76.515625 72.90625 
L 76.515625 0 
L 66.890625 0 
L 66.890625 64.015625 
L 48.09375 14.015625 
L 38.1875 14.015625 
L 19.390625 64.015625 
L 19.390625 0 
L 9.8125 0 
z
" id="DejaVuSans-77"/>
       <path d="M 45.40625 46.390625 
L 45.40625 75.984375 
L 54.390625 75.984375 
L 54.390625 0 
L 45.40625 0 
L 45.40625 8.203125 
Q 42.578125 3.328125 38.25 0.953125 
Q 33.9375 -1.421875 27.875 -1.421875 
Q 17.96875 -1.421875 11.734375 6.484375 
Q 5.515625 14.40625 5.515625 27.296875 
Q 5.515625 40.1875 11.734375 48.09375 
Q 17.96875 56 27.875 56 
Q 33.9375 56 38.25 53.625 
Q 42.578125 51.265625 45.40625 46.390625 
z
M 14.796875 27.296875 
Q 14.796875 17.390625 18.875 11.75 
Q 22.953125 6.109375 30.078125 6.109375 
Q 37.203125 6.109375 41.296875 11.75 
Q 45.40625 17.390625 45.40625 27.296875 
Q 45.40625 37.203125 41.296875 42.84375 
Q 37.203125 48.484375 30.078125 48.484375 
Q 22.953125 48.484375 18.875 42.84375 
Q 14.796875 37.203125 14.796875 27.296875 
z
" id="DejaVuSans-100"/>
       <path d="M 34.28125 27.484375 
Q 23.390625 27.484375 19.1875 25 
Q 14.984375 22.515625 14.984375 16.5 
Q 14.984375 11.71875 18.140625 8.90625 
Q 21.296875 6.109375 26.703125 6.109375 
Q 34.1875 6.109375 38.703125 11.40625 
Q 43.21875 16.703125 43.21875 25.484375 
L 43.21875 27.484375 
z
M 52.203125 31.203125 
L 52.203125 0 
L 43.21875 0 
L 43.21875 8.296875 
Q 40.140625 3.328125 35.546875 0.953125 
Q 30.953125 -1.421875 24.3125 -1.421875 
Q 15.921875 -1.421875 10.953125 3.296875 
Q 6 8.015625 6 15.921875 
Q 6 25.140625 12.171875 29.828125 
Q 18.359375 34.515625 30.609375 34.515625 
L 43.21875 34.515625 
L 43.21875 35.40625 
Q 43.21875 41.609375 39.140625 45 
Q 35.0625 48.390625 27.6875 48.390625 
Q 23 48.390625 18.546875 47.265625 
Q 14.109375 46.140625 10.015625 43.890625 
L 10.015625 52.203125 
Q 14.9375 54.109375 19.578125 55.046875 
Q 24.21875 56 28.609375 56 
Q 40.484375 56 46.34375 49.84375 
Q 52.203125 43.703125 52.203125 31.203125 
z
" id="DejaVuSans-97"/>
       <path d="M 54.890625 33.015625 
L 54.890625 0 
L 45.90625 0 
L 45.90625 32.71875 
Q 45.90625 40.484375 42.875 44.328125 
Q 39.84375 48.1875 33.796875 48.1875 
Q 26.515625 48.1875 22.3125 43.546875 
Q 18.109375 38.921875 18.109375 30.90625 
L 18.109375 0 
L 9.078125 0 
L 9.078125 54.6875 
L 18.109375 54.6875 
L 18.109375 46.1875 
Q 21.34375 51.125 25.703125 53.5625 
Q 30.078125 56 35.796875 56 
Q 45.21875 56 50.046875 50.171875 
Q 54.890625 44.34375 54.890625 33.015625 
z
" id="DejaVuSans-110"/>
      </defs>
      <use xlink:href="#DejaVuSans-77"/>
      <use x="86.279297" xlink:href="#DejaVuSans-101"/>
      <use x="147.802734" xlink:href="#DejaVuSans-100"/>
      <use x="211.279297" xlink:href="#DejaVuSans-105"/>
      <use x="239.0625" xlink:href="#DejaVuSans-97"/>
      <use x="300.341797" xlink:href="#DejaVuSans-110"/>
     </g>
    </g>
   </g>
   <g id="patch_3">
    <path d="M 66.053125 224.64 
L 66.053125 7.2 
" style="fill:none;stroke:#000000;stroke-linecap:square;stroke-linejoin:miter;stroke-width:0.8;"/>
   </g>
   <g id="patch_4">
    <path d="M 400.853125 224.64 
L 400.853125 7.2 
" style="fill:none;stroke:#000000;stroke-linecap:square;stroke-linejoin:miter;stroke-width:0.8;"/>
   </g>
   <g id="patch_5">
    <path d="M 66.053125 224.64 
L 400.853125 224.64 
" style="fill:none;stroke:#000000;stroke-linecap:square;stroke-linejoin:miter;stroke-width:0.8;"/>
   </g>
   <g id="patch_6">
    <path d="M 66.053125 7.2 
L 400.853125 7.2 
" style="fill:none;stroke:#000000;stroke-linecap:square;stroke-linejoin:miter;stroke-width:0.8;"/>
   </g>
  </g>
 </g>
 <defs>
  <clipPath id="paa5fdaf693">
   <rect height="217.44" width="334.8" x="66.053125" y="7.2"/>
  </clipPath>
 </defs>
</svg>