<?xml version="1.0" encoding="utf-8" standalone="no"?>
<!DOCTYPE svg PUBLIC "-//W3C//DTD SVG 1.1//EN"
  "http://www.w3.org/Graphics/SVG/1.1/DTD/svg11.dtd">
<!-- Created with matplotlib (https://matplotlib.org/) -->
<svg height="262.19625pt" version="1.1" viewBox="0 0 401.269894 262.19625" width="401.269894pt" xmlns="http://www.w3.org/2000/svg" xmlns:xlink="http://www.w3.org/1999/xlink">
 <metadata>
  <rdf:RDF xmlns:cc="http://creativecommons.org/ns#" xmlns:dc="http://purl.org/dc/elements/1.1/" xmlns:rdf="http://www.w3.org/1999/02/22-rdf-syntax-ns#">
   <cc:Work>
    <dc:type rdf:resource="http://purl.org/dc/dcmitype/StillImage"/>
    <dc:date>2020-12-29T20:03:37.657278</dc:date>
    <dc:format>image/svg+xml</dc:format>
    <dc:creator>
     <cc:Agent>
      <dc:title>Matplotlib v3.3.3, https://matplotlib.org/</dc:title>
     </cc:Agent>
    </dc:creator>
   </cc:Work>
  </rdf:RDF>
 </metadata>
 <defs>
  <style type="text/css">*{stroke-linecap:butt;stroke-linejoin:round;}</style>
 </defs>
 <g id="figure_1">
  <g id="patch_1">
   <path d="M 0 262.19625 
L 401.269894 262.19625 
L 401.269894 0 
L 0 0 
z
" style="fill:none;"/>
  </g>
  <g id="axes_1">
   <g id="patch_2">
    <path d="M 56.784375 224.64 
L 391.584375 224.64 
L 391.584375 7.2 
L 56.784375 7.2 
z
" style="fill:#ffffff;"/>
   </g>
   <g id="PathCollection_1">
    <defs>
     <path d="M 0 2.236068 
C 0.593012 2.236068 1.161816 2.000462 1.581139 1.581139 
C 2.000462 1.161816 2.236068 0.593012 2.236068 0 
C 2.236068 -0.593012 2.000462 -1.161816 1.581139 -1.581139 
C 1.161816 -2.000462 0.593012 -2.236068 0 -2.236068 
C -0.593012 -2.236068 -1.161816 -2.000462 -1.581139 -1.581139 
C -2.000462 -1.161816 -2.236068 -0.593012 -2.236068 0 
C -2.236068 0.593012 -2.000462 1.161816 -1.581139 1.581139 
C -1.161816 2.000462 -0.593012 2.236068 0 2.236068 
z
" id="me1d658151f" style="stroke:#1f77b4;"/>
    </defs>
    <g clip-path="url(#p308b10265f)">
     <use style="fill:#1f77b4;stroke:#1f77b4;" x="109.873719" xlink:href="#me1d658151f" y="194.255305"/>
     <use style="fill:#1f77b4;stroke:#1f77b4;" x="103.99583" xlink:href="#me1d658151f" y="83.989039"/>
     <use style="fill:#1f77b4;stroke:#1f77b4;" x="120.074013" xlink:href="#me1d658151f" y="187.880017"/>
     <use style="fill:#1f77b4;stroke:#1f77b4;" x="105.711324" xlink:href="#me1d658151f" y="158.848175"/>
     <use style="fill:#1f77b4;stroke:#1f77b4;" x="179.314086" xlink:href="#me1d658151f" y="146.609909"/>
     <use style="fill:#1f77b4;stroke:#1f77b4;" x="117.538967" xlink:href="#me1d658151f" y="17.083636"/>
     <use style="fill:#1f77b4;stroke:#1f77b4;" x="210.639304" xlink:href="#me1d658151f" y="108.068955"/>
     <use style="fill:#1f77b4;stroke:#1f77b4;" x="240.278865" xlink:href="#me1d658151f" y="191.146899"/>
     <use style="fill:#1f77b4;stroke:#1f77b4;" x="109.557894" xlink:href="#me1d658151f" y="150.798601"/>
     <use style="fill:#1f77b4;stroke:#1f77b4;" x="133.710681" xlink:href="#me1d658151f" y="148.755729"/>
     <use style="fill:#1f77b4;stroke:#1f77b4;" x="134.641214" xlink:href="#me1d658151f" y="141.800928"/>
     <use style="fill:#1f77b4;stroke:#1f77b4;" x="115.913681" xlink:href="#me1d658151f" y="142.076636"/>
     <use style="fill:#1f77b4;stroke:#1f77b4;" x="209.537167" xlink:href="#me1d658151f" y="112.04894"/>
     <use style="fill:#1f77b4;stroke:#1f77b4;" x="169.636111" xlink:href="#me1d658151f" y="189.055113"/>
     <use style="fill:#1f77b4;stroke:#1f77b4;" x="129.795207" xlink:href="#me1d658151f" y="207.691238"/>
     <use style="fill:#1f77b4;stroke:#1f77b4;" x="172.76597" xlink:href="#me1d658151f" y="117.559742"/>
     <use style="fill:#1f77b4;stroke:#1f77b4;" x="179.892913" xlink:href="#me1d658151f" y="166.934338"/>
     <use style="fill:#1f77b4;stroke:#1f77b4;" x="151.461232" xlink:href="#me1d658151f" y="148.030309"/>
     <use style="fill:#1f77b4;stroke:#1f77b4;" x="182.082067" xlink:href="#me1d658151f" y="145.680728"/>
     <use style="fill:#1f77b4;stroke:#1f77b4;" x="146.15358" xlink:href="#me1d658151f" y="201.718051"/>
     <use style="fill:#1f77b4;stroke:#1f77b4;" x="141.95457" xlink:href="#me1d658151f" y="144.295454"/>
     <use style="fill:#1f77b4;stroke:#1f77b4;" x="163.915032" xlink:href="#me1d658151f" y="117.097929"/>
     <use style="fill:#1f77b4;stroke:#1f77b4;" x="174.119045" xlink:href="#me1d658151f" y="183.76161"/>
     <use style="fill:#1f77b4;stroke:#1f77b4;" x="159.574939" xlink:href="#me1d658151f" y="149.797741"/>
     <use style="fill:#1f77b4;stroke:#1f77b4;" x="143.343885" xlink:href="#me1d658151f" y="136.000679"/>
     <use style="fill:#1f77b4;stroke:#1f77b4;" x="100.496787" xlink:href="#me1d658151f" y="147.808563"/>
     <use style="fill:#1f77b4;stroke:#1f77b4;" x="174.039312" xlink:href="#me1d658151f" y="161.37628"/>
     <use style="fill:#1f77b4;stroke:#1f77b4;" x="131.675268" xlink:href="#me1d658151f" y="131.781297"/>
     <use style="fill:#1f77b4;stroke:#1f77b4;" x="247.451297" xlink:href="#me1d658151f" y="71.513733"/>
     <use style="fill:#1f77b4;stroke:#1f77b4;" x="179.502025" xlink:href="#me1d658151f" y="110.370628"/>
     <use style="fill:#1f77b4;stroke:#1f77b4;" x="150.967772" xlink:href="#me1d658151f" y="153.377213"/>
     <use style="fill:#1f77b4;stroke:#1f77b4;" x="200.846452" xlink:href="#me1d658151f" y="115.070316"/>
     <use style="fill:#1f77b4;stroke:#1f77b4;" x="173.21764" xlink:href="#me1d658151f" y="131.061035"/>
     <use style="fill:#1f77b4;stroke:#1f77b4;" x="353.456255" xlink:href="#me1d658151f" y="164.717901"/>
     <use style="fill:#1f77b4;stroke:#1f77b4;" x="179.061052" xlink:href="#me1d658151f" y="147.068722"/>
     <use style="fill:#1f77b4;stroke:#1f77b4;" x="183.660996" xlink:href="#me1d658151f" y="104.231928"/>
     <use style="fill:#1f77b4;stroke:#1f77b4;" x="207.240945" xlink:href="#me1d658151f" y="107.180891"/>
     <use style="fill:#1f77b4;stroke:#1f77b4;" x="150.277142" xlink:href="#me1d658151f" y="183.182408"/>
     <use style="fill:#1f77b4;stroke:#1f77b4;" x="307.737835" xlink:href="#me1d658151f" y="134.962387"/>
     <use style="fill:#1f77b4;stroke:#1f77b4;" x="236.647151" xlink:href="#me1d658151f" y="136.96052"/>
     <use style="fill:#1f77b4;stroke:#1f77b4;" x="212.75742" xlink:href="#me1d658151f" y="162.02494"/>
     <use style="fill:#1f77b4;stroke:#1f77b4;" x="151.657072" xlink:href="#me1d658151f" y="110.513673"/>
     <use style="fill:#1f77b4;stroke:#1f77b4;" x="160.56323" xlink:href="#me1d658151f" y="160.968287"/>
     <use style="fill:#1f77b4;stroke:#1f77b4;" x="308.823033" xlink:href="#me1d658151f" y="173.50693"/>
     <use style="fill:#1f77b4;stroke:#1f77b4;" x="148.679185" xlink:href="#me1d658151f" y="147.007278"/>
     <use style="fill:#1f77b4;stroke:#1f77b4;" x="237.376899" xlink:href="#me1d658151f" y="118.529446"/>
     <use style="fill:#1f77b4;stroke:#1f77b4;" x="208.422548" xlink:href="#me1d658151f" y="113.45492"/>
     <use style="fill:#1f77b4;stroke:#1f77b4;" x="294.308102" xlink:href="#me1d658151f" y="119.357151"/>
     <use style="fill:#1f77b4;stroke:#1f77b4;" x="288.428066" xlink:href="#me1d658151f" y="151.186146"/>
     <use style="fill:#1f77b4;stroke:#1f77b4;" x="126.697182" xlink:href="#me1d658151f" y="177.222367"/>
     <use style="fill:#1f77b4;stroke:#1f77b4;" x="363.441448" xlink:href="#me1d658151f" y="167.345928"/>
     <use style="fill:#1f77b4;stroke:#1f77b4;" x="128.223607" xlink:href="#me1d658151f" y="214.756364"/>
     <use style="fill:#1f77b4;stroke:#1f77b4;" x="156.560594" xlink:href="#me1d658151f" y="87.623789"/>
     <use style="fill:#1f77b4;stroke:#1f77b4;" x="249.435743" xlink:href="#me1d658151f" y="130.840323"/>
     <use style="fill:#1f77b4;stroke:#1f77b4;" x="340.421782" xlink:href="#me1d658151f" y="94.765635"/>
     <use style="fill:#1f77b4;stroke:#1f77b4;" x="270.833708" xlink:href="#me1d658151f" y="106.789885"/>
     <use style="fill:#1f77b4;stroke:#1f77b4;" x="209.051782" xlink:href="#me1d658151f" y="133.488987"/>
     <use style="fill:#1f77b4;stroke:#1f77b4;" x="213.814799" xlink:href="#me1d658151f" y="88.349493"/>
     <use style="fill:#1f77b4;stroke:#1f77b4;" x="257.240368" xlink:href="#me1d658151f" y="107.48574"/>
     <use style="fill:#1f77b4;stroke:#1f77b4;" x="270.120501" xlink:href="#me1d658151f" y="152.83019"/>
     <use style="fill:#1f77b4;stroke:#1f77b4;" x="258.652553" xlink:href="#me1d658151f" y="120.66259"/>
     <use style="fill:#1f77b4;stroke:#1f77b4;" x="206.106032" xlink:href="#me1d658151f" y="134.468832"/>
     <use style="fill:#1f77b4;stroke:#1f77b4;" x="173.075484" xlink:href="#me1d658151f" y="158.953552"/>
     <use style="fill:#1f77b4;stroke:#1f77b4;" x="203.279329" xlink:href="#me1d658151f" y="192.847782"/>
     <use style="fill:#1f77b4;stroke:#1f77b4;" x="134.832847" xlink:href="#me1d658151f" y="156.156561"/>
     <use style="fill:#1f77b4;stroke:#1f77b4;" x="96.331774" xlink:href="#me1d658151f" y="151.897462"/>
     <use style="fill:#1f77b4;stroke:#1f77b4;" x="233.942849" xlink:href="#me1d658151f" y="176.70262"/>
     <use style="fill:#1f77b4;stroke:#1f77b4;" x="242.694772" xlink:href="#me1d658151f" y="133.245759"/>
     <use style="fill:#1f77b4;stroke:#1f77b4;" x="206.973382" xlink:href="#me1d658151f" y="162.133857"/>
     <use style="fill:#1f77b4;stroke:#1f77b4;" x="274.08301" xlink:href="#me1d658151f" y="93.41922"/>
     <use style="fill:#1f77b4;stroke:#1f77b4;" x="160.866798" xlink:href="#me1d658151f" y="128.594631"/>
     <use style="fill:#1f77b4;stroke:#1f77b4;" x="190.561575" xlink:href="#me1d658151f" y="175.324149"/>
     <use style="fill:#1f77b4;stroke:#1f77b4;" x="72.002557" xlink:href="#me1d658151f" y="214.756364"/>
     <use style="fill:#1f77b4;stroke:#1f77b4;" x="230.675168" xlink:href="#me1d658151f" y="154.557256"/>
     <use style="fill:#1f77b4;stroke:#1f77b4;" x="145.016737" xlink:href="#me1d658151f" y="181.875859"/>
     <use style="fill:#1f77b4;stroke:#1f77b4;" x="220.638851" xlink:href="#me1d658151f" y="134.206311"/>
     <use style="fill:#1f77b4;stroke:#1f77b4;" x="265.412191" xlink:href="#me1d658151f" y="146.479018"/>
     <use style="fill:#1f77b4;stroke:#1f77b4;" x="224.640796" xlink:href="#me1d658151f" y="101.909415"/>
     <use style="fill:#1f77b4;stroke:#1f77b4;" x="192.277623" xlink:href="#me1d658151f" y="88.2082"/>
     <use style="fill:#1f77b4;stroke:#1f77b4;" x="254.487489" xlink:href="#me1d658151f" y="140.276669"/>
     <use style="fill:#1f77b4;stroke:#1f77b4;" x="128.820672" xlink:href="#me1d658151f" y="103.528066"/>
     <use style="fill:#1f77b4;stroke:#1f77b4;" x="233.899853" xlink:href="#me1d658151f" y="124.934205"/>
     <use style="fill:#1f77b4;stroke:#1f77b4;" x="238.160111" xlink:href="#me1d658151f" y="214.756364"/>
     <use style="fill:#1f77b4;stroke:#1f77b4;" x="167.809312" xlink:href="#me1d658151f" y="45.387893"/>
     <use style="fill:#1f77b4;stroke:#1f77b4;" x="219.698809" xlink:href="#me1d658151f" y="130.603418"/>
     <use style="fill:#1f77b4;stroke:#1f77b4;" x="306.823236" xlink:href="#me1d658151f" y="148.314262"/>
     <use style="fill:#1f77b4;stroke:#1f77b4;" x="283.139069" xlink:href="#me1d658151f" y="134.488862"/>
     <use style="fill:#1f77b4;stroke:#1f77b4;" x="348.830869" xlink:href="#me1d658151f" y="123.952831"/>
     <use style="fill:#1f77b4;stroke:#1f77b4;" x="221.66653" xlink:href="#me1d658151f" y="36.865594"/>
     <use style="fill:#1f77b4;stroke:#1f77b4;" x="257.645297" xlink:href="#me1d658151f" y="187.570675"/>
     <use style="fill:#1f77b4;stroke:#1f77b4;" x="292.518176" xlink:href="#me1d658151f" y="181.686142"/>
     <use style="fill:#1f77b4;stroke:#1f77b4;" x="255.620859" xlink:href="#me1d658151f" y="127.105497"/>
     <use style="fill:#1f77b4;stroke:#1f77b4;" x="282.459656" xlink:href="#me1d658151f" y="130.906343"/>
     <use style="fill:#1f77b4;stroke:#1f77b4;" x="221.210838" xlink:href="#me1d658151f" y="122.791789"/>
     <use style="fill:#1f77b4;stroke:#1f77b4;" x="288.857184" xlink:href="#me1d658151f" y="106.791409"/>
     <use style="fill:#1f77b4;stroke:#1f77b4;" x="283.447515" xlink:href="#me1d658151f" y="137.599149"/>
     <use style="fill:#1f77b4;stroke:#1f77b4;" x="249.364679" xlink:href="#me1d658151f" y="152.511208"/>
     <use style="fill:#1f77b4;stroke:#1f77b4;" x="310.121245" xlink:href="#me1d658151f" y="138.955075"/>
     <use style="fill:#1f77b4;stroke:#1f77b4;" x="298.121609" xlink:href="#me1d658151f" y="144.009341"/>
     <use style="fill:#1f77b4;stroke:#1f77b4;" x="356.804211" xlink:href="#me1d658151f" y="168.459856"/>
     <use style="fill:#1f77b4;stroke:#1f77b4;" x="266.196162" xlink:href="#me1d658151f" y="137.614365"/>
     <use style="fill:#1f77b4;stroke:#1f77b4;" x="227.614617" xlink:href="#me1d658151f" y="106.293573"/>
     <use style="fill:#1f77b4;stroke:#1f77b4;" x="343.541847" xlink:href="#me1d658151f" y="138.129803"/>
     <use style="fill:#1f77b4;stroke:#1f77b4;" x="312.120988" xlink:href="#me1d658151f" y="114.790067"/>
     <use style="fill:#1f77b4;stroke:#1f77b4;" x="187.02449" xlink:href="#me1d658151f" y="81.457052"/>
     <use style="fill:#1f77b4;stroke:#1f77b4;" x="111.251478" xlink:href="#me1d658151f" y="133.64173"/>
     <use style="fill:#1f77b4;stroke:#1f77b4;" x="189.593563" xlink:href="#me1d658151f" y="140.451421"/>
     <use style="fill:#1f77b4;stroke:#1f77b4;" x="272.454539" xlink:href="#me1d658151f" y="160.681437"/>
     <use style="fill:#1f77b4;stroke:#1f77b4;" x="314.154755" xlink:href="#me1d658151f" y="135.720328"/>
     <use style="fill:#1f77b4;stroke:#1f77b4;" x="172.92672" xlink:href="#me1d658151f" y="189.963337"/>
     <use style="fill:#1f77b4;stroke:#1f77b4;" x="111.277914" xlink:href="#me1d658151f" y="106.87153"/>
     <use style="fill:#1f77b4;stroke:#1f77b4;" x="167.84226" xlink:href="#me1d658151f" y="214.756364"/>
     <use style="fill:#1f77b4;stroke:#1f77b4;" x="327.339921" xlink:href="#me1d658151f" y="150.778914"/>
     <use style="fill:#1f77b4;stroke:#1f77b4;" x="212.956453" xlink:href="#me1d658151f" y="108.052517"/>
     <use style="fill:#1f77b4;stroke:#1f77b4;" x="302.553352" xlink:href="#me1d658151f" y="130.472007"/>
     <use style="fill:#1f77b4;stroke:#1f77b4;" x="276.846819" xlink:href="#me1d658151f" y="121.474169"/>
     <use style="fill:#1f77b4;stroke:#1f77b4;" x="231.377666" xlink:href="#me1d658151f" y="154.433962"/>
     <use style="fill:#1f77b4;stroke:#1f77b4;" x="320.812173" xlink:href="#me1d658151f" y="89.674062"/>
     <use style="fill:#1f77b4;stroke:#1f77b4;" x="300.689078" xlink:href="#me1d658151f" y="196.684234"/>
     <use style="fill:#1f77b4;stroke:#1f77b4;" x="276.724778" xlink:href="#me1d658151f" y="214.756364"/>
     <use style="fill:#1f77b4;stroke:#1f77b4;" x="249.993277" xlink:href="#me1d658151f" y="136.926281"/>
     <use style="fill:#1f77b4;stroke:#1f77b4;" x="246.840582" xlink:href="#me1d658151f" y="149.456615"/>
     <use style="fill:#1f77b4;stroke:#1f77b4;" x="261.055696" xlink:href="#me1d658151f" y="135.872235"/>
     <use style="fill:#1f77b4;stroke:#1f77b4;" x="297.652261" xlink:href="#me1d658151f" y="120.004705"/>
     <use style="fill:#1f77b4;stroke:#1f77b4;" x="239.216997" xlink:href="#me1d658151f" y="114.555209"/>
     <use style="fill:#1f77b4;stroke:#1f77b4;" x="298.752027" xlink:href="#me1d658151f" y="148.033682"/>
     <use style="fill:#1f77b4;stroke:#1f77b4;" x="276.699213" xlink:href="#me1d658151f" y="146.530181"/>
     <use style="fill:#1f77b4;stroke:#1f77b4;" x="347.553561" xlink:href="#me1d658151f" y="158.646158"/>
     <use style="fill:#1f77b4;stroke:#1f77b4;" x="302.561" xlink:href="#me1d658151f" y="98.272077"/>
     <use style="fill:#1f77b4;stroke:#1f77b4;" x="273.036652" xlink:href="#me1d658151f" y="148.713227"/>
     <use style="fill:#1f77b4;stroke:#1f77b4;" x="312.087616" xlink:href="#me1d658151f" y="111.801377"/>
     <use style="fill:#1f77b4;stroke:#1f77b4;" x="253.046344" xlink:href="#me1d658151f" y="153.996457"/>
     <use style="fill:#1f77b4;stroke:#1f77b4;" x="261.022297" xlink:href="#me1d658151f" y="156.501812"/>
     <use style="fill:#1f77b4;stroke:#1f77b4;" x="315.309293" xlink:href="#me1d658151f" y="123.182813"/>
     <use style="fill:#1f77b4;stroke:#1f77b4;" x="202.929019" xlink:href="#me1d658151f" y="107.623354"/>
     <use style="fill:#1f77b4;stroke:#1f77b4;" x="287.493642" xlink:href="#me1d658151f" y="171.661043"/>
     <use style="fill:#1f77b4;stroke:#1f77b4;" x="292.16581" xlink:href="#me1d658151f" y="116.912247"/>
     <use style="fill:#1f77b4;stroke:#1f77b4;" x="362.165583" xlink:href="#me1d658151f" y="162.796131"/>
     <use style="fill:#1f77b4;stroke:#1f77b4;" x="229.954516" xlink:href="#me1d658151f" y="157.351396"/>
     <use style="fill:#1f77b4;stroke:#1f77b4;" x="287.79788" xlink:href="#me1d658151f" y="127.459168"/>
     <use style="fill:#1f77b4;stroke:#1f77b4;" x="204.939147" xlink:href="#me1d658151f" y="96.781354"/>
     <use style="fill:#1f77b4;stroke:#1f77b4;" x="262.635822" xlink:href="#me1d658151f" y="99.366248"/>
     <use style="fill:#1f77b4;stroke:#1f77b4;" x="178.69857" xlink:href="#me1d658151f" y="164.057802"/>
     <use style="fill:#1f77b4;stroke:#1f77b4;" x="286.839722" xlink:href="#me1d658151f" y="162.039948"/>
     <use style="fill:#1f77b4;stroke:#1f77b4;" x="316.991879" xlink:href="#me1d658151f" y="121.276374"/>
     <use style="fill:#1f77b4;stroke:#1f77b4;" x="231.171542" xlink:href="#me1d658151f" y="130.033346"/>
     <use style="fill:#1f77b4;stroke:#1f77b4;" x="211.652865" xlink:href="#me1d658151f" y="131.474601"/>
     <use style="fill:#1f77b4;stroke:#1f77b4;" x="337.723889" xlink:href="#me1d658151f" y="147.501565"/>
     <use style="fill:#1f77b4;stroke:#1f77b4;" x="281.528412" xlink:href="#me1d658151f" y="120.857633"/>
     <use style="fill:#1f77b4;stroke:#1f77b4;" x="358.140846" xlink:href="#me1d658151f" y="139.8837"/>
     <use style="fill:#1f77b4;stroke:#1f77b4;" x="355.986632" xlink:href="#me1d658151f" y="137.987879"/>
     <use style="fill:#1f77b4;stroke:#1f77b4;" x="308.262815" xlink:href="#me1d658151f" y="158.025941"/>
     <use style="fill:#1f77b4;stroke:#1f77b4;" x="306.226608" xlink:href="#me1d658151f" y="100.768596"/>
     <use style="fill:#1f77b4;stroke:#1f77b4;" x="326.657518" xlink:href="#me1d658151f" y="173.994301"/>
     <use style="fill:#1f77b4;stroke:#1f77b4;" x="322.955874" xlink:href="#me1d658151f" y="156.860012"/>
     <use style="fill:#1f77b4;stroke:#1f77b4;" x="356.462639" xlink:href="#me1d658151f" y="172.574219"/>
     <use style="fill:#1f77b4;stroke:#1f77b4;" x="291.061949" xlink:href="#me1d658151f" y="138.259861"/>
     <use style="fill:#1f77b4;stroke:#1f77b4;" x="192.534749" xlink:href="#me1d658151f" y="144.902743"/>
     <use style="fill:#1f77b4;stroke:#1f77b4;" x="298.157773" xlink:href="#me1d658151f" y="114.87263"/>
     <use style="fill:#1f77b4;stroke:#1f77b4;" x="255.690049" xlink:href="#me1d658151f" y="152.65616"/>
     <use style="fill:#1f77b4;stroke:#1f77b4;" x="300.83421" xlink:href="#me1d658151f" y="148.094406"/>
     <use style="fill:#1f77b4;stroke:#1f77b4;" x="294.125203" xlink:href="#me1d658151f" y="100.105897"/>
     <use style="fill:#1f77b4;stroke:#1f77b4;" x="376.066035" xlink:href="#me1d658151f" y="161.682676"/>
     <use style="fill:#1f77b4;stroke:#1f77b4;" x="376.366193" xlink:href="#me1d658151f" y="170.024537"/>
     <use style="fill:#1f77b4;stroke:#1f77b4;" x="288.777206" xlink:href="#me1d658151f" y="95.282872"/>
     <use style="fill:#1f77b4;stroke:#1f77b4;" x="281.241183" xlink:href="#me1d658151f" y="128.26944"/>
     <use style="fill:#1f77b4;stroke:#1f77b4;" x="269.73987" xlink:href="#me1d658151f" y="123.583692"/>
     <use style="fill:#1f77b4;stroke:#1f77b4;" x="272.186459" xlink:href="#me1d658151f" y="163.092189"/>
     <use style="fill:#1f77b4;stroke:#1f77b4;" x="328.666182" xlink:href="#me1d658151f" y="142.13229"/>
     <use style="fill:#1f77b4;stroke:#1f77b4;" x="323.250903" xlink:href="#me1d658151f" y="48.512719"/>
     <use style="fill:#1f77b4;stroke:#1f77b4;" x="322.901343" xlink:href="#me1d658151f" y="154.949592"/>
     <use style="fill:#1f77b4;stroke:#1f77b4;" x="347.783619" xlink:href="#me1d658151f" y="97.70323"/>
    </g>
   </g>
   <g id="matplotlib.axis_1">
    <g id="xtick_1">
     <g id="line2d_1">
      <defs>
       <path d="M 0 0 
L 0 3.5 
" id="m46132c626c" style="stroke:#000000;stroke-width:0.8;"/>
      </defs>
      <g>
       <use style="stroke:#000000;stroke-width:0.8;" x="72.002557" xlink:href="#m46132c626c" y="224.64"/>
      </g>
     </g>
     <g id="text_1">
      <!-- 0.0 -->
      <g transform="translate(64.050994 239.238437)scale(0.1 -0.1)">
       <defs>
        <path d="M 31.78125 66.40625 
Q 24.171875 66.40625 20.328125 58.90625 
Q 16.5 51.421875 16.5 36.375 
Q 16.5 21.390625 20.328125 13.890625 
Q 24.171875 6.390625 31.78125 6.390625 
Q 39.453125 6.390625 43.28125 13.890625 
Q 47.125 21.390625 47.125 36.375 
Q 47.125 51.421875 43.28125 58.90625 
Q 39.453125 66.40625 31.78125 66.40625 
z
M 31.78125 74.21875 
Q 44.046875 74.21875 50.515625 64.515625 
Q 56.984375 54.828125 56.984375 36.375 
Q 56.984375 17.96875 50.515625 8.265625 
Q 44.046875 -1.421875 31.78125 -1.421875 
Q 19.53125 -1.421875 13.0625 8.265625 
Q 6.59375 17.96875 6.59375 36.375 
Q 6.59375 54.828125 13.0625 64.515625 
Q 19.53125 74.21875 31.78125 74.21875 
z
" id="DejaVuSans-48"/>
        <path d="M 10.6875 12.40625 
L 21 12.40625 
L 21 0 
L 10.6875 0 
z
" id="DejaVuSans-46"/>
       </defs>
       <use xlink:href="#DejaVuSans-48"/>
       <use x="63.623047" xlink:href="#DejaVuSans-46"/>
       <use x="95.410156" xlink:href="#DejaVuSans-48"/>
      </g>
     </g>
    </g>
    <g id="xtick_2">
     <g id="line2d_2">
      <g>
       <use style="stroke:#000000;stroke-width:0.8;" x="134.825712" xlink:href="#m46132c626c" y="224.64"/>
      </g>
     </g>
     <g id="text_2">
      <!-- 0.2 -->
      <g transform="translate(126.874149 239.238437)scale(0.1 -0.1)">
       <defs>
        <path d="M 19.1875 8.296875 
L 53.609375 8.296875 
L 53.609375 0 
L 7.328125 0 
L 7.328125 8.296875 
Q 12.9375 14.109375 22.625 23.890625 
Q 32.328125 33.6875 34.8125 36.53125 
Q 39.546875 41.84375 41.421875 45.53125 
Q 43.3125 49.21875 43.3125 52.78125 
Q 43.3125 58.59375 39.234375 62.25 
Q 35.15625 65.921875 28.609375 65.921875 
Q 23.96875 65.921875 18.8125 64.3125 
Q 13.671875 62.703125 7.8125 59.421875 
L 7.8125 69.390625 
Q 13.765625 71.78125 18.9375 73 
Q 24.125 74.21875 28.421875 74.21875 
Q 39.75 74.21875 46.484375 68.546875 
Q 53.21875 62.890625 53.21875 53.421875 
Q 53.21875 48.921875 51.53125 44.890625 
Q 49.859375 40.875 45.40625 35.40625 
Q 44.1875 33.984375 37.640625 27.21875 
Q 31.109375 20.453125 19.1875 8.296875 
z
" id="DejaVuSans-50"/>
       </defs>
       <use xlink:href="#DejaVuSans-48"/>
       <use x="63.623047" xlink:href="#DejaVuSans-46"/>
       <use x="95.410156" xlink:href="#DejaVuSans-50"/>
      </g>
     </g>
    </g>
    <g id="xtick_3">
     <g id="line2d_3">
      <g>
       <use style="stroke:#000000;stroke-width:0.8;" x="197.648867" xlink:href="#m46132c626c" y="224.64"/>
      </g>
     </g>
     <g id="text_3">
      <!-- 0.4 -->
      <g transform="translate(189.697304 239.238437)scale(0.1 -0.1)">
       <defs>
        <path d="M 37.796875 64.3125 
L 12.890625 25.390625 
L 37.796875 25.390625 
z
M 35.203125 72.90625 
L 47.609375 72.90625 
L 47.609375 25.390625 
L 58.015625 25.390625 
L 58.015625 17.1875 
L 47.609375 17.1875 
L 47.609375 0 
L 37.796875 0 
L 37.796875 17.1875 
L 4.890625 17.1875 
L 4.890625 26.703125 
z
" id="DejaVuSans-52"/>
       </defs>
       <use xlink:href="#DejaVuSans-48"/>
       <use x="63.623047" xlink:href="#DejaVuSans-46"/>
       <use x="95.410156" xlink:href="#DejaVuSans-52"/>
      </g>
     </g>
    </g>
    <g id="xtick_4">
     <g id="line2d_4">
      <g>
       <use style="stroke:#000000;stroke-width:0.8;" x="260.472021" xlink:href="#m46132c626c" y="224.64"/>
      </g>
     </g>
     <g id="text_4">
      <!-- 0.6 -->
      <g transform="translate(252.520459 239.238437)scale(0.1 -0.1)">
       <defs>
        <path d="M 33.015625 40.375 
Q 26.375 40.375 22.484375 35.828125 
Q 18.609375 31.296875 18.609375 23.390625 
Q 18.609375 15.53125 22.484375 10.953125 
Q 26.375 6.390625 33.015625 6.390625 
Q 39.65625 6.390625 43.53125 10.953125 
Q 47.40625 15.53125 47.40625 23.390625 
Q 47.40625 31.296875 43.53125 35.828125 
Q 39.65625 40.375 33.015625 40.375 
z
M 52.59375 71.296875 
L 52.59375 62.3125 
Q 48.875 64.0625 45.09375 64.984375 
Q 41.3125 65.921875 37.59375 65.921875 
Q 27.828125 65.921875 22.671875 59.328125 
Q 17.53125 52.734375 16.796875 39.40625 
Q 19.671875 43.65625 24.015625 45.921875 
Q 28.375 48.1875 33.59375 48.1875 
Q 44.578125 48.1875 50.953125 41.515625 
Q 57.328125 34.859375 57.328125 23.390625 
Q 57.328125 12.15625 50.6875 5.359375 
Q 44.046875 -1.421875 33.015625 -1.421875 
Q 20.359375 -1.421875 13.671875 8.265625 
Q 6.984375 17.96875 6.984375 36.375 
Q 6.984375 53.65625 15.1875 63.9375 
Q 23.390625 74.21875 37.203125 74.21875 
Q 40.921875 74.21875 44.703125 73.484375 
Q 48.484375 72.75 52.59375 71.296875 
z
" id="DejaVuSans-54"/>
       </defs>
       <use xlink:href="#DejaVuSans-48"/>
       <use x="63.623047" xlink:href="#DejaVuSans-46"/>
       <use x="95.410156" xlink:href="#DejaVuSans-54"/>
      </g>
     </g>
    </g>
    <g id="xtick_5">
     <g id="line2d_5">
      <g>
       <use style="stroke:#000000;stroke-width:0.8;" x="323.295176" xlink:href="#m46132c626c" y="224.64"/>
      </g>
     </g>
     <g id="text_5">
      <!-- 0.8 -->
      <g transform="translate(315.343614 239.238437)scale(0.1 -0.1)">
       <defs>
        <path d="M 31.78125 34.625 
Q 24.75 34.625 20.71875 30.859375 
Q 16.703125 27.09375 16.703125 20.515625 
Q 16.703125 13.921875 20.71875 10.15625 
Q 24.75 6.390625 31.78125 6.390625 
Q 38.8125 6.390625 42.859375 10.171875 
Q 46.921875 13.96875 46.921875 20.515625 
Q 46.921875 27.09375 42.890625 30.859375 
Q 38.875 34.625 31.78125 34.625 
z
M 21.921875 38.8125 
Q 15.578125 40.375 12.03125 44.71875 
Q 8.5 49.078125 8.5 55.328125 
Q 8.5 64.0625 14.71875 69.140625 
Q 20.953125 74.21875 31.78125 74.21875 
Q 42.671875 74.21875 48.875 69.140625 
Q 55.078125 64.0625 55.078125 55.328125 
Q 55.078125 49.078125 51.53125 44.71875 
Q 48 40.375 41.703125 38.8125 
Q 48.828125 37.15625 52.796875 32.3125 
Q 56.78125 27.484375 56.78125 20.515625 
Q 56.78125 9.90625 50.3125 4.234375 
Q 43.84375 -1.421875 31.78125 -1.421875 
Q 19.734375 -1.421875 13.25 4.234375 
Q 6.78125 9.90625 6.78125 20.515625 
Q 6.78125 27.484375 10.78125 32.3125 
Q 14.796875 37.15625 21.921875 38.8125 
z
M 18.3125 54.390625 
Q 18.3125 48.734375 21.84375 45.5625 
Q 25.390625 42.390625 31.78125 42.390625 
Q 38.140625 42.390625 41.71875 45.5625 
Q 45.3125 48.734375 45.3125 54.390625 
Q 45.3125 60.0625 41.71875 63.234375 
Q 38.140625 66.40625 31.78125 66.40625 
Q 25.390625 66.40625 21.84375 63.234375 
Q 18.3125 60.0625 18.3125 54.390625 
z
" id="DejaVuSans-56"/>
       </defs>
       <use xlink:href="#DejaVuSans-48"/>
       <use x="63.623047" xlink:href="#DejaVuSans-46"/>
       <use x="95.410156" xlink:href="#DejaVuSans-56"/>
      </g>
     </g>
    </g>
    <g id="xtick_6">
     <g id="line2d_6">
      <g>
       <use style="stroke:#000000;stroke-width:0.8;" x="386.118331" xlink:href="#m46132c626c" y="224.64"/>
      </g>
     </g>
     <g id="text_6">
      <!-- 1.0 -->
      <g transform="translate(378.166769 239.238437)scale(0.1 -0.1)">
       <defs>
        <path d="M 12.40625 8.296875 
L 28.515625 8.296875 
L 28.515625 63.921875 
L 10.984375 60.40625 
L 10.984375 69.390625 
L 28.421875 72.90625 
L 38.28125 72.90625 
L 38.28125 8.296875 
L 54.390625 8.296875 
L 54.390625 0 
L 12.40625 0 
z
" id="DejaVuSans-49"/>
       </defs>
       <use xlink:href="#DejaVuSans-49"/>
       <use x="63.623047" xlink:href="#DejaVuSans-46"/>
       <use x="95.410156" xlink:href="#DejaVuSans-48"/>
      </g>
     </g>
    </g>
    <g id="text_7">
     <!-- ShareWomen -->
     <g transform="translate(190.932813 252.916562)scale(0.1 -0.1)">
      <defs>
       <path d="M 53.515625 70.515625 
L 53.515625 60.890625 
Q 47.90625 63.578125 42.921875 64.890625 
Q 37.9375 66.21875 33.296875 66.21875 
Q 25.25 66.21875 20.875 63.09375 
Q 16.5 59.96875 16.5 54.203125 
Q 16.5 49.359375 19.40625 46.890625 
Q 22.3125 44.4375 30.421875 42.921875 
L 36.375 41.703125 
Q 47.40625 39.59375 52.65625 34.296875 
Q 57.90625 29 57.90625 20.125 
Q 57.90625 9.515625 50.796875 4.046875 
Q 43.703125 -1.421875 29.984375 -1.421875 
Q 24.8125 -1.421875 18.96875 -0.25 
Q 13.140625 0.921875 6.890625 3.21875 
L 6.890625 13.375 
Q 12.890625 10.015625 18.65625 8.296875 
Q 24.421875 6.59375 29.984375 6.59375 
Q 38.421875 6.59375 43.015625 9.90625 
Q 47.609375 13.234375 47.609375 19.390625 
Q 47.609375 24.75 44.3125 27.78125 
Q 41.015625 30.8125 33.5 32.328125 
L 27.484375 33.5 
Q 16.453125 35.6875 11.515625 40.375 
Q 6.59375 45.0625 6.59375 53.421875 
Q 6.59375 63.09375 13.40625 68.65625 
Q 20.21875 74.21875 32.171875 74.21875 
Q 37.3125 74.21875 42.625 73.28125 
Q 47.953125 72.359375 53.515625 70.515625 
z
" id="DejaVuSans-83"/>
       <path d="M 54.890625 33.015625 
L 54.890625 0 
L 45.90625 0 
L 45.90625 32.71875 
Q 45.90625 40.484375 42.875 44.328125 
Q 39.84375 48.1875 33.796875 48.1875 
Q 26.515625 48.1875 22.3125 43.546875 
Q 18.109375 38.921875 18.109375 30.90625 
L 18.109375 0 
L 9.078125 0 
L 9.078125 75.984375 
L 18.109375 75.984375 
L 18.109375 46.1875 
Q 21.34375 51.125 25.703125 53.5625 
Q 30.078125 56 35.796875 56 
Q 45.21875 56 50.046875 50.171875 
Q 54.890625 44.34375 54.890625 33.015625 
z
" id="DejaVuSans-104"/>
       <path d="M 34.28125 27.484375 
Q 23.390625 27.484375 19.1875 25 
Q 14.984375 22.515625 14.984375 16.5 
Q 14.984375 11.71875 18.140625 8.90625 
Q 21.296875 6.109375 26.703125 6.109375 
Q 34.1875 6.109375 38.703125 11.40625 
Q 43.21875 16.703125 43.21875 25.484375 
L 43.21875 27.484375 
z
M 52.203125 31.203125 
L 52.203125 0 
L 43.21875 0 
L 43.21875 8.296875 
Q 40.140625 3.328125 35.546875 0.953125 
Q 30.953125 -1.421875 24.3125 -1.421875 
Q 15.921875 -1.421875 10.953125 3.296875 
Q 6 8.015625 6 15.921875 
Q 6 25.140625 12.171875 29.828125 
Q 18.359375 34.515625 30.609375 34.515625 
L 43.21875 34.515625 
L 43.21875 35.40625 
Q 43.21875 41.609375 39.140625 45 
Q 35.0625 48.390625 27.6875 48.390625 
Q 23 48.390625 18.546875 47.265625 
Q 14.109375 46.140625 10.015625 43.890625 
L 10.015625 52.203125 
Q 14.9375 54.109375 19.578125 55.046875 
Q 24.21875 56 28.609375 56 
Q 40.484375 56 46.34375 49.84375 
Q 52.203125 43.703125 52.203125 31.203125 
z
" id="DejaVuSans-97"/>
       <path d="M 41.109375 46.296875 
Q 39.59375 47.171875 37.8125 47.578125 
Q 36.03125 48 33.890625 48 
Q 26.265625 48 22.1875 43.046875 
Q 18.109375 38.09375 18.109375 28.8125 
L 18.109375 0 
L 9.078125 0 
L 9.078125 54.6875 
L 18.109375 54.6875 
L 18.109375 46.1875 
Q 20.953125 51.171875 25.484375 53.578125 
Q 30.03125 56 36.53125 56 
Q 37.453125 56 38.578125 55.875 
Q 39.703125 55.765625 41.0625 55.515625 
z
" id="DejaVuSans-114"/>
       <path d="M 56.203125 29.59375 
L 56.203125 25.203125 
L 14.890625 25.203125 
Q 15.484375 15.921875 20.484375 11.0625 
Q 25.484375 6.203125 34.421875 6.203125 
Q 39.59375 6.203125 44.453125 7.46875 
Q 49.3125 8.734375 54.109375 11.28125 
L 54.109375 2.78125 
Q 49.265625 0.734375 44.1875 -0.34375 
Q 39.109375 -1.421875 33.890625 -1.421875 
Q 20.796875 -1.421875 13.15625 6.1875 
Q 5.515625 13.8125 5.515625 26.8125 
Q 5.515625 40.234375 12.765625 48.109375 
Q 20.015625 56 32.328125 56 
Q 43.359375 56 49.78125 48.890625 
Q 56.203125 41.796875 56.203125 29.59375 
z
M 47.21875 32.234375 
Q 47.125 39.59375 43.09375 43.984375 
Q 39.0625 48.390625 32.421875 48.390625 
Q 24.90625 48.390625 20.390625 44.140625 
Q 15.875 39.890625 15.1875 32.171875 
z
" id="DejaVuSans-101"/>
       <path d="M 3.328125 72.90625 
L 13.28125 72.90625 
L 28.609375 11.28125 
L 43.890625 72.90625 
L 54.984375 72.90625 
L 70.3125 11.28125 
L 85.59375 72.90625 
L 95.609375 72.90625 
L 77.296875 0 
L 64.890625 0 
L 49.515625 63.28125 
L 33.984375 0 
L 21.578125 0 
z
" id="DejaVuSans-87"/>
       <path d="M 30.609375 48.390625 
Q 23.390625 48.390625 19.1875 42.75 
Q 14.984375 37.109375 14.984375 27.296875 
Q 14.984375 17.484375 19.15625 11.84375 
Q 23.34375 6.203125 30.609375 6.203125 
Q 37.796875 6.203125 41.984375 11.859375 
Q 46.1875 17.53125 46.1875 27.296875 
Q 46.1875 37.015625 41.984375 42.703125 
Q 37.796875 48.390625 30.609375 48.390625 
z
M 30.609375 56 
Q 42.328125 56 49.015625 48.375 
Q 55.71875 40.765625 55.71875 27.296875 
Q 55.71875 13.875 49.015625 6.21875 
Q 42.328125 -1.421875 30.609375 -1.421875 
Q 18.84375 -1.421875 12.171875 6.21875 
Q 5.515625 13.875 5.515625 27.296875 
Q 5.515625 40.765625 12.171875 48.375 
Q 18.84375 56 30.609375 56 
z
" id="DejaVuSans-111"/>
       <path d="M 52 44.1875 
Q 55.375 50.25 60.0625 53.125 
Q 64.75 56 71.09375 56 
Q 79.640625 56 84.28125 50.015625 
Q 88.921875 44.046875 88.921875 33.015625 
L 88.921875 0 
L 79.890625 0 
L 79.890625 32.71875 
Q 79.890625 40.578125 77.09375 44.375 
Q 74.3125 48.1875 68.609375 48.1875 
Q 61.625 48.1875 57.5625 43.546875 
Q 53.515625 38.921875 53.515625 30.90625 
L 53.515625 0 
L 44.484375 0 
L 44.484375 32.71875 
Q 44.484375 40.625 41.703125 44.40625 
Q 38.921875 48.1875 33.109375 48.1875 
Q 26.21875 48.1875 22.15625 43.53125 
Q 18.109375 38.875 18.109375 30.90625 
L 18.109375 0 
L 9.078125 0 
L 9.078125 54.6875 
L 18.109375 54.6875 
L 18.109375 46.1875 
Q 21.1875 51.21875 25.484375 53.609375 
Q 29.78125 56 35.6875 56 
Q 41.65625 56 45.828125 52.96875 
Q 50 49.953125 52 44.1875 
z
" id="DejaVuSans-109"/>
       <path d="M 54.890625 33.015625 
L 54.890625 0 
L 45.90625 0 
L 45.90625 32.71875 
Q 45.90625 40.484375 42.875 44.328125 
Q 39.84375 48.1875 33.796875 48.1875 
Q 26.515625 48.1875 22.3125 43.546875 
Q 18.109375 38.921875 18.109375 30.90625 
L 18.109375 0 
L 9.078125 0 
L 9.078125 54.6875 
L 18.109375 54.6875 
L 18.109375 46.1875 
Q 21.34375 51.125 25.703125 53.5625 
Q 30.078125 56 35.796875 56 
Q 45.21875 56 50.046875 50.171875 
Q 54.890625 44.34375 54.890625 33.015625 
z
" id="DejaVuSans-110"/>
      </defs>
      <use xlink:href="#DejaVuSans-83"/>
      <use x="63.476562" xlink:href="#DejaVuSans-104"/>
      <use x="126.855469" xlink:href="#DejaVuSans-97"/>
      <use x="188.134766" xlink:href="#DejaVuSans-114"/>
      <use x="226.998047" xlink:href="#DejaVuSans-101"/>
      <use x="288.521484" xlink:href="#DejaVuSans-87"/>
      <use x="381.523438" xlink:href="#DejaVuSans-111"/>
      <use x="442.705078" xlink:href="#DejaVuSans-109"/>
      <use x="540.117188" xlink:href="#DejaVuSans-101"/>
      <use x="601.640625" xlink:href="#DejaVuSans-110"/>
     </g>
    </g>
   </g>
   <g id="matplotlib.axis_2">
    <g id="ytick_1">
     <g id="line2d_7">
      <defs>
       <path d="M 0 0 
L -3.5 0 
" id="m25bb592041" style="stroke:#000000;stroke-width:0.8;"/>
      </defs>
      <g>
       <use style="stroke:#000000;stroke-width:0.8;" x="56.784375" xlink:href="#m25bb592041" y="214.756364"/>
      </g>
     </g>
     <g id="text_8">
      <!-- 0.000 -->
      <g transform="translate(21.15625 218.555582)scale(0.1 -0.1)">
       <use xlink:href="#DejaVuSans-48"/>
       <use x="63.623047" xlink:href="#DejaVuSans-46"/>
       <use x="95.410156" xlink:href="#DejaVuSans-48"/>
       <use x="159.033203" xlink:href="#DejaVuSans-48"/>
       <use x="222.65625" xlink:href="#DejaVuSans-48"/>
      </g>
     </g>
    </g>
    <g id="ytick_2">
     <g id="line2d_8">
      <g>
       <use style="stroke:#000000;stroke-width:0.8;" x="56.784375" xlink:href="#m25bb592041" y="186.872155"/>
      </g>
     </g>
     <g id="text_9">
      <!-- 0.025 -->
      <g transform="translate(21.15625 190.671373)scale(0.1 -0.1)">
       <defs>
        <path d="M 10.796875 72.90625 
L 49.515625 72.90625 
L 49.515625 64.59375 
L 19.828125 64.59375 
L 19.828125 46.734375 
Q 21.96875 47.46875 24.109375 47.828125 
Q 26.265625 48.1875 28.421875 48.1875 
Q 40.625 48.1875 47.75 41.5 
Q 54.890625 34.8125 54.890625 23.390625 
Q 54.890625 11.625 47.5625 5.09375 
Q 40.234375 -1.421875 26.90625 -1.421875 
Q 22.3125 -1.421875 17.546875 -0.640625 
Q 12.796875 0.140625 7.71875 1.703125 
L 7.71875 11.625 
Q 12.109375 9.234375 16.796875 8.0625 
Q 21.484375 6.890625 26.703125 6.890625 
Q 35.15625 6.890625 40.078125 11.328125 
Q 45.015625 15.765625 45.015625 23.390625 
Q 45.015625 31 40.078125 35.4375 
Q 35.15625 39.890625 26.703125 39.890625 
Q 22.75 39.890625 18.8125 39.015625 
Q 14.890625 38.140625 10.796875 36.28125 
z
" id="DejaVuSans-53"/>
       </defs>
       <use xlink:href="#DejaVuSans-48"/>
       <use x="63.623047" xlink:href="#DejaVuSans-46"/>
       <use x="95.410156" xlink:href="#DejaVuSans-48"/>
       <use x="159.033203" xlink:href="#DejaVuSans-50"/>
       <use x="222.65625" xlink:href="#DejaVuSans-53"/>
      </g>
     </g>
    </g>
    <g id="ytick_3">
     <g id="line2d_9">
      <g>
       <use style="stroke:#000000;stroke-width:0.8;" x="56.784375" xlink:href="#m25bb592041" y="158.987946"/>
      </g>
     </g>
     <g id="text_10">
      <!-- 0.050 -->
      <g transform="translate(21.15625 162.787164)scale(0.1 -0.1)">
       <use xlink:href="#DejaVuSans-48"/>
       <use x="63.623047" xlink:href="#DejaVuSans-46"/>
       <use x="95.410156" xlink:href="#DejaVuSans-48"/>
       <use x="159.033203" xlink:href="#DejaVuSans-53"/>
       <use x="222.65625" xlink:href="#DejaVuSans-48"/>
      </g>
     </g>
    </g>
    <g id="ytick_4">
     <g id="line2d_10">
      <g>
       <use style="stroke:#000000;stroke-width:0.8;" x="56.784375" xlink:href="#m25bb592041" y="131.103736"/>
      </g>
     </g>
     <g id="text_11">
      <!-- 0.075 -->
      <g transform="translate(21.15625 134.902955)scale(0.1 -0.1)">
       <defs>
        <path d="M 8.203125 72.90625 
L 55.078125 72.90625 
L 55.078125 68.703125 
L 28.609375 0 
L 18.3125 0 
L 43.21875 64.59375 
L 8.203125 64.59375 
z
" id="DejaVuSans-55"/>
       </defs>
       <use xlink:href="#DejaVuSans-48"/>
       <use x="63.623047" xlink:href="#DejaVuSans-46"/>
       <use x="95.410156" xlink:href="#DejaVuSans-48"/>
       <use x="159.033203" xlink:href="#DejaVuSans-55"/>
       <use x="222.65625" xlink:href="#DejaVuSans-53"/>
      </g>
     </g>
    </g>
    <g id="ytick_5">
     <g id="line2d_11">
      <g>
       <use style="stroke:#000000;stroke-width:0.8;" x="56.784375" xlink:href="#m25bb592041" y="103.219527"/>
      </g>
     </g>
     <g id="text_12">
      <!-- 0.100 -->
      <g transform="translate(21.15625 107.018746)scale(0.1 -0.1)">
       <use xlink:href="#DejaVuSans-48"/>
       <use x="63.623047" xlink:href="#DejaVuSans-46"/>
       <use x="95.410156" xlink:href="#DejaVuSans-49"/>
       <use x="159.033203" xlink:href="#DejaVuSans-48"/>
       <use x="222.65625" xlink:href="#DejaVuSans-48"/>
      </g>
     </g>
    </g>
    <g id="ytick_6">
     <g id="line2d_12">
      <g>
       <use style="stroke:#000000;stroke-width:0.8;" x="56.784375" xlink:href="#m25bb592041" y="75.335318"/>
      </g>
     </g>
     <g id="text_13">
      <!-- 0.125 -->
      <g transform="translate(21.15625 79.134537)scale(0.1 -0.1)">
       <use xlink:href="#DejaVuSans-48"/>
       <use x="63.623047" xlink:href="#DejaVuSans-46"/>
       <use x="95.410156" xlink:href="#DejaVuSans-49"/>
       <use x="159.033203" xlink:href="#DejaVuSans-50"/>
       <use x="222.65625" xlink:href="#DejaVuSans-53"/>
      </g>
     </g>
    </g>
    <g id="ytick_7">
     <g id="line2d_13">
      <g>
       <use style="stroke:#000000;stroke-width:0.8;" x="56.784375" xlink:href="#m25bb592041" y="47.451109"/>
      </g>
     </g>
     <g id="text_14">
      <!-- 0.150 -->
      <g transform="translate(21.15625 51.250328)scale(0.1 -0.1)">
       <use xlink:href="#DejaVuSans-48"/>
       <use x="63.623047" xlink:href="#DejaVuSans-46"/>
       <use x="95.410156" xlink:href="#DejaVuSans-49"/>
       <use x="159.033203" xlink:href="#DejaVuSans-53"/>
       <use x="222.65625" xlink:href="#DejaVuSans-48"/>
      </g>
     </g>
    </g>
    <g id="ytick_8">
     <g id="line2d_14">
      <g>
       <use style="stroke:#000000;stroke-width:0.8;" x="56.784375" xlink:href="#m25bb592041" y="19.5669"/>
      </g>
     </g>
     <g id="text_15">
      <!-- 0.175 -->
      <g transform="translate(21.15625 23.366119)scale(0.1 -0.1)">
       <use xlink:href="#DejaVuSans-48"/>
       <use x="63.623047" xlink:href="#DejaVuSans-46"/>
       <use x="95.410156" xlink:href="#DejaVuSans-49"/>
       <use x="159.033203" xlink:href="#DejaVuSans-55"/>
       <use x="222.65625" xlink:href="#DejaVuSans-53"/>
      </g>
     </g>
    </g>
    <g id="text_16">
     <!-- Unemployment_rate -->
     <g transform="translate(14.798438 167.009062)rotate(-90)scale(0.1 -0.1)">
      <defs>
       <path d="M 8.6875 72.90625 
L 18.609375 72.90625 
L 18.609375 28.609375 
Q 18.609375 16.890625 22.84375 11.734375 
Q 27.09375 6.59375 36.625 6.59375 
Q 46.09375 6.59375 50.34375 11.734375 
Q 54.59375 16.890625 54.59375 28.609375 
L 54.59375 72.90625 
L 64.5 72.90625 
L 64.5 27.390625 
Q 64.5 13.140625 57.4375 5.859375 
Q 50.390625 -1.421875 36.625 -1.421875 
Q 22.796875 -1.421875 15.734375 5.859375 
Q 8.6875 13.140625 8.6875 27.390625 
z
" id="DejaVuSans-85"/>
       <path d="M 18.109375 8.203125 
L 18.109375 -20.796875 
L 9.078125 -20.796875 
L 9.078125 54.6875 
L 18.109375 54.6875 
L 18.109375 46.390625 
Q 20.953125 51.265625 25.265625 53.625 
Q 29.59375 56 35.59375 56 
Q 45.5625 56 51.78125 48.09375 
Q 58.015625 40.1875 58.015625 27.296875 
Q 58.015625 14.40625 51.78125 6.484375 
Q 45.5625 -1.421875 35.59375 -1.421875 
Q 29.59375 -1.421875 25.265625 0.953125 
Q 20.953125 3.328125 18.109375 8.203125 
z
M 48.6875 27.296875 
Q 48.6875 37.203125 44.609375 42.84375 
Q 40.53125 48.484375 33.40625 48.484375 
Q 26.265625 48.484375 22.1875 42.84375 
Q 18.109375 37.203125 18.109375 27.296875 
Q 18.109375 17.390625 22.1875 11.75 
Q 26.265625 6.109375 33.40625 6.109375 
Q 40.53125 6.109375 44.609375 11.75 
Q 48.6875 17.390625 48.6875 27.296875 
z
" id="DejaVuSans-112"/>
       <path d="M 9.421875 75.984375 
L 18.40625 75.984375 
L 18.40625 0 
L 9.421875 0 
z
" id="DejaVuSans-108"/>
       <path d="M 32.171875 -5.078125 
Q 28.375 -14.84375 24.75 -17.8125 
Q 21.140625 -20.796875 15.09375 -20.796875 
L 7.90625 -20.796875 
L 7.90625 -13.28125 
L 13.1875 -13.28125 
Q 16.890625 -13.28125 18.9375 -11.515625 
Q 21 -9.765625 23.484375 -3.21875 
L 25.09375 0.875 
L 2.984375 54.6875 
L 12.5 54.6875 
L 29.59375 11.921875 
L 46.6875 54.6875 
L 56.203125 54.6875 
z
" id="DejaVuSans-121"/>
       <path d="M 18.3125 70.21875 
L 18.3125 54.6875 
L 36.8125 54.6875 
L 36.8125 47.703125 
L 18.3125 47.703125 
L 18.3125 18.015625 
Q 18.3125 11.328125 20.140625 9.421875 
Q 21.96875 7.515625 27.59375 7.515625 
L 36.8125 7.515625 
L 36.8125 0 
L 27.59375 0 
Q 17.1875 0 13.234375 3.875 
Q 9.28125 7.765625 9.28125 18.015625 
L 9.28125 47.703125 
L 2.6875 47.703125 
L 2.6875 54.6875 
L 9.28125 54.6875 
L 9.28125 70.21875 
z
" id="DejaVuSans-116"/>
       <path d="M 50.984375 -16.609375 
L 50.984375 -23.578125 
L -0.984375 -23.578125 
L -0.984375 -16.609375 
z
" id="DejaVuSans-95"/>
      </defs>
      <use xlink:href="#DejaVuSans-85"/>
      <use x="73.193359" xlink:href="#DejaVuSans-110"/>
      <use x="136.572266" xlink:href="#DejaVuSans-101"/>
      <use x="198.095703" xlink:href="#DejaVuSans-109"/>
      <use x="295.507812" xlink:href="#DejaVuSans-112"/>
      <use x="358.984375" xlink:href="#DejaVuSans-108"/>
      <use x="386.767578" xlink:href="#DejaVuSans-111"/>
      <use x="447.949219" xlink:href="#DejaVuSans-121"/>
      <use x="507.128906" xlink:href="#DejaVuSans-109"/>
      <use x="604.541016" xlink:href="#DejaVuSans-101"/>
      <use x="666.064453" xlink:href="#DejaVuSans-110"/>
      <use x="729.443359" xlink:href="#DejaVuSans-116"/>
      <use x="768.652344" xlink:href="#DejaVuSans-95"/>
      <use x="818.652344" xlink:href="#DejaVuSans-114"/>
      <use x="859.765625" xlink:href="#DejaVuSans-97"/>
      <use x="921.044922" xlink:href="#DejaVuSans-116"/>
      <use x="960.253906" xlink:href="#DejaVuSans-101"/>
     </g>
    </g>
   </g>
   <g id="patch_3">
    <path d="M 56.784375 224.64 
L 56.784375 7.2 
" style="fill:none;stroke:#000000;stroke-linecap:square;stroke-linejoin:miter;stroke-width:0.8;"/>
   </g>
   <g id="patch_4">
    <path d="M 391.584375 224.64 
L 391.584375 7.2 
" style="fill:none;stroke:#000000;stroke-linecap:square;stroke-linejoin:miter;stroke-width:0.8;"/>
   </g>
   <g id="patch_5">
    <path d="M 56.784375 224.64 
L 391.584375 224.64 
" style="fill:none;stroke:#000000;stroke-linecap:square;stroke-linejoin:miter;stroke-width:0.8;"/>
   </g>
   <g id="patch_6">
    <path d="M 56.784375 7.2 
L 391.584375 7.2 
" style="fill:none;stroke:#000000;stroke-linecap:square;stroke-linejoin:miter;stroke-width:0.8;"/>
   </g>
  </g>
 </g>
 <defs>
  <clipPath id="p308b10265f">
   <rect height="217.44" width="334.8" x="56.784375" y="7.2"/>
  </clipPath>
 </defs>
</svg>