<?xml version="1.0" encoding="utf-8" standalone="no"?>
<!DOCTYPE svg PUBLIC "-//W3C//DTD SVG 1.1//EN"
  "http://www.w3.org/Graphics/SVG/1.1/DTD/svg11.dtd">
<!-- Created with matplotlib (https://matplotlib.org/) -->
<svg height="262.19625pt" version="1.1" viewBox="0 0 414.009478 262.19625" width="414.009478pt" xmlns="http://www.w3.org/2000/svg" xmlns:xlink="http://www.w3.org/1999/xlink">
 <metadata>
  <rdf:RDF xmlns:cc="http://creativecommons.org/ns#" xmlns:dc="http://purl.org/dc/elements/1.1/" xmlns:rdf="http://www.w3.org/1999/02/22-rdf-syntax-ns#">
   <cc:Work>
    <dc:type rdf:resource="http://purl.org/dc/dcmitype/StillImage"/>
    <dc:date>2020-12-29T20:03:38.018546</dc:date>
    <dc:format>image/svg+xml</dc:format>
    <dc:creator>
     <cc:Agent>
      <dc:title>Matplotlib v3.3.3, https://matplotlib.org/</dc:title>
     </cc:Agent>
    </dc:creator>
   </cc:Work>
  </rdf:RDF>
 </metadata>
 <defs>
  <style type="text/css">*{stroke-linecap:butt;stroke-linejoin:round;}</style>
 </defs>
 <g id="figure_1">
  <g id="patch_1">
   <path d="M 0 262.19625 
L 414.009478 262.19625 
L 414.009478 0 
L 0 0 
z
" style="fill:none;"/>
  </g>
  <g id="axes_1">
   <g id="patch_2">
    <path d="M 66.053125 224.64 
L 400.853125 224.64 
L 400.853125 7.2 
L 66.053125 7.2 
z
" style="fill:#ffffff;"/>
   </g>
   <g id="PathCollection_1">
    <defs>
     <path d="M 0 2.236068 
C 0.593012 2.236068 1.161816 2.000462 1.581139 1.581139 
C 2.000462 1.161816 2.236068 0.593012 2.236068 0 
C 2.236068 -0.593012 2.000462 -1.161816 1.581139 -1.581139 
C 1.161816 -2.000462 0.593012 -2.236068 0 -2.236068 
C -0.593012 -2.236068 -1.161816 -2.000462 -1.581139 -1.581139 
C -2.000462 -1.161816 -2.236068 -0.593012 -2.236068 0 
C -2.236068 0.593012 -2.000462 1.161816 -1.581139 1.581139 
C -1.161816 2.000462 -0.593012 2.236068 0 2.236068 
z
" id="mcaed9dd2e4" style="stroke:#1f77b4;"/>
    </defs>
    <g clip-path="url(#p48af69b734)">
     <use style="fill:#1f77b4;stroke:#1f77b4;" x="84.667338" xlink:href="#mcaed9dd2e4" y="17.083636"/>
     <use style="fill:#1f77b4;stroke:#1f77b4;" x="82.252616" xlink:href="#mcaed9dd2e4" y="95.703471"/>
     <use style="fill:#1f77b4;stroke:#1f77b4;" x="82.333224" xlink:href="#mcaed9dd2e4" y="100.196033"/>
     <use style="fill:#1f77b4;stroke:#1f77b4;" x="83.030654" xlink:href="#mcaed9dd2e4" y="106.934876"/>
     <use style="fill:#1f77b4;stroke:#1f77b4;" x="118.280691" xlink:href="#mcaed9dd2e4" y="118.166281"/>
     <use style="fill:#1f77b4;stroke:#1f77b4;" x="84.917923" xlink:href="#mcaed9dd2e4" y="118.166281"/>
     <use style="fill:#1f77b4;stroke:#1f77b4;" x="84.760212" xlink:href="#mcaed9dd2e4" y="124.905124"/>
     <use style="fill:#1f77b4;stroke:#1f77b4;" x="82.520724" xlink:href="#mcaed9dd2e4" y="124.905124"/>
     <use style="fill:#1f77b4;stroke:#1f77b4;" x="221.810589" xlink:href="#mcaed9dd2e4" y="129.397686"/>
     <use style="fill:#1f77b4;stroke:#1f77b4;" x="195.860212" xlink:href="#mcaed9dd2e4" y="129.397686"/>
     <use style="fill:#1f77b4;stroke:#1f77b4;" x="139.342045" xlink:href="#mcaed9dd2e4" y="129.397686"/>
     <use style="fill:#1f77b4;stroke:#1f77b4;" x="103.760816" xlink:href="#mcaed9dd2e4" y="129.397686"/>
     <use style="fill:#1f77b4;stroke:#1f77b4;" x="95.794687" xlink:href="#mcaed9dd2e4" y="129.397686"/>
     <use style="fill:#1f77b4;stroke:#1f77b4;" x="86.230424" xlink:href="#mcaed9dd2e4" y="129.397686"/>
     <use style="fill:#1f77b4;stroke:#1f77b4;" x="87.241523" xlink:href="#mcaed9dd2e4" y="133.890248"/>
     <use style="fill:#1f77b4;stroke:#1f77b4;" x="91.685453" xlink:href="#mcaed9dd2e4" y="135.911901"/>
     <use style="fill:#1f77b4;stroke:#1f77b4;" x="102.884647" xlink:href="#mcaed9dd2e4" y="136.136529"/>
     <use style="fill:#1f77b4;stroke:#1f77b4;" x="161.114848" xlink:href="#mcaed9dd2e4" y="138.38281"/>
     <use style="fill:#1f77b4;stroke:#1f77b4;" x="84.278319" xlink:href="#mcaed9dd2e4" y="142.875372"/>
     <use style="fill:#1f77b4;stroke:#1f77b4;" x="82.599579" xlink:href="#mcaed9dd2e4" y="142.875372"/>
     <use style="fill:#1f77b4;stroke:#1f77b4;" x="255.846256" xlink:href="#mcaed9dd2e4" y="145.121653"/>
     <use style="fill:#1f77b4;stroke:#1f77b4;" x="95.398658" xlink:href="#mcaed9dd2e4" y="147.367934"/>
     <use style="fill:#1f77b4;stroke:#1f77b4;" x="84.602502" xlink:href="#mcaed9dd2e4" y="147.367934"/>
     <use style="fill:#1f77b4;stroke:#1f77b4;" x="104.712336" xlink:href="#mcaed9dd2e4" y="149.614215"/>
     <use style="fill:#1f77b4;stroke:#1f77b4;" x="153.050588" xlink:href="#mcaed9dd2e4" y="151.860496"/>
     <use style="fill:#1f77b4;stroke:#1f77b4;" x="110.537108" xlink:href="#mcaed9dd2e4" y="151.860496"/>
     <use style="fill:#1f77b4;stroke:#1f77b4;" x="94.94305" xlink:href="#mcaed9dd2e4" y="151.860496"/>
     <use style="fill:#1f77b4;stroke:#1f77b4;" x="94.026577" xlink:href="#mcaed9dd2e4" y="151.860496"/>
     <use style="fill:#1f77b4;stroke:#1f77b4;" x="85.687199" xlink:href="#mcaed9dd2e4" y="151.860496"/>
     <use style="fill:#1f77b4;stroke:#1f77b4;" x="85.727503" xlink:href="#mcaed9dd2e4" y="151.860496"/>
     <use style="fill:#1f77b4;stroke:#1f77b4;" x="85.78533" xlink:href="#mcaed9dd2e4" y="151.860496"/>
     <use style="fill:#1f77b4;stroke:#1f77b4;" x="84.514885" xlink:href="#mcaed9dd2e4" y="151.860496"/>
     <use style="fill:#1f77b4;stroke:#1f77b4;" x="81.91792" xlink:href="#mcaed9dd2e4" y="151.860496"/>
     <use style="fill:#1f77b4;stroke:#1f77b4;" x="119.21644" xlink:href="#mcaed9dd2e4" y="156.353058"/>
     <use style="fill:#1f77b4;stroke:#1f77b4;" x="282.634251" xlink:href="#mcaed9dd2e4" y="158.599339"/>
     <use style="fill:#1f77b4;stroke:#1f77b4;" x="238.333387" xlink:href="#mcaed9dd2e4" y="158.599339"/>
     <use style="fill:#1f77b4;stroke:#1f77b4;" x="94.336741" xlink:href="#mcaed9dd2e4" y="160.84562"/>
     <use style="fill:#1f77b4;stroke:#1f77b4;" x="87.155659" xlink:href="#mcaed9dd2e4" y="160.84562"/>
     <use style="fill:#1f77b4;stroke:#1f77b4;" x="81.988013" xlink:href="#mcaed9dd2e4" y="160.84562"/>
     <use style="fill:#1f77b4;stroke:#1f77b4;" x="246.692041" xlink:href="#mcaed9dd2e4" y="163.091901"/>
     <use style="fill:#1f77b4;stroke:#1f77b4;" x="151.079207" xlink:href="#mcaed9dd2e4" y="163.091901"/>
     <use style="fill:#1f77b4;stroke:#1f77b4;" x="129.062829" xlink:href="#mcaed9dd2e4" y="163.091901"/>
     <use style="fill:#1f77b4;stroke:#1f77b4;" x="121.506746" xlink:href="#mcaed9dd2e4" y="163.091901"/>
     <use style="fill:#1f77b4;stroke:#1f77b4;" x="87.924935" xlink:href="#mcaed9dd2e4" y="163.091901"/>
     <use style="fill:#1f77b4;stroke:#1f77b4;" x="96.842585" xlink:href="#mcaed9dd2e4" y="163.091901"/>
     <use style="fill:#1f77b4;stroke:#1f77b4;" x="86.2497" xlink:href="#mcaed9dd2e4" y="163.091901"/>
     <use style="fill:#1f77b4;stroke:#1f77b4;" x="85.958812" xlink:href="#mcaed9dd2e4" y="163.091901"/>
     <use style="fill:#1f77b4;stroke:#1f77b4;" x="81.965233" xlink:href="#mcaed9dd2e4" y="163.091901"/>
     <use style="fill:#1f77b4;stroke:#1f77b4;" x="82.380537" xlink:href="#mcaed9dd2e4" y="163.765785"/>
     <use style="fill:#1f77b4;stroke:#1f77b4;" x="85.26839" xlink:href="#mcaed9dd2e4" y="165.338182"/>
     <use style="fill:#1f77b4;stroke:#1f77b4;" x="82.469906" xlink:href="#mcaed9dd2e4" y="169.830744"/>
     <use style="fill:#1f77b4;stroke:#1f77b4;" x="81.938948" xlink:href="#mcaed9dd2e4" y="169.830744"/>
     <use style="fill:#1f77b4;stroke:#1f77b4;" x="86.400401" xlink:href="#mcaed9dd2e4" y="171.40314"/>
     <use style="fill:#1f77b4;stroke:#1f77b4;" x="83.983926" xlink:href="#mcaed9dd2e4" y="172.077025"/>
     <use style="fill:#1f77b4;stroke:#1f77b4;" x="81.271307" xlink:href="#mcaed9dd2e4" y="172.077025"/>
     <use style="fill:#1f77b4;stroke:#1f77b4;" x="99.190718" xlink:href="#mcaed9dd2e4" y="174.098678"/>
     <use style="fill:#1f77b4;stroke:#1f77b4;" x="312.788488" xlink:href="#mcaed9dd2e4" y="174.323306"/>
     <use style="fill:#1f77b4;stroke:#1f77b4;" x="125.682568" xlink:href="#mcaed9dd2e4" y="174.323306"/>
     <use style="fill:#1f77b4;stroke:#1f77b4;" x="99.67962" xlink:href="#mcaed9dd2e4" y="174.323306"/>
     <use style="fill:#1f77b4;stroke:#1f77b4;" x="96.302865" xlink:href="#mcaed9dd2e4" y="174.323306"/>
     <use style="fill:#1f77b4;stroke:#1f77b4;" x="94.075643" xlink:href="#mcaed9dd2e4" y="174.323306"/>
     <use style="fill:#1f77b4;stroke:#1f77b4;" x="99.085578" xlink:href="#mcaed9dd2e4" y="174.323306"/>
     <use style="fill:#1f77b4;stroke:#1f77b4;" x="97.986862" xlink:href="#mcaed9dd2e4" y="174.323306"/>
     <use style="fill:#1f77b4;stroke:#1f77b4;" x="91.669682" xlink:href="#mcaed9dd2e4" y="174.323306"/>
     <use style="fill:#1f77b4;stroke:#1f77b4;" x="93.404497" xlink:href="#mcaed9dd2e4" y="174.323306"/>
     <use style="fill:#1f77b4;stroke:#1f77b4;" x="88.806361" xlink:href="#mcaed9dd2e4" y="174.323306"/>
     <use style="fill:#1f77b4;stroke:#1f77b4;" x="84.148646" xlink:href="#mcaed9dd2e4" y="174.323306"/>
     <use style="fill:#1f77b4;stroke:#1f77b4;" x="83.689534" xlink:href="#mcaed9dd2e4" y="174.323306"/>
     <use style="fill:#1f77b4;stroke:#1f77b4;" x="84.139885" xlink:href="#mcaed9dd2e4" y="174.323306"/>
     <use style="fill:#1f77b4;stroke:#1f77b4;" x="82.946542" xlink:href="#mcaed9dd2e4" y="174.323306"/>
     <use style="fill:#1f77b4;stroke:#1f77b4;" x="84.127618" xlink:href="#mcaed9dd2e4" y="174.323306"/>
     <use style="fill:#1f77b4;stroke:#1f77b4;" x="82.629369" xlink:href="#mcaed9dd2e4" y="174.323306"/>
     <use style="fill:#1f77b4;stroke:#1f77b4;" x="81.280069" xlink:href="#mcaed9dd2e4" y="174.323306"/>
     <use style="fill:#1f77b4;stroke:#1f77b4;" x="138.755012" xlink:href="#mcaed9dd2e4" y="176.569587"/>
     <use style="fill:#1f77b4;stroke:#1f77b4;" x="84.337899" xlink:href="#mcaed9dd2e4" y="177.917355"/>
     <use style="fill:#1f77b4;stroke:#1f77b4;" x="385.634943" xlink:href="#mcaed9dd2e4" y="178.815868"/>
     <use style="fill:#1f77b4;stroke:#1f77b4;" x="219.246919" xlink:href="#mcaed9dd2e4" y="178.815868"/>
     <use style="fill:#1f77b4;stroke:#1f77b4;" x="245.572297" xlink:href="#mcaed9dd2e4" y="178.815868"/>
     <use style="fill:#1f77b4;stroke:#1f77b4;" x="101.046444" xlink:href="#mcaed9dd2e4" y="178.815868"/>
     <use style="fill:#1f77b4;stroke:#1f77b4;" x="92.247954" xlink:href="#mcaed9dd2e4" y="178.815868"/>
     <use style="fill:#1f77b4;stroke:#1f77b4;" x="92.640478" xlink:href="#mcaed9dd2e4" y="179.939008"/>
     <use style="fill:#1f77b4;stroke:#1f77b4;" x="114.271341" xlink:href="#mcaed9dd2e4" y="180.163636"/>
     <use style="fill:#1f77b4;stroke:#1f77b4;" x="82.159742" xlink:href="#mcaed9dd2e4" y="181.062149"/>
     <use style="fill:#1f77b4;stroke:#1f77b4;" x="90.3344" xlink:href="#mcaed9dd2e4" y="182.409917"/>
     <use style="fill:#1f77b4;stroke:#1f77b4;" x="91.249121" xlink:href="#mcaed9dd2e4" y="182.859174"/>
     <use style="fill:#1f77b4;stroke:#1f77b4;" x="91.899239" xlink:href="#mcaed9dd2e4" y="183.30843"/>
     <use style="fill:#1f77b4;stroke:#1f77b4;" x="88.834399" xlink:href="#mcaed9dd2e4" y="183.30843"/>
     <use style="fill:#1f77b4;stroke:#1f77b4;" x="83.847244" xlink:href="#mcaed9dd2e4" y="183.30843"/>
     <use style="fill:#1f77b4;stroke:#1f77b4;" x="86.226919" xlink:href="#mcaed9dd2e4" y="183.30843"/>
     <use style="fill:#1f77b4;stroke:#1f77b4;" x="82.48042" xlink:href="#mcaed9dd2e4" y="183.30843"/>
     <use style="fill:#1f77b4;stroke:#1f77b4;" x="81.786494" xlink:href="#mcaed9dd2e4" y="183.30843"/>
     <use style="fill:#1f77b4;stroke:#1f77b4;" x="99.965252" xlink:href="#mcaed9dd2e4" y="184.206942"/>
     <use style="fill:#1f77b4;stroke:#1f77b4;" x="204.811156" xlink:href="#mcaed9dd2e4" y="185.554711"/>
     <use style="fill:#1f77b4;stroke:#1f77b4;" x="221.654631" xlink:href="#mcaed9dd2e4" y="185.554711"/>
     <use style="fill:#1f77b4;stroke:#1f77b4;" x="137.209449" xlink:href="#mcaed9dd2e4" y="185.554711"/>
     <use style="fill:#1f77b4;stroke:#1f77b4;" x="122.65628" xlink:href="#mcaed9dd2e4" y="185.554711"/>
     <use style="fill:#1f77b4;stroke:#1f77b4;" x="128.402197" xlink:href="#mcaed9dd2e4" y="185.554711"/>
     <use style="fill:#1f77b4;stroke:#1f77b4;" x="103.601354" xlink:href="#mcaed9dd2e4" y="185.554711"/>
     <use style="fill:#1f77b4;stroke:#1f77b4;" x="96.376463" xlink:href="#mcaed9dd2e4" y="185.554711"/>
     <use style="fill:#1f77b4;stroke:#1f77b4;" x="85.76255" xlink:href="#mcaed9dd2e4" y="185.554711"/>
     <use style="fill:#1f77b4;stroke:#1f77b4;" x="95.820972" xlink:href="#mcaed9dd2e4" y="185.554711"/>
     <use style="fill:#1f77b4;stroke:#1f77b4;" x="98.640484" xlink:href="#mcaed9dd2e4" y="185.554711"/>
     <use style="fill:#1f77b4;stroke:#1f77b4;" x="85.554022" xlink:href="#mcaed9dd2e4" y="185.554711"/>
     <use style="fill:#1f77b4;stroke:#1f77b4;" x="88.538254" xlink:href="#mcaed9dd2e4" y="185.554711"/>
     <use style="fill:#1f77b4;stroke:#1f77b4;" x="101.093757" xlink:href="#mcaed9dd2e4" y="185.554711"/>
     <use style="fill:#1f77b4;stroke:#1f77b4;" x="104.293527" xlink:href="#mcaed9dd2e4" y="185.554711"/>
     <use style="fill:#1f77b4;stroke:#1f77b4;" x="96.162678" xlink:href="#mcaed9dd2e4" y="185.554711"/>
     <use style="fill:#1f77b4;stroke:#1f77b4;" x="89.726339" xlink:href="#mcaed9dd2e4" y="185.554711"/>
     <use style="fill:#1f77b4;stroke:#1f77b4;" x="85.999116" xlink:href="#mcaed9dd2e4" y="185.554711"/>
     <use style="fill:#1f77b4;stroke:#1f77b4;" x="85.871195" xlink:href="#mcaed9dd2e4" y="185.554711"/>
     <use style="fill:#1f77b4;stroke:#1f77b4;" x="86.593158" xlink:href="#mcaed9dd2e4" y="185.554711"/>
     <use style="fill:#1f77b4;stroke:#1f77b4;" x="81.896892" xlink:href="#mcaed9dd2e4" y="185.554711"/>
     <use style="fill:#1f77b4;stroke:#1f77b4;" x="128.188412" xlink:href="#mcaed9dd2e4" y="187.800992"/>
     <use style="fill:#1f77b4;stroke:#1f77b4;" x="218.188506" xlink:href="#mcaed9dd2e4" y="187.800992"/>
     <use style="fill:#1f77b4;stroke:#1f77b4;" x="103.55404" xlink:href="#mcaed9dd2e4" y="187.800992"/>
     <use style="fill:#1f77b4;stroke:#1f77b4;" x="96.089079" xlink:href="#mcaed9dd2e4" y="187.800992"/>
     <use style="fill:#1f77b4;stroke:#1f77b4;" x="98.498544" xlink:href="#mcaed9dd2e4" y="187.800992"/>
     <use style="fill:#1f77b4;stroke:#1f77b4;" x="88.252623" xlink:href="#mcaed9dd2e4" y="187.800992"/>
     <use style="fill:#1f77b4;stroke:#1f77b4;" x="87.847832" xlink:href="#mcaed9dd2e4" y="187.800992"/>
     <use style="fill:#1f77b4;stroke:#1f77b4;" x="81.553433" xlink:href="#mcaed9dd2e4" y="187.800992"/>
     <use style="fill:#1f77b4;stroke:#1f77b4;" x="90.737438" xlink:href="#mcaed9dd2e4" y="188.924132"/>
     <use style="fill:#1f77b4;stroke:#1f77b4;" x="89.381128" xlink:href="#mcaed9dd2e4" y="188.924132"/>
     <use style="fill:#1f77b4;stroke:#1f77b4;" x="276.90761" xlink:href="#mcaed9dd2e4" y="189.14876"/>
     <use style="fill:#1f77b4;stroke:#1f77b4;" x="138.031296" xlink:href="#mcaed9dd2e4" y="190.047273"/>
     <use style="fill:#1f77b4;stroke:#1f77b4;" x="124.352544" xlink:href="#mcaed9dd2e4" y="190.047273"/>
     <use style="fill:#1f77b4;stroke:#1f77b4;" x="104.696565" xlink:href="#mcaed9dd2e4" y="190.047273"/>
     <use style="fill:#1f77b4;stroke:#1f77b4;" x="107.70533" xlink:href="#mcaed9dd2e4" y="190.047273"/>
     <use style="fill:#1f77b4;stroke:#1f77b4;" x="87.618276" xlink:href="#mcaed9dd2e4" y="190.047273"/>
     <use style="fill:#1f77b4;stroke:#1f77b4;" x="88.801104" xlink:href="#mcaed9dd2e4" y="190.047273"/>
     <use style="fill:#1f77b4;stroke:#1f77b4;" x="87.465823" xlink:href="#mcaed9dd2e4" y="190.047273"/>
     <use style="fill:#1f77b4;stroke:#1f77b4;" x="85.157993" xlink:href="#mcaed9dd2e4" y="190.047273"/>
     <use style="fill:#1f77b4;stroke:#1f77b4;" x="87.858346" xlink:href="#mcaed9dd2e4" y="190.047273"/>
     <use style="fill:#1f77b4;stroke:#1f77b4;" x="93.013726" xlink:href="#mcaed9dd2e4" y="191.170413"/>
     <use style="fill:#1f77b4;stroke:#1f77b4;" x="94.334989" xlink:href="#mcaed9dd2e4" y="191.395041"/>
     <use style="fill:#1f77b4;stroke:#1f77b4;" x="137.079776" xlink:href="#mcaed9dd2e4" y="191.844298"/>
     <use style="fill:#1f77b4;stroke:#1f77b4;" x="99.868873" xlink:href="#mcaed9dd2e4" y="192.068926"/>
     <use style="fill:#1f77b4;stroke:#1f77b4;" x="183.09618" xlink:href="#mcaed9dd2e4" y="192.293554"/>
     <use style="fill:#1f77b4;stroke:#1f77b4;" x="103.893994" xlink:href="#mcaed9dd2e4" y="192.293554"/>
     <use style="fill:#1f77b4;stroke:#1f77b4;" x="190.024925" xlink:href="#mcaed9dd2e4" y="192.293554"/>
     <use style="fill:#1f77b4;stroke:#1f77b4;" x="120.208263" xlink:href="#mcaed9dd2e4" y="192.293554"/>
     <use style="fill:#1f77b4;stroke:#1f77b4;" x="120.239806" xlink:href="#mcaed9dd2e4" y="192.293554"/>
     <use style="fill:#1f77b4;stroke:#1f77b4;" x="89.962905" xlink:href="#mcaed9dd2e4" y="192.293554"/>
     <use style="fill:#1f77b4;stroke:#1f77b4;" x="89.643979" xlink:href="#mcaed9dd2e4" y="192.293554"/>
     <use style="fill:#1f77b4;stroke:#1f77b4;" x="84.65332" xlink:href="#mcaed9dd2e4" y="192.293554"/>
     <use style="fill:#1f77b4;stroke:#1f77b4;" x="232.899386" xlink:href="#mcaed9dd2e4" y="193.416694"/>
     <use style="fill:#1f77b4;stroke:#1f77b4;" x="133.473464" xlink:href="#mcaed9dd2e4" y="194.539835"/>
     <use style="fill:#1f77b4;stroke:#1f77b4;" x="108.521919" xlink:href="#mcaed9dd2e4" y="194.539835"/>
     <use style="fill:#1f77b4;stroke:#1f77b4;" x="86.740355" xlink:href="#mcaed9dd2e4" y="194.539835"/>
     <use style="fill:#1f77b4;stroke:#1f77b4;" x="124.496235" xlink:href="#mcaed9dd2e4" y="195.662975"/>
     <use style="fill:#1f77b4;stroke:#1f77b4;" x="90.115358" xlink:href="#mcaed9dd2e4" y="196.786116"/>
     <use style="fill:#1f77b4;stroke:#1f77b4;" x="90.06454" xlink:href="#mcaed9dd2e4" y="196.786116"/>
     <use style="fill:#1f77b4;stroke:#1f77b4;" x="90.432531" xlink:href="#mcaed9dd2e4" y="196.786116"/>
     <use style="fill:#1f77b4;stroke:#1f77b4;" x="88.305193" xlink:href="#mcaed9dd2e4" y="196.786116"/>
     <use style="fill:#1f77b4;stroke:#1f77b4;" x="85.853671" xlink:href="#mcaed9dd2e4" y="196.786116"/>
     <use style="fill:#1f77b4;stroke:#1f77b4;" x="84.455305" xlink:href="#mcaed9dd2e4" y="196.786116"/>
     <use style="fill:#1f77b4;stroke:#1f77b4;" x="82.613598" xlink:href="#mcaed9dd2e4" y="196.786116"/>
     <use style="fill:#1f77b4;stroke:#1f77b4;" x="84.590236" xlink:href="#mcaed9dd2e4" y="196.786116"/>
     <use style="fill:#1f77b4;stroke:#1f77b4;" x="113.684308" xlink:href="#mcaed9dd2e4" y="199.032397"/>
     <use style="fill:#1f77b4;stroke:#1f77b4;" x="89.393395" xlink:href="#mcaed9dd2e4" y="199.032397"/>
     <use style="fill:#1f77b4;stroke:#1f77b4;" x="88.709983" xlink:href="#mcaed9dd2e4" y="199.032397"/>
     <use style="fill:#1f77b4;stroke:#1f77b4;" x="81.770723" xlink:href="#mcaed9dd2e4" y="199.032397"/>
     <use style="fill:#1f77b4;stroke:#1f77b4;" x="100.997379" xlink:href="#mcaed9dd2e4" y="201.278678"/>
     <use style="fill:#1f77b4;stroke:#1f77b4;" x="83.209393" xlink:href="#mcaed9dd2e4" y="201.278678"/>
     <use style="fill:#1f77b4;stroke:#1f77b4;" x="83.107757" xlink:href="#mcaed9dd2e4" y="201.278678"/>
     <use style="fill:#1f77b4;stroke:#1f77b4;" x="87.146897" xlink:href="#mcaed9dd2e4" y="202.401818"/>
     <use style="fill:#1f77b4;stroke:#1f77b4;" x="106.366543" xlink:href="#mcaed9dd2e4" y="203.524959"/>
     <use style="fill:#1f77b4;stroke:#1f77b4;" x="93.367698" xlink:href="#mcaed9dd2e4" y="203.524959"/>
     <use style="fill:#1f77b4;stroke:#1f77b4;" x="86.40741" xlink:href="#mcaed9dd2e4" y="205.77124"/>
     <use style="fill:#1f77b4;stroke:#1f77b4;" x="81.977499" xlink:href="#mcaed9dd2e4" y="208.017521"/>
     <use style="fill:#1f77b4;stroke:#1f77b4;" x="82.058107" xlink:href="#mcaed9dd2e4" y="208.017521"/>
     <use style="fill:#1f77b4;stroke:#1f77b4;" x="82.694206" xlink:href="#mcaed9dd2e4" y="211.61157"/>
     <use style="fill:#1f77b4;stroke:#1f77b4;" x="81.297592" xlink:href="#mcaed9dd2e4" y="214.756364"/>
    </g>
   </g>
   <g id="matplotlib.axis_1">
    <g id="xtick_1">
     <g id="line2d_1">
      <defs>
       <path d="M 0 0 
L 0 3.5 
" id="m1b57b6445f" style="stroke:#000000;stroke-width:0.8;"/>
      </defs>
      <g>
       <use style="stroke:#000000;stroke-width:0.8;" x="81.062779" xlink:href="#m1b57b6445f" y="224.64"/>
      </g>
     </g>
     <g id="text_1">
      <!-- 0 -->
      <g transform="translate(77.881529 239.238438)scale(0.1 -0.1)">
       <defs>
        <path d="M 31.78125 66.40625 
Q 24.171875 66.40625 20.328125 58.90625 
Q 16.5 51.421875 16.5 36.375 
Q 16.5 21.390625 20.328125 13.890625 
Q 24.171875 6.390625 31.78125 6.390625 
Q 39.453125 6.390625 43.28125 13.890625 
Q 47.125 21.390625 47.125 36.375 
Q 47.125 51.421875 43.28125 58.90625 
Q 39.453125 66.40625 31.78125 66.40625 
z
M 31.78125 74.21875 
Q 44.046875 74.21875 50.515625 64.515625 
Q 56.984375 54.828125 56.984375 36.375 
Q 56.984375 17.96875 50.515625 8.265625 
Q 44.046875 -1.421875 31.78125 -1.421875 
Q 19.53125 -1.421875 13.0625 8.265625 
Q 6.59375 17.96875 6.59375 36.375 
Q 6.59375 54.828125 13.0625 64.515625 
Q 19.53125 74.21875 31.78125 74.21875 
z
" id="DejaVuSans-48"/>
       </defs>
       <use xlink:href="#DejaVuSans-48"/>
      </g>
     </g>
    </g>
    <g id="xtick_2">
     <g id="line2d_2">
      <g>
       <use style="stroke:#000000;stroke-width:0.8;" x="124.871236" xlink:href="#m1b57b6445f" y="224.64"/>
      </g>
     </g>
     <g id="text_2">
      <!-- 25000 -->
      <g transform="translate(108.964986 239.238438)scale(0.1 -0.1)">
       <defs>
        <path d="M 19.1875 8.296875 
L 53.609375 8.296875 
L 53.609375 0 
L 7.328125 0 
L 7.328125 8.296875 
Q 12.9375 14.109375 22.625 23.890625 
Q 32.328125 33.6875 34.8125 36.53125 
Q 39.546875 41.84375 41.421875 45.53125 
Q 43.3125 49.21875 43.3125 52.78125 
Q 43.3125 58.59375 39.234375 62.25 
Q 35.15625 65.921875 28.609375 65.921875 
Q 23.96875 65.921875 18.8125 64.3125 
Q 13.671875 62.703125 7.8125 59.421875 
L 7.8125 69.390625 
Q 13.765625 71.78125 18.9375 73 
Q 24.125 74.21875 28.421875 74.21875 
Q 39.75 74.21875 46.484375 68.546875 
Q 53.21875 62.890625 53.21875 53.421875 
Q 53.21875 48.921875 51.53125 44.890625 
Q 49.859375 40.875 45.40625 35.40625 
Q 44.1875 33.984375 37.640625 27.21875 
Q 31.109375 20.453125 19.1875 8.296875 
z
" id="DejaVuSans-50"/>
        <path d="M 10.796875 72.90625 
L 49.515625 72.90625 
L 49.515625 64.59375 
L 19.828125 64.59375 
L 19.828125 46.734375 
Q 21.96875 47.46875 24.109375 47.828125 
Q 26.265625 48.1875 28.421875 48.1875 
Q 40.625 48.1875 47.75 41.5 
Q 54.890625 34.8125 54.890625 23.390625 
Q 54.890625 11.625 47.5625 5.09375 
Q 40.234375 -1.421875 26.90625 -1.421875 
Q 22.3125 -1.421875 17.546875 -0.640625 
Q 12.796875 0.140625 7.71875 1.703125 
L 7.71875 11.625 
Q 12.109375 9.234375 16.796875 8.0625 
Q 21.484375 6.890625 26.703125 6.890625 
Q 35.15625 6.890625 40.078125 11.328125 
Q 45.015625 15.765625 45.015625 23.390625 
Q 45.015625 31 40.078125 35.4375 
Q 35.15625 39.890625 26.703125 39.890625 
Q 22.75 39.890625 18.8125 39.015625 
Q 14.890625 38.140625 10.796875 36.28125 
z
" id="DejaVuSans-53"/>
       </defs>
       <use xlink:href="#DejaVuSans-50"/>
       <use x="63.623047" xlink:href="#DejaVuSans-53"/>
       <use x="127.246094" xlink:href="#DejaVuSans-48"/>
       <use x="190.869141" xlink:href="#DejaVuSans-48"/>
       <use x="254.492188" xlink:href="#DejaVuSans-48"/>
      </g>
     </g>
    </g>
    <g id="xtick_3">
     <g id="line2d_3">
      <g>
       <use style="stroke:#000000;stroke-width:0.8;" x="168.679693" xlink:href="#m1b57b6445f" y="224.64"/>
      </g>
     </g>
     <g id="text_3">
      <!-- 50000 -->
      <g transform="translate(152.773443 239.238438)scale(0.1 -0.1)">
       <use xlink:href="#DejaVuSans-53"/>
       <use x="63.623047" xlink:href="#DejaVuSans-48"/>
       <use x="127.246094" xlink:href="#DejaVuSans-48"/>
       <use x="190.869141" xlink:href="#DejaVuSans-48"/>
       <use x="254.492188" xlink:href="#DejaVuSans-48"/>
      </g>
     </g>
    </g>
    <g id="xtick_4">
     <g id="line2d_4">
      <g>
       <use style="stroke:#000000;stroke-width:0.8;" x="212.48815" xlink:href="#m1b57b6445f" y="224.64"/>
      </g>
     </g>
     <g id="text_4">
      <!-- 75000 -->
      <g transform="translate(196.5819 239.238438)scale(0.1 -0.1)">
       <defs>
        <path d="M 8.203125 72.90625 
L 55.078125 72.90625 
L 55.078125 68.703125 
L 28.609375 0 
L 18.3125 0 
L 43.21875 64.59375 
L 8.203125 64.59375 
z
" id="DejaVuSans-55"/>
       </defs>
       <use xlink:href="#DejaVuSans-55"/>
       <use x="63.623047" xlink:href="#DejaVuSans-53"/>
       <use x="127.246094" xlink:href="#DejaVuSans-48"/>
       <use x="190.869141" xlink:href="#DejaVuSans-48"/>
       <use x="254.492188" xlink:href="#DejaVuSans-48"/>
      </g>
     </g>
    </g>
    <g id="xtick_5">
     <g id="line2d_5">
      <g>
       <use style="stroke:#000000;stroke-width:0.8;" x="256.296607" xlink:href="#m1b57b6445f" y="224.64"/>
      </g>
     </g>
     <g id="text_5">
      <!-- 100000 -->
      <g transform="translate(237.209107 239.238438)scale(0.1 -0.1)">
       <defs>
        <path d="M 12.40625 8.296875 
L 28.515625 8.296875 
L 28.515625 63.921875 
L 10.984375 60.40625 
L 10.984375 69.390625 
L 28.421875 72.90625 
L 38.28125 72.90625 
L 38.28125 8.296875 
L 54.390625 8.296875 
L 54.390625 0 
L 12.40625 0 
z
" id="DejaVuSans-49"/>
       </defs>
       <use xlink:href="#DejaVuSans-49"/>
       <use x="63.623047" xlink:href="#DejaVuSans-48"/>
       <use x="127.246094" xlink:href="#DejaVuSans-48"/>
       <use x="190.869141" xlink:href="#DejaVuSans-48"/>
       <use x="254.492188" xlink:href="#DejaVuSans-48"/>
       <use x="318.115234" xlink:href="#DejaVuSans-48"/>
      </g>
     </g>
    </g>
    <g id="xtick_6">
     <g id="line2d_6">
      <g>
       <use style="stroke:#000000;stroke-width:0.8;" x="300.105064" xlink:href="#m1b57b6445f" y="224.64"/>
      </g>
     </g>
     <g id="text_6">
      <!-- 125000 -->
      <g transform="translate(281.017564 239.238438)scale(0.1 -0.1)">
       <use xlink:href="#DejaVuSans-49"/>
       <use x="63.623047" xlink:href="#DejaVuSans-50"/>
       <use x="127.246094" xlink:href="#DejaVuSans-53"/>
       <use x="190.869141" xlink:href="#DejaVuSans-48"/>
       <use x="254.492188" xlink:href="#DejaVuSans-48"/>
       <use x="318.115234" xlink:href="#DejaVuSans-48"/>
      </g>
     </g>
    </g>
    <g id="xtick_7">
     <g id="line2d_7">
      <g>
       <use style="stroke:#000000;stroke-width:0.8;" x="343.913521" xlink:href="#m1b57b6445f" y="224.64"/>
      </g>
     </g>
     <g id="text_7">
      <!-- 150000 -->
      <g transform="translate(324.826021 239.238438)scale(0.1 -0.1)">
       <use xlink:href="#DejaVuSans-49"/>
       <use x="63.623047" xlink:href="#DejaVuSans-53"/>
       <use x="127.246094" xlink:href="#DejaVuSans-48"/>
       <use x="190.869141" xlink:href="#DejaVuSans-48"/>
       <use x="254.492188" xlink:href="#DejaVuSans-48"/>
       <use x="318.115234" xlink:href="#DejaVuSans-48"/>
      </g>
     </g>
    </g>
    <g id="xtick_8">
     <g id="line2d_8">
      <g>
       <use style="stroke:#000000;stroke-width:0.8;" x="387.721978" xlink:href="#m1b57b6445f" y="224.64"/>
      </g>
     </g>
     <g id="text_8">
      <!-- 175000 -->
      <g transform="translate(368.634478 239.238438)scale(0.1 -0.1)">
       <use xlink:href="#DejaVuSans-49"/>
       <use x="63.623047" xlink:href="#DejaVuSans-55"/>
       <use x="127.246094" xlink:href="#DejaVuSans-53"/>
       <use x="190.869141" xlink:href="#DejaVuSans-48"/>
       <use x="254.492188" xlink:href="#DejaVuSans-48"/>
       <use x="318.115234" xlink:href="#DejaVuSans-48"/>
      </g>
     </g>
    </g>
    <g id="text_9">
     <!-- Men -->
     <g transform="translate(222.89375 252.916563)scale(0.1 -0.1)">
      <defs>
       <path d="M 9.8125 72.90625 
L 24.515625 72.90625 
L 43.109375 23.296875 
L 61.8125 72.90625 
L 76.515625 72.90625 
L 76.515625 0 
L 66.890625 0 
L 66.890625 64.015625 
L 48.09375 14.015625 
L 38.1875 14.015625 
L 19.390625 64.015625 
L 19.390625 0 
L 9.8125 0 
z
" id="DejaVuSans-77"/>
       <path d="M 56.203125 29.59375 
L 56.203125 25.203125 
L 14.890625 25.203125 
Q 15.484375 15.921875 20.484375 11.0625 
Q 25.484375 6.203125 34.421875 6.203125 
Q 39.59375 6.203125 44.453125 7.46875 
Q 49.3125 8.734375 54.109375 11.28125 
L 54.109375 2.78125 
Q 49.265625 0.734375 44.1875 -0.34375 
Q 39.109375 -1.421875 33.890625 -1.421875 
Q 20.796875 -1.421875 13.15625 6.1875 
Q 5.515625 13.8125 5.515625 26.8125 
Q 5.515625 40.234375 12.765625 48.109375 
Q 20.015625 56 32.328125 56 
Q 43.359375 56 49.78125 48.890625 
Q 56.203125 41.796875 56.203125 29.59375 
z
M 47.21875 32.234375 
Q 47.125 39.59375 43.09375 43.984375 
Q 39.0625 48.390625 32.421875 48.390625 
Q 24.90625 48.390625 20.390625 44.140625 
Q 15.875 39.890625 15.1875 32.171875 
z
" id="DejaVuSans-101"/>
       <path d="M 54.890625 33.015625 
L 54.890625 0 
L 45.90625 0 
L 45.90625 32.71875 
Q 45.90625 40.484375 42.875 44.328125 
Q 39.84375 48.1875 33.796875 48.1875 
Q 26.515625 48.1875 22.3125 43.546875 
Q 18.109375 38.921875 18.109375 30.90625 
L 18.109375 0 
L 9.078125 0 
L 9.078125 54.6875 
L 18.109375 54.6875 
L 18.109375 46.1875 
Q 21.34375 51.125 25.703125 53.5625 
Q 30.078125 56 35.796875 56 
Q 45.21875 56 50.046875 50.171875 
Q 54.890625 44.34375 54.890625 33.015625 
z
" id="DejaVuSans-110"/>
      </defs>
      <use xlink:href="#DejaVuSans-77"/>
      <use x="86.279297" xlink:href="#DejaVuSans-101"/>
      <use x="147.802734" xlink:href="#DejaVuSans-110"/>
     </g>
    </g>
   </g>
   <g id="matplotlib.axis_2">
    <g id="ytick_1">
     <g id="line2d_9">
      <defs>
       <path d="M 0 0 
L -3.5 0 
" id="mbbc25dd8e5" style="stroke:#000000;stroke-width:0.8;"/>
      </defs>
      <g>
       <use style="stroke:#000000;stroke-width:0.8;" x="66.053125" xlink:href="#mbbc25dd8e5" y="219.248926"/>
      </g>
     </g>
     <g id="text_10">
      <!-- 20000 -->
      <g transform="translate(27.240625 223.048144)scale(0.1 -0.1)">
       <use xlink:href="#DejaVuSans-50"/>
       <use x="63.623047" xlink:href="#DejaVuSans-48"/>
       <use x="127.246094" xlink:href="#DejaVuSans-48"/>
       <use x="190.869141" xlink:href="#DejaVuSans-48"/>
       <use x="254.492188" xlink:href="#DejaVuSans-48"/>
      </g>
     </g>
    </g>
    <g id="ytick_2">
     <g id="line2d_10">
      <g>
       <use style="stroke:#000000;stroke-width:0.8;" x="66.053125" xlink:href="#mbbc25dd8e5" y="174.323306"/>
      </g>
     </g>
     <g id="text_11">
      <!-- 40000 -->
      <g transform="translate(27.240625 178.122525)scale(0.1 -0.1)">
       <defs>
        <path d="M 37.796875 64.3125 
L 12.890625 25.390625 
L 37.796875 25.390625 
z
M 35.203125 72.90625 
L 47.609375 72.90625 
L 47.609375 25.390625 
L 58.015625 25.390625 
L 58.015625 17.1875 
L 47.609375 17.1875 
L 47.609375 0 
L 37.796875 0 
L 37.796875 17.1875 
L 4.890625 17.1875 
L 4.890625 26.703125 
z
" id="DejaVuSans-52"/>
       </defs>
       <use xlink:href="#DejaVuSans-52"/>
       <use x="63.623047" xlink:href="#DejaVuSans-48"/>
       <use x="127.246094" xlink:href="#DejaVuSans-48"/>
       <use x="190.869141" xlink:href="#DejaVuSans-48"/>
       <use x="254.492188" xlink:href="#DejaVuSans-48"/>
      </g>
     </g>
    </g>
    <g id="ytick_3">
     <g id="line2d_11">
      <g>
       <use style="stroke:#000000;stroke-width:0.8;" x="66.053125" xlink:href="#mbbc25dd8e5" y="129.397686"/>
      </g>
     </g>
     <g id="text_12">
      <!-- 60000 -->
      <g transform="translate(27.240625 133.196905)scale(0.1 -0.1)">
       <defs>
        <path d="M 33.015625 40.375 
Q 26.375 40.375 22.484375 35.828125 
Q 18.609375 31.296875 18.609375 23.390625 
Q 18.609375 15.53125 22.484375 10.953125 
Q 26.375 6.390625 33.015625 6.390625 
Q 39.65625 6.390625 43.53125 10.953125 
Q 47.40625 15.53125 47.40625 23.390625 
Q 47.40625 31.296875 43.53125 35.828125 
Q 39.65625 40.375 33.015625 40.375 
z
M 52.59375 71.296875 
L 52.59375 62.3125 
Q 48.875 64.0625 45.09375 64.984375 
Q 41.3125 65.921875 37.59375 65.921875 
Q 27.828125 65.921875 22.671875 59.328125 
Q 17.53125 52.734375 16.796875 39.40625 
Q 19.671875 43.65625 24.015625 45.921875 
Q 28.375 48.1875 33.59375 48.1875 
Q 44.578125 48.1875 50.953125 41.515625 
Q 57.328125 34.859375 57.328125 23.390625 
Q 57.328125 12.15625 50.6875 5.359375 
Q 44.046875 -1.421875 33.015625 -1.421875 
Q 20.359375 -1.421875 13.671875 8.265625 
Q 6.984375 17.96875 6.984375 36.375 
Q 6.984375 53.65625 15.1875 63.9375 
Q 23.390625 74.21875 37.203125 74.21875 
Q 40.921875 74.21875 44.703125 73.484375 
Q 48.484375 72.75 52.59375 71.296875 
z
" id="DejaVuSans-54"/>
       </defs>
       <use xlink:href="#DejaVuSans-54"/>
       <use x="63.623047" xlink:href="#DejaVuSans-48"/>
       <use x="127.246094" xlink:href="#DejaVuSans-48"/>
       <use x="190.869141" xlink:href="#DejaVuSans-48"/>
       <use x="254.492188" xlink:href="#DejaVuSans-48"/>
      </g>
     </g>
    </g>
    <g id="ytick_4">
     <g id="line2d_12">
      <g>
       <use style="stroke:#000000;stroke-width:0.8;" x="66.053125" xlink:href="#mbbc25dd8e5" y="84.472066"/>
      </g>
     </g>
     <g id="text_13">
      <!-- 80000 -->
      <g transform="translate(27.240625 88.271285)scale(0.1 -0.1)">
       <defs>
        <path d="M 31.78125 34.625 
Q 24.75 34.625 20.71875 30.859375 
Q 16.703125 27.09375 16.703125 20.515625 
Q 16.703125 13.921875 20.71875 10.15625 
Q 24.75 6.390625 31.78125 6.390625 
Q 38.8125 6.390625 42.859375 10.171875 
Q 46.921875 13.96875 46.921875 20.515625 
Q 46.921875 27.09375 42.890625 30.859375 
Q 38.875 34.625 31.78125 34.625 
z
M 21.921875 38.8125 
Q 15.578125 40.375 12.03125 44.71875 
Q 8.5 49.078125 8.5 55.328125 
Q 8.5 64.0625 14.71875 69.140625 
Q 20.953125 74.21875 31.78125 74.21875 
Q 42.671875 74.21875 48.875 69.140625 
Q 55.078125 64.0625 55.078125 55.328125 
Q 55.078125 49.078125 51.53125 44.71875 
Q 48 40.375 41.703125 38.8125 
Q 48.828125 37.15625 52.796875 32.3125 
Q 56.78125 27.484375 56.78125 20.515625 
Q 56.78125 9.90625 50.3125 4.234375 
Q 43.84375 -1.421875 31.78125 -1.421875 
Q 19.734375 -1.421875 13.25 4.234375 
Q 6.78125 9.90625 6.78125 20.515625 
Q 6.78125 27.484375 10.78125 32.3125 
Q 14.796875 37.15625 21.921875 38.8125 
z
M 18.3125 54.390625 
Q 18.3125 48.734375 21.84375 45.5625 
Q 25.390625 42.390625 31.78125 42.390625 
Q 38.140625 42.390625 41.71875 45.5625 
Q 45.3125 48.734375 45.3125 54.390625 
Q 45.3125 60.0625 41.71875 63.234375 
Q 38.140625 66.40625 31.78125 66.40625 
Q 25.390625 66.40625 21.84375 63.234375 
Q 18.3125 60.0625 18.3125 54.390625 
z
" id="DejaVuSans-56"/>
       </defs>
       <use xlink:href="#DejaVuSans-56"/>
       <use x="63.623047" xlink:href="#DejaVuSans-48"/>
       <use x="127.246094" xlink:href="#DejaVuSans-48"/>
       <use x="190.869141" xlink:href="#DejaVuSans-48"/>
       <use x="254.492188" xlink:href="#DejaVuSans-48"/>
      </g>
     </g>
    </g>
    <g id="ytick_5">
     <g id="line2d_13">
      <g>
       <use style="stroke:#000000;stroke-width:0.8;" x="66.053125" xlink:href="#mbbc25dd8e5" y="39.546446"/>
      </g>
     </g>
     <g id="text_14">
      <!-- 100000 -->
      <g transform="translate(20.878125 43.345665)scale(0.1 -0.1)">
       <use xlink:href="#DejaVuSans-49"/>
       <use x="63.623047" xlink:href="#DejaVuSans-48"/>
       <use x="127.246094" xlink:href="#DejaVuSans-48"/>
       <use x="190.869141" xlink:href="#DejaVuSans-48"/>
       <use x="254.492188" xlink:href="#DejaVuSans-48"/>
       <use x="318.115234" xlink:href="#DejaVuSans-48"/>
      </g>
     </g>
    </g>
    <g id="text_15">
     <!-- Median -->
     <g transform="translate(14.798438 134.106719)rotate(-90)scale(0.1 -0.1)">
      <defs>
       <path d="M 45.40625 46.390625 
L 45.40625 75.984375 
L 54.390625 75.984375 
L 54.390625 0 
L 45.40625 0 
L 45.40625 8.203125 
Q 42.578125 3.328125 38.25 0.953125 
Q 33.9375 -1.421875 27.875 -1.421875 
Q 17.96875 -1.421875 11.734375 6.484375 
Q 5.515625 14.40625 5.515625 27.296875 
Q 5.515625 40.1875 11.734375 48.09375 
Q 17.96875 56 27.875 56 
Q 33.9375 56 38.25 53.625 
Q 42.578125 51.265625 45.40625 46.390625 
z
M 14.796875 27.296875 
Q 14.796875 17.390625 18.875 11.75 
Q 22.953125 6.109375 30.078125 6.109375 
Q 37.203125 6.109375 41.296875 11.75 
Q 45.40625 17.390625 45.40625 27.296875 
Q 45.40625 37.203125 41.296875 42.84375 
Q 37.203125 48.484375 30.078125 48.484375 
Q 22.953125 48.484375 18.875 42.84375 
Q 14.796875 37.203125 14.796875 27.296875 
z
" id="DejaVuSans-100"/>
       <path d="M 9.421875 54.6875 
L 18.40625 54.6875 
L 18.40625 0 
L 9.421875 0 
z
M 9.421875 75.984375 
L 18.40625 75.984375 
L 18.40625 64.59375 
L 9.421875 64.59375 
z
" id="DejaVuSans-105"/>
       <path d="M 34.28125 27.484375 
Q 23.390625 27.484375 19.1875 25 
Q 14.984375 22.515625 14.984375 16.5 
Q 14.984375 11.71875 18.140625 8.90625 
Q 21.296875 6.109375 26.703125 6.109375 
Q 34.1875 6.109375 38.703125 11.40625 
Q 43.21875 16.703125 43.21875 25.484375 
L 43.21875 27.484375 
z
M 52.203125 31.203125 
L 52.203125 0 
L 43.21875 0 
L 43.21875 8.296875 
Q 40.140625 3.328125 35.546875 0.953125 
Q 30.953125 -1.421875 24.3125 -1.421875 
Q 15.921875 -1.421875 10.953125 3.296875 
Q 6 8.015625 6 15.921875 
Q 6 25.140625 12.171875 29.828125 
Q 18.359375 34.515625 30.609375 34.515625 
L 43.21875 34.515625 
L 43.21875 35.40625 
Q 43.21875 41.609375 39.140625 45 
Q 35.0625 48.390625 27.6875 48.390625 
Q 23 48.390625 18.546875 47.265625 
Q 14.109375 46.140625 10.015625 43.890625 
L 10.015625 52.203125 
Q 14.9375 54.109375 19.578125 55.046875 
Q 24.21875 56 28.609375 56 
Q 40.484375 56 46.34375 49.84375 
Q 52.203125 43.703125 52.203125 31.203125 
z
" id="DejaVuSans-97"/>
      </defs>
      <use xlink:href="#DejaVuSans-77"/>
      <use x="86.279297" xlink:href="#DejaVuSans-101"/>
      <use x="147.802734" xlink:href="#DejaVuSans-100"/>
      <use x="211.279297" xlink:href="#DejaVuSans-105"/>
      <use x="239.0625" xlink:href="#DejaVuSans-97"/>
      <use x="300.341797" xlink:href="#DejaVuSans-110"/>
     </g>
    </g>
   </g>
   <g id="patch_3">
    <path d="M 66.053125 224.64 
L 66.053125 7.2 
" style="fill:none;stroke:#000000;stroke-linecap:square;stroke-linejoin:miter;stroke-width:0.8;"/>
   </g>
   <g id="patch_4">
    <path d="M 400.853125 224.64 
L 400.853125 7.2 
" style="fill:none;stroke:#000000;stroke-linecap:square;stroke-linejoin:miter;stroke-width:0.8;"/>
   </g>
   <g id="patch_5">
    <path d="M 66.053125 224.64 
L 400.853125 224.64 
" style="fill:none;stroke:#000000;stroke-linecap:square;stroke-linejoin:miter;stroke-width:0.8;"/>
   </g>
   <g id="patch_6">
    <path d="M 66.053125 7.2 
L 400.853125 7.2 
" style="fill:none;stroke:#000000;stroke-linecap:square;stroke-linejoin:miter;stroke-width:0.8;"/>
   </g>
  </g>
 </g>
 <defs>
  <clipPath id="p48af69b734">
   <rect height="217.44" width="334.8" x="66.053125" y="7.2"/>
  </clipPath>
 </defs>
</svg>