<?xml version="1.0" encoding="utf-8" standalone="no"?>
<!DOCTYPE svg PUBLIC "-//W3C//DTD SVG 1.1//EN"
  "http://www.w3.org/Graphics/SVG/1.1/DTD/svg11.dtd">
<!-- Created with matplotlib (https://matplotlib.org/) -->
<svg height="262.19625pt" version="1.1" viewBox="0 0 408.053125 262.19625" width="408.053125pt" xmlns="http://www.w3.org/2000/svg" xmlns:xlink="http://www.w3.org/1999/xlink">
 <metadata>
  <rdf:RDF xmlns:cc="http://creativecommons.org/ns#" xmlns:dc="http://purl.org/dc/elements/1.1/" xmlns:rdf="http://www.w3.org/1999/02/22-rdf-syntax-ns#">
   <cc:Work>
    <dc:type rdf:resource="http://purl.org/dc/dcmitype/StillImage"/>
    <dc:date>2020-12-29T20:03:38.340160</dc:date>
    <dc:format>image/svg+xml</dc:format>
    <dc:creator>
     <cc:Agent>
      <dc:title>Matplotlib v3.3.3, https://matplotlib.org/</dc:title>
     </cc:Agent>
    </dc:creator>
   </cc:Work>
  </rdf:RDF>
 </metadata>
 <defs>
  <style type="text/css">*{stroke-linecap:butt;stroke-linejoin:round;}</style>
 </defs>
 <g id="figure_1">
  <g id="patch_1">
   <path d="M 0 262.19625 
L 408.053125 262.19625 
L 408.053125 0 
L 0 0 
z
" style="fill:none;"/>
  </g>
  <g id="axes_1">
   <g id="patch_2">
    <path d="M 66.053125 224.64 
L 400.853125 224.64 
L 400.853125 7.2 
L 66.053125 7.2 
z
" style="fill:#ffffff;"/>
   </g>
   <g id="PathCollection_1">
    <defs>
     <path d="M 0 2.236068 
C 0.593012 2.236068 1.161816 2.000462 1.581139 1.581139 
C 2.000462 1.161816 2.236068 0.593012 2.236068 0 
C 2.236068 -0.593012 2.000462 -1.161816 1.581139 -1.581139 
C 1.161816 -2.000462 0.593012 -2.236068 0 -2.236068 
C -0.593012 -2.236068 -1.161816 -2.000462 -1.581139 -1.581139 
C -2.000462 -1.161816 -2.236068 -0.593012 -2.236068 0 
C -2.236068 0.593012 -2.000462 1.161816 -1.581139 1.581139 
C -1.161816 2.000462 -0.593012 2.236068 0 2.236068 
z
" id="m3575b41ce3" style="stroke:#1f77b4;"/>
    </defs>
    <g clip-path="url(#pef20e236f4)">
     <use style="fill:#1f77b4;stroke:#1f77b4;" x="81.550806" xlink:href="#m3575b41ce3" y="17.083636"/>
     <use style="fill:#1f77b4;stroke:#1f77b4;" x="81.347624" xlink:href="#m3575b41ce3" y="95.703471"/>
     <use style="fill:#1f77b4;stroke:#1f77b4;" x="81.401145" xlink:href="#m3575b41ce3" y="100.196033"/>
     <use style="fill:#1f77b4;stroke:#1f77b4;" x="81.40511" xlink:href="#m3575b41ce3" y="106.934876"/>
     <use style="fill:#1f77b4;stroke:#1f77b4;" x="92.194568" xlink:href="#m3575b41ce3" y="118.166281"/>
     <use style="fill:#1f77b4;stroke:#1f77b4;" x="81.640999" xlink:href="#m3575b41ce3" y="118.166281"/>
     <use style="fill:#1f77b4;stroke:#1f77b4;" x="82.923523" xlink:href="#m3575b41ce3" y="124.905124"/>
     <use style="fill:#1f77b4;stroke:#1f77b4;" x="82.222793" xlink:href="#m3575b41ce3" y="124.905124"/>
     <use style="fill:#1f77b4;stroke:#1f77b4;" x="92.081579" xlink:href="#m3575b41ce3" y="129.397686"/>
     <use style="fill:#1f77b4;stroke:#1f77b4;" x="97.145271" xlink:href="#m3575b41ce3" y="129.397686"/>
     <use style="fill:#1f77b4;stroke:#1f77b4;" x="89.481841" xlink:href="#m3575b41ce3" y="129.397686"/>
     <use style="fill:#1f77b4;stroke:#1f77b4;" x="83.357639" xlink:href="#m3575b41ce3" y="129.397686"/>
     <use style="fill:#1f77b4;stroke:#1f77b4;" x="87.761237" xlink:href="#m3575b41ce3" y="129.397686"/>
     <use style="fill:#1f77b4;stroke:#1f77b4;" x="82.589512" xlink:href="#m3575b41ce3" y="129.397686"/>
     <use style="fill:#1f77b4;stroke:#1f77b4;" x="82.059256" xlink:href="#m3575b41ce3" y="133.890248"/>
     <use style="fill:#1f77b4;stroke:#1f77b4;" x="84.108917" xlink:href="#m3575b41ce3" y="135.911901"/>
     <use style="fill:#1f77b4;stroke:#1f77b4;" x="87.728529" xlink:href="#m3575b41ce3" y="136.136529"/>
     <use style="fill:#1f77b4;stroke:#1f77b4;" x="96.603122" xlink:href="#m3575b41ce3" y="138.38281"/>
     <use style="fill:#1f77b4;stroke:#1f77b4;" x="82.252527" xlink:href="#m3575b41ce3" y="142.875372"/>
     <use style="fill:#1f77b4;stroke:#1f77b4;" x="81.539903" xlink:href="#m3575b41ce3" y="142.875372"/>
     <use style="fill:#1f77b4;stroke:#1f77b4;" x="109.593884" xlink:href="#m3575b41ce3" y="145.121653"/>
     <use style="fill:#1f77b4;stroke:#1f77b4;" x="84.625296" xlink:href="#m3575b41ce3" y="147.367934"/>
     <use style="fill:#1f77b4;stroke:#1f77b4;" x="82.235678" xlink:href="#m3575b41ce3" y="147.367934"/>
     <use style="fill:#1f77b4;stroke:#1f77b4;" x="86.44204" xlink:href="#m3575b41ce3" y="149.614215"/>
     <use style="fill:#1f77b4;stroke:#1f77b4;" x="93.236248" xlink:href="#m3575b41ce3" y="151.860496"/>
     <use style="fill:#1f77b4;stroke:#1f77b4;" x="82.934426" xlink:href="#m3575b41ce3" y="151.860496"/>
     <use style="fill:#1f77b4;stroke:#1f77b4;" x="85.048509" xlink:href="#m3575b41ce3" y="151.860496"/>
     <use style="fill:#1f77b4;stroke:#1f77b4;" x="82.99092" xlink:href="#m3575b41ce3" y="151.860496"/>
     <use style="fill:#1f77b4;stroke:#1f77b4;" x="84.580695" xlink:href="#m3575b41ce3" y="151.860496"/>
     <use style="fill:#1f77b4;stroke:#1f77b4;" x="82.644024" xlink:href="#m3575b41ce3" y="151.860496"/>
     <use style="fill:#1f77b4;stroke:#1f77b4;" x="82.168281" xlink:href="#m3575b41ce3" y="151.860496"/>
     <use style="fill:#1f77b4;stroke:#1f77b4;" x="82.629157" xlink:href="#m3575b41ce3" y="151.860496"/>
     <use style="fill:#1f77b4;stroke:#1f77b4;" x="81.501249" xlink:href="#m3575b41ce3" y="151.860496"/>
     <use style="fill:#1f77b4;stroke:#1f77b4;" x="267.228413" xlink:href="#m3575b41ce3" y="156.353058"/>
     <use style="fill:#1f77b4;stroke:#1f77b4;" x="140.219851" xlink:href="#m3575b41ce3" y="158.599339"/>
     <use style="fill:#1f77b4;stroke:#1f77b4;" x="130.33034" xlink:href="#m3575b41ce3" y="158.599339"/>
     <use style="fill:#1f77b4;stroke:#1f77b4;" x="86.947518" xlink:href="#m3575b41ce3" y="160.84562"/>
     <use style="fill:#1f77b4;stroke:#1f77b4;" x="82.415073" xlink:href="#m3575b41ce3" y="160.84562"/>
     <use style="fill:#1f77b4;stroke:#1f77b4;" x="82.845224" xlink:href="#m3575b41ce3" y="160.84562"/>
     <use style="fill:#1f77b4;stroke:#1f77b4;" x="184.461984" xlink:href="#m3575b41ce3" y="163.091901"/>
     <use style="fill:#1f77b4;stroke:#1f77b4;" x="113.424608" xlink:href="#m3575b41ce3" y="163.091901"/>
     <use style="fill:#1f77b4;stroke:#1f77b4;" x="90.494778" xlink:href="#m3575b41ce3" y="163.091901"/>
     <use style="fill:#1f77b4;stroke:#1f77b4;" x="90.252942" xlink:href="#m3575b41ce3" y="163.091901"/>
     <use style="fill:#1f77b4;stroke:#1f77b4;" x="93.162904" xlink:href="#m3575b41ce3" y="163.091901"/>
     <use style="fill:#1f77b4;stroke:#1f77b4;" x="84.153518" xlink:href="#m3575b41ce3" y="163.091901"/>
     <use style="fill:#1f77b4;stroke:#1f77b4;" x="84.533121" xlink:href="#m3575b41ce3" y="163.091901"/>
     <use style="fill:#1f77b4;stroke:#1f77b4;" x="83.397284" xlink:href="#m3575b41ce3" y="163.091901"/>
     <use style="fill:#1f77b4;stroke:#1f77b4;" x="82.507248" xlink:href="#m3575b41ce3" y="163.091901"/>
     <use style="fill:#1f77b4;stroke:#1f77b4;" x="82.922532" xlink:href="#m3575b41ce3" y="163.765785"/>
     <use style="fill:#1f77b4;stroke:#1f77b4;" x="81.772819" xlink:href="#m3575b41ce3" y="165.338182"/>
     <use style="fill:#1f77b4;stroke:#1f77b4;" x="91.499785" xlink:href="#m3575b41ce3" y="169.830744"/>
     <use style="fill:#1f77b4;stroke:#1f77b4;" x="81.37934" xlink:href="#m3575b41ce3" y="169.830744"/>
     <use style="fill:#1f77b4;stroke:#1f77b4;" x="82.383356" xlink:href="#m3575b41ce3" y="171.40314"/>
     <use style="fill:#1f77b4;stroke:#1f77b4;" x="83.416116" xlink:href="#m3575b41ce3" y="172.077025"/>
     <use style="fill:#1f77b4;stroke:#1f77b4;" x="81.964108" xlink:href="#m3575b41ce3" y="172.077025"/>
     <use style="fill:#1f77b4;stroke:#1f77b4;" x="98.955077" xlink:href="#m3575b41ce3" y="174.098678"/>
     <use style="fill:#1f77b4;stroke:#1f77b4;" x="182.715611" xlink:href="#m3575b41ce3" y="174.323306"/>
     <use style="fill:#1f77b4;stroke:#1f77b4;" x="102.042452" xlink:href="#m3575b41ce3" y="174.323306"/>
     <use style="fill:#1f77b4;stroke:#1f77b4;" x="96.405887" xlink:href="#m3575b41ce3" y="174.323306"/>
     <use style="fill:#1f77b4;stroke:#1f77b4;" x="95.993576" xlink:href="#m3575b41ce3" y="174.323306"/>
     <use style="fill:#1f77b4;stroke:#1f77b4;" x="92.048872" xlink:href="#m3575b41ce3" y="174.323306"/>
     <use style="fill:#1f77b4;stroke:#1f77b4;" x="88.865357" xlink:href="#m3575b41ce3" y="174.323306"/>
     <use style="fill:#1f77b4;stroke:#1f77b4;" x="85.812672" xlink:href="#m3575b41ce3" y="174.323306"/>
     <use style="fill:#1f77b4;stroke:#1f77b4;" x="85.578765" xlink:href="#m3575b41ce3" y="174.323306"/>
     <use style="fill:#1f77b4;stroke:#1f77b4;" x="83.01669" xlink:href="#m3575b41ce3" y="174.323306"/>
     <use style="fill:#1f77b4;stroke:#1f77b4;" x="81.639017" xlink:href="#m3575b41ce3" y="174.323306"/>
     <use style="fill:#1f77b4;stroke:#1f77b4;" x="83.128687" xlink:href="#m3575b41ce3" y="174.323306"/>
     <use style="fill:#1f77b4;stroke:#1f77b4;" x="83.039486" xlink:href="#m3575b41ce3" y="174.323306"/>
     <use style="fill:#1f77b4;stroke:#1f77b4;" x="82.582574" xlink:href="#m3575b41ce3" y="174.323306"/>
     <use style="fill:#1f77b4;stroke:#1f77b4;" x="83.193111" xlink:href="#m3575b41ce3" y="174.323306"/>
     <use style="fill:#1f77b4;stroke:#1f77b4;" x="81.955188" xlink:href="#m3575b41ce3" y="174.323306"/>
     <use style="fill:#1f77b4;stroke:#1f77b4;" x="81.8085" xlink:href="#m3575b41ce3" y="174.323306"/>
     <use style="fill:#1f77b4;stroke:#1f77b4;" x="81.271307" xlink:href="#m3575b41ce3" y="174.323306"/>
     <use style="fill:#1f77b4;stroke:#1f77b4;" x="114.580267" xlink:href="#m3575b41ce3" y="176.569587"/>
     <use style="fill:#1f77b4;stroke:#1f77b4;" x="81.832287" xlink:href="#m3575b41ce3" y="177.917355"/>
     <use style="fill:#1f77b4;stroke:#1f77b4;" x="236.004793" xlink:href="#m3575b41ce3" y="178.815868"/>
     <use style="fill:#1f77b4;stroke:#1f77b4;" x="206.504752" xlink:href="#m3575b41ce3" y="178.815868"/>
     <use style="fill:#1f77b4;stroke:#1f77b4;" x="169.225318" xlink:href="#m3575b41ce3" y="178.815868"/>
     <use style="fill:#1f77b4;stroke:#1f77b4;" x="88.284554" xlink:href="#m3575b41ce3" y="178.815868"/>
     <use style="fill:#1f77b4;stroke:#1f77b4;" x="90.041831" xlink:href="#m3575b41ce3" y="178.815868"/>
     <use style="fill:#1f77b4;stroke:#1f77b4;" x="82.717368" xlink:href="#m3575b41ce3" y="179.939008"/>
     <use style="fill:#1f77b4;stroke:#1f77b4;" x="101.248556" xlink:href="#m3575b41ce3" y="180.163636"/>
     <use style="fill:#1f77b4;stroke:#1f77b4;" x="81.968072" xlink:href="#m3575b41ce3" y="181.062149"/>
     <use style="fill:#1f77b4;stroke:#1f77b4;" x="83.572714" xlink:href="#m3575b41ce3" y="182.409917"/>
     <use style="fill:#1f77b4;stroke:#1f77b4;" x="86.384555" xlink:href="#m3575b41ce3" y="182.859174"/>
     <use style="fill:#1f77b4;stroke:#1f77b4;" x="99.4219" xlink:href="#m3575b41ce3" y="183.30843"/>
     <use style="fill:#1f77b4;stroke:#1f77b4;" x="90.283667" xlink:href="#m3575b41ce3" y="183.30843"/>
     <use style="fill:#1f77b4;stroke:#1f77b4;" x="92.963687" xlink:href="#m3575b41ce3" y="183.30843"/>
     <use style="fill:#1f77b4;stroke:#1f77b4;" x="83.929522" xlink:href="#m3575b41ce3" y="183.30843"/>
     <use style="fill:#1f77b4;stroke:#1f77b4;" x="82.42994" xlink:href="#m3575b41ce3" y="183.30843"/>
     <use style="fill:#1f77b4;stroke:#1f77b4;" x="82.235678" xlink:href="#m3575b41ce3" y="183.30843"/>
     <use style="fill:#1f77b4;stroke:#1f77b4;" x="96.314703" xlink:href="#m3575b41ce3" y="184.206942"/>
     <use style="fill:#1f77b4;stroke:#1f77b4;" x="223.376785" xlink:href="#m3575b41ce3" y="185.554711"/>
     <use style="fill:#1f77b4;stroke:#1f77b4;" x="153.220525" xlink:href="#m3575b41ce3" y="185.554711"/>
     <use style="fill:#1f77b4;stroke:#1f77b4;" x="152.076759" xlink:href="#m3575b41ce3" y="185.554711"/>
     <use style="fill:#1f77b4;stroke:#1f77b4;" x="129.720794" xlink:href="#m3575b41ce3" y="185.554711"/>
     <use style="fill:#1f77b4;stroke:#1f77b4;" x="115.997585" xlink:href="#m3575b41ce3" y="185.554711"/>
     <use style="fill:#1f77b4;stroke:#1f77b4;" x="121.213911" xlink:href="#m3575b41ce3" y="185.554711"/>
     <use style="fill:#1f77b4;stroke:#1f77b4;" x="103.528159" xlink:href="#m3575b41ce3" y="185.554711"/>
     <use style="fill:#1f77b4;stroke:#1f77b4;" x="107.097223" xlink:href="#m3575b41ce3" y="185.554711"/>
     <use style="fill:#1f77b4;stroke:#1f77b4;" x="94.78836" xlink:href="#m3575b41ce3" y="185.554711"/>
     <use style="fill:#1f77b4;stroke:#1f77b4;" x="91.031971" xlink:href="#m3575b41ce3" y="185.554711"/>
     <use style="fill:#1f77b4;stroke:#1f77b4;" x="97.472344" xlink:href="#m3575b41ce3" y="185.554711"/>
     <use style="fill:#1f77b4;stroke:#1f77b4;" x="94.991542" xlink:href="#m3575b41ce3" y="185.554711"/>
     <use style="fill:#1f77b4;stroke:#1f77b4;" x="87.81674" xlink:href="#m3575b41ce3" y="185.554711"/>
     <use style="fill:#1f77b4;stroke:#1f77b4;" x="83.147519" xlink:href="#m3575b41ce3" y="185.554711"/>
     <use style="fill:#1f77b4;stroke:#1f77b4;" x="86.381581" xlink:href="#m3575b41ce3" y="185.554711"/>
     <use style="fill:#1f77b4;stroke:#1f77b4;" x="89.912983" xlink:href="#m3575b41ce3" y="185.554711"/>
     <use style="fill:#1f77b4;stroke:#1f77b4;" x="90.666243" xlink:href="#m3575b41ce3" y="185.554711"/>
     <use style="fill:#1f77b4;stroke:#1f77b4;" x="82.558787" xlink:href="#m3575b41ce3" y="185.554711"/>
     <use style="fill:#1f77b4;stroke:#1f77b4;" x="81.718307" xlink:href="#m3575b41ce3" y="185.554711"/>
     <use style="fill:#1f77b4;stroke:#1f77b4;" x="81.478453" xlink:href="#m3575b41ce3" y="185.554711"/>
     <use style="fill:#1f77b4;stroke:#1f77b4;" x="197.060259" xlink:href="#m3575b41ce3" y="187.800992"/>
     <use style="fill:#1f77b4;stroke:#1f77b4;" x="144.404409" xlink:href="#m3575b41ce3" y="187.800992"/>
     <use style="fill:#1f77b4;stroke:#1f77b4;" x="116.368269" xlink:href="#m3575b41ce3" y="187.800992"/>
     <use style="fill:#1f77b4;stroke:#1f77b4;" x="97.203748" xlink:href="#m3575b41ce3" y="187.800992"/>
     <use style="fill:#1f77b4;stroke:#1f77b4;" x="91.428424" xlink:href="#m3575b41ce3" y="187.800992"/>
     <use style="fill:#1f77b4;stroke:#1f77b4;" x="96.764676" xlink:href="#m3575b41ce3" y="187.800992"/>
     <use style="fill:#1f77b4;stroke:#1f77b4;" x="91.544386" xlink:href="#m3575b41ce3" y="187.800992"/>
     <use style="fill:#1f77b4;stroke:#1f77b4;" x="81.79066" xlink:href="#m3575b41ce3" y="187.800992"/>
     <use style="fill:#1f77b4;stroke:#1f77b4;" x="88.426286" xlink:href="#m3575b41ce3" y="188.924132"/>
     <use style="fill:#1f77b4;stroke:#1f77b4;" x="87.17746" xlink:href="#m3575b41ce3" y="188.924132"/>
     <use style="fill:#1f77b4;stroke:#1f77b4;" x="248.720021" xlink:href="#m3575b41ce3" y="189.14876"/>
     <use style="fill:#1f77b4;stroke:#1f77b4;" x="163.458914" xlink:href="#m3575b41ce3" y="190.047273"/>
     <use style="fill:#1f77b4;stroke:#1f77b4;" x="109.141928" xlink:href="#m3575b41ce3" y="190.047273"/>
     <use style="fill:#1f77b4;stroke:#1f77b4;" x="115.964878" xlink:href="#m3575b41ce3" y="190.047273"/>
     <use style="fill:#1f77b4;stroke:#1f77b4;" x="109.462064" xlink:href="#m3575b41ce3" y="190.047273"/>
     <use style="fill:#1f77b4;stroke:#1f77b4;" x="107.764255" xlink:href="#m3575b41ce3" y="190.047273"/>
     <use style="fill:#1f77b4;stroke:#1f77b4;" x="93.348246" xlink:href="#m3575b41ce3" y="190.047273"/>
     <use style="fill:#1f77b4;stroke:#1f77b4;" x="87.709698" xlink:href="#m3575b41ce3" y="190.047273"/>
     <use style="fill:#1f77b4;stroke:#1f77b4;" x="88.783093" xlink:href="#m3575b41ce3" y="190.047273"/>
     <use style="fill:#1f77b4;stroke:#1f77b4;" x="86.500517" xlink:href="#m3575b41ce3" y="190.047273"/>
     <use style="fill:#1f77b4;stroke:#1f77b4;" x="91.484918" xlink:href="#m3575b41ce3" y="191.170413"/>
     <use style="fill:#1f77b4;stroke:#1f77b4;" x="107.065507" xlink:href="#m3575b41ce3" y="191.395041"/>
     <use style="fill:#1f77b4;stroke:#1f77b4;" x="103.915691" xlink:href="#m3575b41ce3" y="191.844298"/>
     <use style="fill:#1f77b4;stroke:#1f77b4;" x="104.512352" xlink:href="#m3575b41ce3" y="192.068926"/>
     <use style="fill:#1f77b4;stroke:#1f77b4;" x="216.507252" xlink:href="#m3575b41ce3" y="192.293554"/>
     <use style="fill:#1f77b4;stroke:#1f77b4;" x="237.704584" xlink:href="#m3575b41ce3" y="192.293554"/>
     <use style="fill:#1f77b4;stroke:#1f77b4;" x="143.606548" xlink:href="#m3575b41ce3" y="192.293554"/>
     <use style="fill:#1f77b4;stroke:#1f77b4;" x="129.86649" xlink:href="#m3575b41ce3" y="192.293554"/>
     <use style="fill:#1f77b4;stroke:#1f77b4;" x="97.52983" xlink:href="#m3575b41ce3" y="192.293554"/>
     <use style="fill:#1f77b4;stroke:#1f77b4;" x="89.04277" xlink:href="#m3575b41ce3" y="192.293554"/>
     <use style="fill:#1f77b4;stroke:#1f77b4;" x="83.767967" xlink:href="#m3575b41ce3" y="192.293554"/>
     <use style="fill:#1f77b4;stroke:#1f77b4;" x="85.665984" xlink:href="#m3575b41ce3" y="192.293554"/>
     <use style="fill:#1f77b4;stroke:#1f77b4;" x="385.634943" xlink:href="#m3575b41ce3" y="193.416694"/>
     <use style="fill:#1f77b4;stroke:#1f77b4;" x="111.722835" xlink:href="#m3575b41ce3" y="194.539835"/>
     <use style="fill:#1f77b4;stroke:#1f77b4;" x="93.703071" xlink:href="#m3575b41ce3" y="194.539835"/>
     <use style="fill:#1f77b4;stroke:#1f77b4;" x="98.903538" xlink:href="#m3575b41ce3" y="194.539835"/>
     <use style="fill:#1f77b4;stroke:#1f77b4;" x="130.484956" xlink:href="#m3575b41ce3" y="195.662975"/>
     <use style="fill:#1f77b4;stroke:#1f77b4;" x="133.637746" xlink:href="#m3575b41ce3" y="196.786116"/>
     <use style="fill:#1f77b4;stroke:#1f77b4;" x="129.256944" xlink:href="#m3575b41ce3" y="196.786116"/>
     <use style="fill:#1f77b4;stroke:#1f77b4;" x="97.353409" xlink:href="#m3575b41ce3" y="196.786116"/>
     <use style="fill:#1f77b4;stroke:#1f77b4;" x="93.280849" xlink:href="#m3575b41ce3" y="196.786116"/>
     <use style="fill:#1f77b4;stroke:#1f77b4;" x="92.876467" xlink:href="#m3575b41ce3" y="196.786116"/>
     <use style="fill:#1f77b4;stroke:#1f77b4;" x="88.895091" xlink:href="#m3575b41ce3" y="196.786116"/>
     <use style="fill:#1f77b4;stroke:#1f77b4;" x="89.685023" xlink:href="#m3575b41ce3" y="196.786116"/>
     <use style="fill:#1f77b4;stroke:#1f77b4;" x="85.869166" xlink:href="#m3575b41ce3" y="196.786116"/>
     <use style="fill:#1f77b4;stroke:#1f77b4;" x="92.759513" xlink:href="#m3575b41ce3" y="199.032397"/>
     <use style="fill:#1f77b4;stroke:#1f77b4;" x="93.385909" xlink:href="#m3575b41ce3" y="199.032397"/>
     <use style="fill:#1f77b4;stroke:#1f77b4;" x="87.362802" xlink:href="#m3575b41ce3" y="199.032397"/>
     <use style="fill:#1f77b4;stroke:#1f77b4;" x="82.345693" xlink:href="#m3575b41ce3" y="199.032397"/>
     <use style="fill:#1f77b4;stroke:#1f77b4;" x="108.49571" xlink:href="#m3575b41ce3" y="201.278678"/>
     <use style="fill:#1f77b4;stroke:#1f77b4;" x="117.996698" xlink:href="#m3575b41ce3" y="201.278678"/>
     <use style="fill:#1f77b4;stroke:#1f77b4;" x="117.370303" xlink:href="#m3575b41ce3" y="201.278678"/>
     <use style="fill:#1f77b4;stroke:#1f77b4;" x="88.934737" xlink:href="#m3575b41ce3" y="202.401818"/>
     <use style="fill:#1f77b4;stroke:#1f77b4;" x="109.824818" xlink:href="#m3575b41ce3" y="203.524959"/>
     <use style="fill:#1f77b4;stroke:#1f77b4;" x="93.096498" xlink:href="#m3575b41ce3" y="203.524959"/>
     <use style="fill:#1f77b4;stroke:#1f77b4;" x="86.582781" xlink:href="#m3575b41ce3" y="205.77124"/>
     <use style="fill:#1f77b4;stroke:#1f77b4;" x="83.582626" xlink:href="#m3575b41ce3" y="208.017521"/>
     <use style="fill:#1f77b4;stroke:#1f77b4;" x="83.521176" xlink:href="#m3575b41ce3" y="208.017521"/>
     <use style="fill:#1f77b4;stroke:#1f77b4;" x="84.933538" xlink:href="#m3575b41ce3" y="211.61157"/>
     <use style="fill:#1f77b4;stroke:#1f77b4;" x="82.226758" xlink:href="#m3575b41ce3" y="214.756364"/>
    </g>
   </g>
   <g id="matplotlib.axis_1">
    <g id="xtick_1">
     <g id="line2d_1">
      <defs>
       <path d="M 0 0 
L 0 3.5 
" id="m7bb89ec3cb" style="stroke:#000000;stroke-width:0.8;"/>
      </defs>
      <g>
       <use style="stroke:#000000;stroke-width:0.8;" x="81.271307" xlink:href="#m7bb89ec3cb" y="224.64"/>
      </g>
     </g>
     <g id="text_1">
      <!-- 0 -->
      <g transform="translate(78.090057 239.238438)scale(0.1 -0.1)">
       <defs>
        <path d="M 31.78125 66.40625 
Q 24.171875 66.40625 20.328125 58.90625 
Q 16.5 51.421875 16.5 36.375 
Q 16.5 21.390625 20.328125 13.890625 
Q 24.171875 6.390625 31.78125 6.390625 
Q 39.453125 6.390625 43.28125 13.890625 
Q 47.125 21.390625 47.125 36.375 
Q 47.125 51.421875 43.28125 58.90625 
Q 39.453125 66.40625 31.78125 66.40625 
z
M 31.78125 74.21875 
Q 44.046875 74.21875 50.515625 64.515625 
Q 56.984375 54.828125 56.984375 36.375 
Q 56.984375 17.96875 50.515625 8.265625 
Q 44.046875 -1.421875 31.78125 -1.421875 
Q 19.53125 -1.421875 13.0625 8.265625 
Q 6.59375 17.96875 6.59375 36.375 
Q 6.59375 54.828125 13.0625 64.515625 
Q 19.53125 74.21875 31.78125 74.21875 
z
" id="DejaVuSans-48"/>
       </defs>
       <use xlink:href="#DejaVuSans-48"/>
      </g>
     </g>
    </g>
    <g id="xtick_2">
     <g id="line2d_2">
      <g>
       <use style="stroke:#000000;stroke-width:0.8;" x="130.827888" xlink:href="#m7bb89ec3cb" y="224.64"/>
      </g>
     </g>
     <g id="text_2">
      <!-- 50000 -->
      <g transform="translate(114.921638 239.238438)scale(0.1 -0.1)">
       <defs>
        <path d="M 10.796875 72.90625 
L 49.515625 72.90625 
L 49.515625 64.59375 
L 19.828125 64.59375 
L 19.828125 46.734375 
Q 21.96875 47.46875 24.109375 47.828125 
Q 26.265625 48.1875 28.421875 48.1875 
Q 40.625 48.1875 47.75 41.5 
Q 54.890625 34.8125 54.890625 23.390625 
Q 54.890625 11.625 47.5625 5.09375 
Q 40.234375 -1.421875 26.90625 -1.421875 
Q 22.3125 -1.421875 17.546875 -0.640625 
Q 12.796875 0.140625 7.71875 1.703125 
L 7.71875 11.625 
Q 12.109375 9.234375 16.796875 8.0625 
Q 21.484375 6.890625 26.703125 6.890625 
Q 35.15625 6.890625 40.078125 11.328125 
Q 45.015625 15.765625 45.015625 23.390625 
Q 45.015625 31 40.078125 35.4375 
Q 35.15625 39.890625 26.703125 39.890625 
Q 22.75 39.890625 18.8125 39.015625 
Q 14.890625 38.140625 10.796875 36.28125 
z
" id="DejaVuSans-53"/>
       </defs>
       <use xlink:href="#DejaVuSans-53"/>
       <use x="63.623047" xlink:href="#DejaVuSans-48"/>
       <use x="127.246094" xlink:href="#DejaVuSans-48"/>
       <use x="190.869141" xlink:href="#DejaVuSans-48"/>
       <use x="254.492188" xlink:href="#DejaVuSans-48"/>
      </g>
     </g>
    </g>
    <g id="xtick_3">
     <g id="line2d_3">
      <g>
       <use style="stroke:#000000;stroke-width:0.8;" x="180.384469" xlink:href="#m7bb89ec3cb" y="224.64"/>
      </g>
     </g>
     <g id="text_3">
      <!-- 100000 -->
      <g transform="translate(161.296969 239.238438)scale(0.1 -0.1)">
       <defs>
        <path d="M 12.40625 8.296875 
L 28.515625 8.296875 
L 28.515625 63.921875 
L 10.984375 60.40625 
L 10.984375 69.390625 
L 28.421875 72.90625 
L 38.28125 72.90625 
L 38.28125 8.296875 
L 54.390625 8.296875 
L 54.390625 0 
L 12.40625 0 
z
" id="DejaVuSans-49"/>
       </defs>
       <use xlink:href="#DejaVuSans-49"/>
       <use x="63.623047" xlink:href="#DejaVuSans-48"/>
       <use x="127.246094" xlink:href="#DejaVuSans-48"/>
       <use x="190.869141" xlink:href="#DejaVuSans-48"/>
       <use x="254.492188" xlink:href="#DejaVuSans-48"/>
       <use x="318.115234" xlink:href="#DejaVuSans-48"/>
      </g>
     </g>
    </g>
    <g id="xtick_4">
     <g id="line2d_4">
      <g>
       <use style="stroke:#000000;stroke-width:0.8;" x="229.94105" xlink:href="#m7bb89ec3cb" y="224.64"/>
      </g>
     </g>
     <g id="text_4">
      <!-- 150000 -->
      <g transform="translate(210.85355 239.238438)scale(0.1 -0.1)">
       <use xlink:href="#DejaVuSans-49"/>
       <use x="63.623047" xlink:href="#DejaVuSans-53"/>
       <use x="127.246094" xlink:href="#DejaVuSans-48"/>
       <use x="190.869141" xlink:href="#DejaVuSans-48"/>
       <use x="254.492188" xlink:href="#DejaVuSans-48"/>
       <use x="318.115234" xlink:href="#DejaVuSans-48"/>
      </g>
     </g>
    </g>
    <g id="xtick_5">
     <g id="line2d_5">
      <g>
       <use style="stroke:#000000;stroke-width:0.8;" x="279.497631" xlink:href="#m7bb89ec3cb" y="224.64"/>
      </g>
     </g>
     <g id="text_5">
      <!-- 200000 -->
      <g transform="translate(260.410131 239.238438)scale(0.1 -0.1)">
       <defs>
        <path d="M 19.1875 8.296875 
L 53.609375 8.296875 
L 53.609375 0 
L 7.328125 0 
L 7.328125 8.296875 
Q 12.9375 14.109375 22.625 23.890625 
Q 32.328125 33.6875 34.8125 36.53125 
Q 39.546875 41.84375 41.421875 45.53125 
Q 43.3125 49.21875 43.3125 52.78125 
Q 43.3125 58.59375 39.234375 62.25 
Q 35.15625 65.921875 28.609375 65.921875 
Q 23.96875 65.921875 18.8125 64.3125 
Q 13.671875 62.703125 7.8125 59.421875 
L 7.8125 69.390625 
Q 13.765625 71.78125 18.9375 73 
Q 24.125 74.21875 28.421875 74.21875 
Q 39.75 74.21875 46.484375 68.546875 
Q 53.21875 62.890625 53.21875 53.421875 
Q 53.21875 48.921875 51.53125 44.890625 
Q 49.859375 40.875 45.40625 35.40625 
Q 44.1875 33.984375 37.640625 27.21875 
Q 31.109375 20.453125 19.1875 8.296875 
z
" id="DejaVuSans-50"/>
       </defs>
       <use xlink:href="#DejaVuSans-50"/>
       <use x="63.623047" xlink:href="#DejaVuSans-48"/>
       <use x="127.246094" xlink:href="#DejaVuSans-48"/>
       <use x="190.869141" xlink:href="#DejaVuSans-48"/>
       <use x="254.492188" xlink:href="#DejaVuSans-48"/>
       <use x="318.115234" xlink:href="#DejaVuSans-48"/>
      </g>
     </g>
    </g>
    <g id="xtick_6">
     <g id="line2d_6">
      <g>
       <use style="stroke:#000000;stroke-width:0.8;" x="329.054212" xlink:href="#m7bb89ec3cb" y="224.64"/>
      </g>
     </g>
     <g id="text_6">
      <!-- 250000 -->
      <g transform="translate(309.966712 239.238438)scale(0.1 -0.1)">
       <use xlink:href="#DejaVuSans-50"/>
       <use x="63.623047" xlink:href="#DejaVuSans-53"/>
       <use x="127.246094" xlink:href="#DejaVuSans-48"/>
       <use x="190.869141" xlink:href="#DejaVuSans-48"/>
       <use x="254.492188" xlink:href="#DejaVuSans-48"/>
       <use x="318.115234" xlink:href="#DejaVuSans-48"/>
      </g>
     </g>
    </g>
    <g id="xtick_7">
     <g id="line2d_7">
      <g>
       <use style="stroke:#000000;stroke-width:0.8;" x="378.610793" xlink:href="#m7bb89ec3cb" y="224.64"/>
      </g>
     </g>
     <g id="text_7">
      <!-- 300000 -->
      <g transform="translate(359.523293 239.238438)scale(0.1 -0.1)">
       <defs>
        <path d="M 40.578125 39.3125 
Q 47.65625 37.796875 51.625 33 
Q 55.609375 28.21875 55.609375 21.1875 
Q 55.609375 10.40625 48.1875 4.484375 
Q 40.765625 -1.421875 27.09375 -1.421875 
Q 22.515625 -1.421875 17.65625 -0.515625 
Q 12.796875 0.390625 7.625 2.203125 
L 7.625 11.71875 
Q 11.71875 9.328125 16.59375 8.109375 
Q 21.484375 6.890625 26.8125 6.890625 
Q 36.078125 6.890625 40.9375 10.546875 
Q 45.796875 14.203125 45.796875 21.1875 
Q 45.796875 27.640625 41.28125 31.265625 
Q 36.765625 34.90625 28.71875 34.90625 
L 20.21875 34.90625 
L 20.21875 43.015625 
L 29.109375 43.015625 
Q 36.375 43.015625 40.234375 45.921875 
Q 44.09375 48.828125 44.09375 54.296875 
Q 44.09375 59.90625 40.109375 62.90625 
Q 36.140625 65.921875 28.71875 65.921875 
Q 24.65625 65.921875 20.015625 65.03125 
Q 15.375 64.15625 9.8125 62.3125 
L 9.8125 71.09375 
Q 15.4375 72.65625 20.34375 73.4375 
Q 25.25 74.21875 29.59375 74.21875 
Q 40.828125 74.21875 47.359375 69.109375 
Q 53.90625 64.015625 53.90625 55.328125 
Q 53.90625 49.265625 50.4375 45.09375 
Q 46.96875 40.921875 40.578125 39.3125 
z
" id="DejaVuSans-51"/>
       </defs>
       <use xlink:href="#DejaVuSans-51"/>
       <use x="63.623047" xlink:href="#DejaVuSans-48"/>
       <use x="127.246094" xlink:href="#DejaVuSans-48"/>
       <use x="190.869141" xlink:href="#DejaVuSans-48"/>
       <use x="254.492188" xlink:href="#DejaVuSans-48"/>
       <use x="318.115234" xlink:href="#DejaVuSans-48"/>
      </g>
     </g>
    </g>
    <g id="text_8">
     <!-- Women -->
     <g transform="translate(214.628125 252.916563)scale(0.1 -0.1)">
      <defs>
       <path d="M 3.328125 72.90625 
L 13.28125 72.90625 
L 28.609375 11.28125 
L 43.890625 72.90625 
L 54.984375 72.90625 
L 70.3125 11.28125 
L 85.59375 72.90625 
L 95.609375 72.90625 
L 77.296875 0 
L 64.890625 0 
L 49.515625 63.28125 
L 33.984375 0 
L 21.578125 0 
z
" id="DejaVuSans-87"/>
       <path d="M 30.609375 48.390625 
Q 23.390625 48.390625 19.1875 42.75 
Q 14.984375 37.109375 14.984375 27.296875 
Q 14.984375 17.484375 19.15625 11.84375 
Q 23.34375 6.203125 30.609375 6.203125 
Q 37.796875 6.203125 41.984375 11.859375 
Q 46.1875 17.53125 46.1875 27.296875 
Q 46.1875 37.015625 41.984375 42.703125 
Q 37.796875 48.390625 30.609375 48.390625 
z
M 30.609375 56 
Q 42.328125 56 49.015625 48.375 
Q 55.71875 40.765625 55.71875 27.296875 
Q 55.71875 13.875 49.015625 6.21875 
Q 42.328125 -1.421875 30.609375 -1.421875 
Q 18.84375 -1.421875 12.171875 6.21875 
Q 5.515625 13.875 5.515625 27.296875 
Q 5.515625 40.765625 12.171875 48.375 
Q 18.84375 56 30.609375 56 
z
" id="DejaVuSans-111"/>
       <path d="M 52 44.1875 
Q 55.375 50.25 60.0625 53.125 
Q 64.75 56 71.09375 56 
Q 79.640625 56 84.28125 50.015625 
Q 88.921875 44.046875 88.921875 33.015625 
L 88.921875 0 
L 79.890625 0 
L 79.890625 32.71875 
Q 79.890625 40.578125 77.09375 44.375 
Q 74.3125 48.1875 68.609375 48.1875 
Q 61.625 48.1875 57.5625 43.546875 
Q 53.515625 38.921875 53.515625 30.90625 
L 53.515625 0 
L 44.484375 0 
L 44.484375 32.71875 
Q 44.484375 40.625 41.703125 44.40625 
Q 38.921875 48.1875 33.109375 48.1875 
Q 26.21875 48.1875 22.15625 43.53125 
Q 18.109375 38.875 18.109375 30.90625 
L 18.109375 0 
L 9.078125 0 
L 9.078125 54.6875 
L 18.109375 54.6875 
L 18.109375 46.1875 
Q 21.1875 51.21875 25.484375 53.609375 
Q 29.78125 56 35.6875 56 
Q 41.65625 56 45.828125 52.96875 
Q 50 49.953125 52 44.1875 
z
" id="DejaVuSans-109"/>
       <path d="M 56.203125 29.59375 
L 56.203125 25.203125 
L 14.890625 25.203125 
Q 15.484375 15.921875 20.484375 11.0625 
Q 25.484375 6.203125 34.421875 6.203125 
Q 39.59375 6.203125 44.453125 7.46875 
Q 49.3125 8.734375 54.109375 11.28125 
L 54.109375 2.78125 
Q 49.265625 0.734375 44.1875 -0.34375 
Q 39.109375 -1.421875 33.890625 -1.421875 
Q 20.796875 -1.421875 13.15625 6.1875 
Q 5.515625 13.8125 5.515625 26.8125 
Q 5.515625 40.234375 12.765625 48.109375 
Q 20.015625 56 32.328125 56 
Q 43.359375 56 49.78125 48.890625 
Q 56.203125 41.796875 56.203125 29.59375 
z
M 47.21875 32.234375 
Q 47.125 39.59375 43.09375 43.984375 
Q 39.0625 48.390625 32.421875 48.390625 
Q 24.90625 48.390625 20.390625 44.140625 
Q 15.875 39.890625 15.1875 32.171875 
z
" id="DejaVuSans-101"/>
       <path d="M 54.890625 33.015625 
L 54.890625 0 
L 45.90625 0 
L 45.90625 32.71875 
Q 45.90625 40.484375 42.875 44.328125 
Q 39.84375 48.1875 33.796875 48.1875 
Q 26.515625 48.1875 22.3125 43.546875 
Q 18.109375 38.921875 18.109375 30.90625 
L 18.109375 0 
L 9.078125 0 
L 9.078125 54.6875 
L 18.109375 54.6875 
L 18.109375 46.1875 
Q 21.34375 51.125 25.703125 53.5625 
Q 30.078125 56 35.796875 56 
Q 45.21875 56 50.046875 50.171875 
Q 54.890625 44.34375 54.890625 33.015625 
z
" id="DejaVuSans-110"/>
      </defs>
      <use xlink:href="#DejaVuSans-87"/>
      <use x="93.001953" xlink:href="#DejaVuSans-111"/>
      <use x="154.183594" xlink:href="#DejaVuSans-109"/>
      <use x="251.595703" xlink:href="#DejaVuSans-101"/>
      <use x="313.119141" xlink:href="#DejaVuSans-110"/>
     </g>
    </g>
   </g>
   <g id="matplotlib.axis_2">
    <g id="ytick_1">
     <g id="line2d_8">
      <defs>
       <path d="M 0 0 
L -3.5 0 
" id="m2486750c46" style="stroke:#000000;stroke-width:0.8;"/>
      </defs>
      <g>
       <use style="stroke:#000000;stroke-width:0.8;" x="66.053125" xlink:href="#m2486750c46" y="219.248926"/>
      </g>
     </g>
     <g id="text_9">
      <!-- 20000 -->
      <g transform="translate(27.240625 223.048144)scale(0.1 -0.1)">
       <use xlink:href="#DejaVuSans-50"/>
       <use x="63.623047" xlink:href="#DejaVuSans-48"/>
       <use x="127.246094" xlink:href="#DejaVuSans-48"/>
       <use x="190.869141" xlink:href="#DejaVuSans-48"/>
       <use x="254.492188" xlink:href="#DejaVuSans-48"/>
      </g>
     </g>
    </g>
    <g id="ytick_2">
     <g id="line2d_9">
      <g>
       <use style="stroke:#000000;stroke-width:0.8;" x="66.053125" xlink:href="#m2486750c46" y="174.323306"/>
      </g>
     </g>
     <g id="text_10">
      <!-- 40000 -->
      <g transform="translate(27.240625 178.122525)scale(0.1 -0.1)">
       <defs>
        <path d="M 37.796875 64.3125 
L 12.890625 25.390625 
L 37.796875 25.390625 
z
M 35.203125 72.90625 
L 47.609375 72.90625 
L 47.609375 25.390625 
L 58.015625 25.390625 
L 58.015625 17.1875 
L 47.609375 17.1875 
L 47.609375 0 
L 37.796875 0 
L 37.796875 17.1875 
L 4.890625 17.1875 
L 4.890625 26.703125 
z
" id="DejaVuSans-52"/>
       </defs>
       <use xlink:href="#DejaVuSans-52"/>
       <use x="63.623047" xlink:href="#DejaVuSans-48"/>
       <use x="127.246094" xlink:href="#DejaVuSans-48"/>
       <use x="190.869141" xlink:href="#DejaVuSans-48"/>
       <use x="254.492188" xlink:href="#DejaVuSans-48"/>
      </g>
     </g>
    </g>
    <g id="ytick_3">
     <g id="line2d_10">
      <g>
       <use style="stroke:#000000;stroke-width:0.8;" x="66.053125" xlink:href="#m2486750c46" y="129.397686"/>
      </g>
     </g>
     <g id="text_11">
      <!-- 60000 -->
      <g transform="translate(27.240625 133.196905)scale(0.1 -0.1)">
       <defs>
        <path d="M 33.015625 40.375 
Q 26.375 40.375 22.484375 35.828125 
Q 18.609375 31.296875 18.609375 23.390625 
Q 18.609375 15.53125 22.484375 10.953125 
Q 26.375 6.390625 33.015625 6.390625 
Q 39.65625 6.390625 43.53125 10.953125 
Q 47.40625 15.53125 47.40625 23.390625 
Q 47.40625 31.296875 43.53125 35.828125 
Q 39.65625 40.375 33.015625 40.375 
z
M 52.59375 71.296875 
L 52.59375 62.3125 
Q 48.875 64.0625 45.09375 64.984375 
Q 41.3125 65.921875 37.59375 65.921875 
Q 27.828125 65.921875 22.671875 59.328125 
Q 17.53125 52.734375 16.796875 39.40625 
Q 19.671875 43.65625 24.015625 45.921875 
Q 28.375 48.1875 33.59375 48.1875 
Q 44.578125 48.1875 50.953125 41.515625 
Q 57.328125 34.859375 57.328125 23.390625 
Q 57.328125 12.15625 50.6875 5.359375 
Q 44.046875 -1.421875 33.015625 -1.421875 
Q 20.359375 -1.421875 13.671875 8.265625 
Q 6.984375 17.96875 6.984375 36.375 
Q 6.984375 53.65625 15.1875 63.9375 
Q 23.390625 74.21875 37.203125 74.21875 
Q 40.921875 74.21875 44.703125 73.484375 
Q 48.484375 72.75 52.59375 71.296875 
z
" id="DejaVuSans-54"/>
       </defs>
       <use xlink:href="#DejaVuSans-54"/>
       <use x="63.623047" xlink:href="#DejaVuSans-48"/>
       <use x="127.246094" xlink:href="#DejaVuSans-48"/>
       <use x="190.869141" xlink:href="#DejaVuSans-48"/>
       <use x="254.492188" xlink:href="#DejaVuSans-48"/>
      </g>
     </g>
    </g>
    <g id="ytick_4">
     <g id="line2d_11">
      <g>
       <use style="stroke:#000000;stroke-width:0.8;" x="66.053125" xlink:href="#m2486750c46" y="84.472066"/>
      </g>
     </g>
     <g id="text_12">
      <!-- 80000 -->
      <g transform="translate(27.240625 88.271285)scale(0.1 -0.1)">
       <defs>
        <path d="M 31.78125 34.625 
Q 24.75 34.625 20.71875 30.859375 
Q 16.703125 27.09375 16.703125 20.515625 
Q 16.703125 13.921875 20.71875 10.15625 
Q 24.75 6.390625 31.78125 6.390625 
Q 38.8125 6.390625 42.859375 10.171875 
Q 46.921875 13.96875 46.921875 20.515625 
Q 46.921875 27.09375 42.890625 30.859375 
Q 38.875 34.625 31.78125 34.625 
z
M 21.921875 38.8125 
Q 15.578125 40.375 12.03125 44.71875 
Q 8.5 49.078125 8.5 55.328125 
Q 8.5 64.0625 14.71875 69.140625 
Q 20.953125 74.21875 31.78125 74.21875 
Q 42.671875 74.21875 48.875 69.140625 
Q 55.078125 64.0625 55.078125 55.328125 
Q 55.078125 49.078125 51.53125 44.71875 
Q 48 40.375 41.703125 38.8125 
Q 48.828125 37.15625 52.796875 32.3125 
Q 56.78125 27.484375 56.78125 20.515625 
Q 56.78125 9.90625 50.3125 4.234375 
Q 43.84375 -1.421875 31.78125 -1.421875 
Q 19.734375 -1.421875 13.25 4.234375 
Q 6.78125 9.90625 6.78125 20.515625 
Q 6.78125 27.484375 10.78125 32.3125 
Q 14.796875 37.15625 21.921875 38.8125 
z
M 18.3125 54.390625 
Q 18.3125 48.734375 21.84375 45.5625 
Q 25.390625 42.390625 31.78125 42.390625 
Q 38.140625 42.390625 41.71875 45.5625 
Q 45.3125 48.734375 45.3125 54.390625 
Q 45.3125 60.0625 41.71875 63.234375 
Q 38.140625 66.40625 31.78125 66.40625 
Q 25.390625 66.40625 21.84375 63.234375 
Q 18.3125 60.0625 18.3125 54.390625 
z
" id="DejaVuSans-56"/>
       </defs>
       <use xlink:href="#DejaVuSans-56"/>
       <use x="63.623047" xlink:href="#DejaVuSans-48"/>
       <use x="127.246094" xlink:href="#DejaVuSans-48"/>
       <use x="190.869141" xlink:href="#DejaVuSans-48"/>
       <use x="254.492188" xlink:href="#DejaVuSans-48"/>
      </g>
     </g>
    </g>
    <g id="ytick_5">
     <g id="line2d_12">
      <g>
       <use style="stroke:#000000;stroke-width:0.8;" x="66.053125" xlink:href="#m2486750c46" y="39.546446"/>
      </g>
     </g>
     <g id="text_13">
      <!-- 100000 -->
      <g transform="translate(20.878125 43.345665)scale(0.1 -0.1)">
       <use xlink:href="#DejaVuSans-49"/>
       <use x="63.623047" xlink:href="#DejaVuSans-48"/>
       <use x="127.246094" xlink:href="#DejaVuSans-48"/>
       <use x="190.869141" xlink:href="#DejaVuSans-48"/>
       <use x="254.492188" xlink:href="#DejaVuSans-48"/>
       <use x="318.115234" xlink:href="#DejaVuSans-48"/>
      </g>
     </g>
    </g>
    <g id="text_14">
     <!-- Median -->
     <g transform="translate(14.798438 134.106719)rotate(-90)scale(0.1 -0.1)">
      <defs>
       <path d="M 9.8125 72.90625 
L 24.515625 72.90625 
L 43.109375 23.296875 
L 61.8125 72.90625 
L 76.515625 72.90625 
L 76.515625 0 
L 66.890625 0 
L 66.890625 64.015625 
L 48.09375 14.015625 
L 38.1875 14.015625 
L 19.390625 64.015625 
L 19.390625 0 
L 9.8125 0 
z
" id="DejaVuSans-77"/>
       <path d="M 45.40625 46.390625 
L 45.40625 75.984375 
L 54.390625 75.984375 
L 54.390625 0 
L 45.40625 0 
L 45.40625 8.203125 
Q 42.578125 3.328125 38.25 0.953125 
Q 33.9375 -1.421875 27.875 -1.421875 
Q 17.96875 -1.421875 11.734375 6.484375 
Q 5.515625 14.40625 5.515625 27.296875 
Q 5.515625 40.1875 11.734375 48.09375 
Q 17.96875 56 27.875 56 
Q 33.9375 56 38.25 53.625 
Q 42.578125 51.265625 45.40625 46.390625 
z
M 14.796875 27.296875 
Q 14.796875 17.390625 18.875 11.75 
Q 22.953125 6.109375 30.078125 6.109375 
Q 37.203125 6.109375 41.296875 11.75 
Q 45.40625 17.390625 45.40625 27.296875 
Q 45.40625 37.203125 41.296875 42.84375 
Q 37.203125 48.484375 30.078125 48.484375 
Q 22.953125 48.484375 18.875 42.84375 
Q 14.796875 37.203125 14.796875 27.296875 
z
" id="DejaVuSans-100"/>
       <path d="M 9.421875 54.6875 
L 18.40625 54.6875 
L 18.40625 0 
L 9.421875 0 
z
M 9.421875 75.984375 
L 18.40625 75.984375 
L 18.40625 64.59375 
L 9.421875 64.59375 
z
" id="DejaVuSans-105"/>
       <path d="M 34.28125 27.484375 
Q 23.390625 27.484375 19.1875 25 
Q 14.984375 22.515625 14.984375 16.5 
Q 14.984375 11.71875 18.140625 8.90625 
Q 21.296875 6.109375 26.703125 6.109375 
Q 34.1875 6.109375 38.703125 11.40625 
Q 43.21875 16.703125 43.21875 25.484375 
L 43.21875 27.484375 
z
M 52.203125 31.203125 
L 52.203125 0 
L 43.21875 0 
L 43.21875 8.296875 
Q 40.140625 3.328125 35.546875 0.953125 
Q 30.953125 -1.421875 24.3125 -1.421875 
Q 15.921875 -1.421875 10.953125 3.296875 
Q 6 8.015625 6 15.921875 
Q 6 25.140625 12.171875 29.828125 
Q 18.359375 34.515625 30.609375 34.515625 
L 43.21875 34.515625 
L 43.21875 35.40625 
Q 43.21875 41.609375 39.140625 45 
Q 35.0625 48.390625 27.6875 48.390625 
Q 23 48.390625 18.546875 47.265625 
Q 14.109375 46.140625 10.015625 43.890625 
L 10.015625 52.203125 
Q 14.9375 54.109375 19.578125 55.046875 
Q 24.21875 56 28.609375 56 
Q 40.484375 56 46.34375 49.84375 
Q 52.203125 43.703125 52.203125 31.203125 
z
" id="DejaVuSans-97"/>
      </defs>
      <use xlink:href="#DejaVuSans-77"/>
      <use x="86.279297" xlink:href="#DejaVuSans-101"/>
      <use x="147.802734" xlink:href="#DejaVuSans-100"/>
      <use x="211.279297" xlink:href="#DejaVuSans-105"/>
      <use x="239.0625" xlink:href="#DejaVuSans-97"/>
      <use x="300.341797" xlink:href="#DejaVuSans-110"/>
     </g>
    </g>
   </g>
   <g id="patch_3">
    <path d="M 66.053125 224.64 
L 66.053125 7.2 
" style="fill:none;stroke:#000000;stroke-linecap:square;stroke-linejoin:miter;stroke-width:0.8;"/>
   </g>
   <g id="patch_4">
    <path d="M 400.853125 224.64 
L 400.853125 7.2 
" style="fill:none;stroke:#000000;stroke-linecap:square;stroke-linejoin:miter;stroke-width:0.8;"/>
   </g>
   <g id="patch_5">
    <path d="M 66.053125 224.64 
L 400.853125 224.64 
" style="fill:none;stroke:#000000;stroke-linecap:square;stroke-linejoin:miter;stroke-width:0.8;"/>
   </g>
   <g id="patch_6">
    <path d="M 66.053125 7.2 
L 400.853125 7.2 
" style="fill:none;stroke:#000000;stroke-linecap:square;stroke-linejoin:miter;stroke-width:0.8;"/>
   </g>
  </g>
 </g>
 <defs>
  <clipPath id="pef20e236f4">
   <rect height="217.44" width="334.8" x="66.053125" y="7.2"/>
  </clipPath>
 </defs>
</svg>